<svg xmlns="http://www.w3.org/2000/svg" xmlns:xlink="http://www.w3.org/1999/xlink" width="1920" height="1129" viewBox="0 0 1920 1129">
  <defs>
    <linearGradient id="linear-gradient" x1="0.509" y1="0.165" x2="0.5" y2="1" gradientUnits="objectBoundingBox">
      <stop offset="0" stop-color="#fa5b5b"/>
      <stop offset="0.409" stop-color="#fa7e5b"/>
      <stop offset="1" stop-color="#fec640"/>
    </linearGradient>
    <linearGradient id="linear-gradient-2" x1="0.5" x2="0.575" y2="0.681" gradientUnits="objectBoundingBox">
      <stop offset="0" stop-color="#5b9690"/>
      <stop offset="1" stop-color="#142e2f"/>
    </linearGradient>
    <clipPath id="clip-Web_1920_9">
      <rect width="1920" height="1129"/>
    </clipPath>
  </defs>
  <g id="Web_1920_9" data-name="Web 1920 – 9" clip-path="url(#clip-Web_1920_9)">
    <rect width="1920" height="1129" fill="#fff"/>
    <path id="Path_1" data-name="Path 1" d="M0,0H1919V1131.023H0Z" transform="translate(0 -2.022)" fill-rule="evenodd" fill="url(#linear-gradient)"/>
    <path id="Path_2" data-name="Path 2" d="M1274.635,565.3c-10.023-10.685-27.285-15.092-39.981-.33-4.232,4.957-81.411,65.545-90.209,67.2-27.4,5.178-122.729,76.12-123.174,75.9-12.028-3.745-38.422,7.271-53.346-8.482-6.459-6.83-28.4-12.889-39.647-33.709-2.45-4.516-81.633-68.519-89.875-55.19-4.009,6.389-28.845,15.863-37.531,26.108-27.063,31.616-52.789,74.357-73.281,87.577-25.058,16.083-60.7,28.531-76.845,50.232-6.571,8.813-49.448,23.244-72.724,54.088A116.848,116.848,0,0,1,564.1,844.115h463.741c51.23-4.406,111.311,7.491,156.861,0,18.153-2.974,59.418-25.447,106.75-28.091V578.632A81.773,81.773,0,0,1,1274.635,565.3Z" transform="translate(423.963 97.6)" fill-rule="evenodd" fill="url(#linear-gradient-2)"/>
    <path id="Path_12" data-name="Path 12" d="M0,707.345V969.89H1919V788.871l-765.954-33.229C1091.909,686.674,637.518,659.144,0,707.345Z" transform="translate(0 159.11)" fill="#5b9690" fill-rule="evenodd"/>
    <path id="Path_3" data-name="Path 3" d="M1093.286,727.141c-3.23,1.542-3.341,6.83-7.239,9.364-2.561,1.652-2.784,5.177-10.246,8.482-.111,0-4.566,6.279-5.569,7.16-5.568,5.067-4.009,5.838-4.789,12.448a53.063,53.063,0,0,1-2.673,11.016c-1.448,4.3-.78,4.847,3.564,4.957,2.339,0,3.23-4.516,4.121-6.279,2.673-5.728,7.684-6.609,10.023-9.584.668-.771,3.118.33,5.457-3.856,1-1.873,2.227-2.974,2.562-4.847,0-.11.557-.551.557-.661.557-1.1.334-8.813,2.339-12.778,1.114-2.2,4.009-12.117,4.009-14.431C1095.29,727.8,1096.07,725.82,1093.286,727.141Z" transform="translate(399.508 115.508)" fill="#307168" fill-rule="evenodd"/>
    <path id="Path_5" data-name="Path 5" d="M1155.182,715.177c1.559-12.338,7.573-24.015,7.684-25.006.223-4.737-5.012-8.923,5.012-21.151,2.562-3.084,11.694-28.972,11.694-35.8,0-2.313-.111-15.978,0-16.088-7.209,7.131-17.387,9.625-26.46,13.435-5.486,2.3-9.52,5.878-15.679,9.359-9.355,5.288-34.14,23.1-44.395,29.1-6.586,4.8-21.251,11.432-29.822,18.11-5.718,4.455-5.746,5.638-11.549,11.137a9.4,9.4,0,0,1-1.283.276c-3.23.441-42.1,27.87-43.879,34.039-4.566,15.532-15.814,5.067-14.589,34.81.111,2.754-14.923,22.142,2.116,8.592,1.559-1.322,10.135-20.82,17.708,4.516,1.114,3.635,7.684,1.322,9.244,8.7,5.123.551,5.123,7.271,15.369-7.27,14.032-20.049,14.032-19.608,32.3-34.7,8.687-7.16,7.462-17.846,24.39-18.947,6.571-.441,39.982-42.742,31.183-8.592-1.448,5.508-8.353,13-8.353,28.091,0,16.634-8.91,29.633,7.35,11.9,2-2.2,3.119-19.829,8.91-25.337.111-.11,5.012-16.193,15.7-17.736C1155.07,715.617,1153.956,725.311,1155.182,715.177Z" transform="translate(401.283 102.266)" fill="#307168" fill-rule="evenodd"/>
    <path id="Path_6" data-name="Path 6" d="M1176.363,667.885c.111-2.534-6.125-16.3-5.9-17.185-4.009,13.219-.78,27.54-8.019,39.437-4.566,7.491-5.457,19.5-6.125,28.091-.446,5.618-4.121,15.092-10.691,15.422-5.012.331-3.452.661-4.121-4.847-.557-4.517-8.13,11.236-7.573,16.634.223,2.754-11.694,30.845-3.007,24.786,3.007-2.093,5.346-7.05,4.566,3.084-.223,3.415-4.789,10.685-1.336,14.982,6.237,7.6-4.232,22.142,8.353,13,6.459-4.627,9.912-6.169,16.817-7.711.111,0,7.239-7.27-2.227-12.007-2.116-1.1-6.348,8.482-8.8,1.763-3.452-9.694,5.346-26.989,8.687-17.515,2.784,7.821-4.343,3.635,9.466,6.94,4.677,1.1,5.791,12.778,7.35,10.355,2.673-4.406,1.448-16.744-1.782-20.269-5.568-6.059,1.671-20.379,5.68-26.769,2.9-4.627-2.673-11.457.557-22.472C1184.493,692.45,1175.583,686.171,1176.363,667.885Z" transform="translate(488.045 107.426)" fill="#1b6057" fill-rule="evenodd"/>
    <path id="Path_8" data-name="Path 8" d="M0,1135.582H310.329L356.184,664.51c29.073-109.532,250.87-219.032,250.87-219.032s125-63.844,194.394-110.31c123.09-82.388,393.239-124.282,486.546-55.464,94.155,65.929,257.313,253.936,350.712,403.062,34.614,55.266,34.036,116.183,8.889,204.956q32.075,91.426,64.149,182.968l39.888,64.774H1919V0H0Z" transform="translate(0 -2.022)" fill="#5b9690" fill-rule="evenodd"/>
    <path id="Path_9" data-name="Path 9" d="M0,1135.559H123.5l.685-316.566c9.047-85.862,51.4-146.7,111.028-193.856l1.1,4.751,7.95,8.227,6.716,29.084,4.8,5.678,2.467,24.565,2.33-.579,3.016-16.106,3.29-7.764,2.33-15.643,6.442-10.776,4.386-46.117,4.112,41.6,5.757,15.643,4.8,50.753,3.427,10.66,1.782,42.178,1.782-.348,2.193-26.651,2.33-12.514L308,695.7l4.66-16.917L316.5,586.2l3.29,60.022,4.66,11.124,1.782,19.235,2.33,8.69,2.193,19.583,1.782-.348,1.782-33.024,3.427-9.617,4.8-40.787,5.757-14.252,4.523-37.311.685,2.9,3.427,4.171,1.782,17.845,1.782-.348,2.193-11.7,2.33-5.678,1.782-11.356,4.66-7.879,1.1-11.008,4.66-2.086.411,4.171,4.112,11.356,3.564,36.848,2.467,7.764,1.234,30.706,1.234-.232,1.508-19.351,1.645-9.154,1.234-18.887,3.427-12.283L399.7,534.64l3.153-1.275.411,7.068,3.427,8,1.234,14.021,1.645,6.257,1.645,14.252,1.234-.232,1.234-23.986,2.467-6.952,3.016-25.145c68.763-27.97,66.9-105.842,130.066-135.233,53.466-24.877,170.721-48,205.211-84.347,76.212-80.532,153.382-76.361,222.6-98.376l2.467,11.819,5.072,6.837,4.249,21.089,3.153,4.635,1.645,17.265h1.508l1.919-10.66,2.056-4.867,1.508-10.429,4.112-6.373,3.016-32.329,3.427,48.435,4.112,8.343,1.508,13.557,2.056,6.373,1.919,13.9h1.508l1.645-22.6,3.153-6.025,4.386-27.462,5.072-8.922,4.112-25.956,3.427,20.625,5.757,4.983,2.193,8,2.879,3.708,2.741,8.227h2.193l2.193-13.325,4.249-3.592,4.112-11.124,2.33,10.892,6.99,9.5,5.894,28.968,4.249,6.373,2.193,23.754h2.193l2.741-14.6,2.879-6.721,2.056-14.368,5.757-8.806,4.112-44.5,4.8,66.627,5.757,11.587,2.193,18.656L1127.41,319l2.6,19.119h2.193l2.193-31.054,4.249-8.343,5.894-37.775,6.991-12.283,5.757-35.689,4.8,28.389,7.95,6.837,2.878,11.008,3.975,5.214,3.7,11.24h2.878l3.016-18.308,5.894-4.983,8.224-22.248,9.732-7.3,7.95-21.321C1399.36,241.6,1321.5,381.339,1521.49,489.565c71.414,38.7,80.461,130.589,218.9,267.2,66.479,65.7-19.875,191.655,40.436,379.254H1919V0H0Z" transform="translate(0 -2.022)" fill="#307168" fill-rule="evenodd"/>
    <path id="Path_10" data-name="Path 10" d="M0,999.912H11.137L0,784Z" transform="translate(0 133.647)" fill="#331b0b" fill-rule="evenodd"/>
    <path id="Path_11" data-name="Path 11" d="M0,775.208,110.205,475.322l140.087-69.989,81.557-91.658,284.56-159.213L871.5,77.521l238.367,32.213,107.053-16.8,96.361,31.4,22.617,55.389,52.635,62.457,9.458,70.916L1408,334.3l8.5,65.006,6.031,14.369,3.153,53.3h3.016l3.838-32.793,4.112-15.064,3.016-32.1,8.087-19.815,3.016-51.217,3.975,4.635,3.838,67.787,7.265,35.921,6.031,110.082,4.523,24.334,2.193,90.383h2.193l2.741-55.62,3.016-25.493,2.193-54.462,5.894-33.6,3.427-139.167,3.29.232,2.33,74.508,6.031,25.724,2.193,41.715,2.878,19.583,2.741,42.526h2.193l2.33-69.178,4.386-18.656L1532.456,373l7.265-27.578.137-2.2,6.168.348.274,2.549,4.386,10.429,2.33,38.818h2.193l2.741-23.87,3.016-10.892,1.508-16.107,15.9.811,3.838,19.12,4.386,79.954,3.29,17.729,1.508,65.7h1.645l2.056-40.441,2.056-18.54L1598.8,429.2l4.249-24.334,1.508-58.054,4.8.232.411,11.008,4.249,18.656,1.645,30.359,2.193,14.137,1.919,30.939h1.645l1.645-50.29,3.153-13.557,2.056-28.158,137.482,205.1L1738.2,773.47l111.85,126.768,7.539,235.344H1919V0H0Z" transform="translate(0 -2.022)" fill="#0f5a50" fill-rule="evenodd"/>
    <g id="Group_1" data-name="Group 1" transform="translate(1534.44 746.57)">
      <path id="Path_13" data-name="Path 13" d="M1320.983,791.295l-6.794-82.289L1278.663,628.7l-66.933,30.624L1158.5,758.8l-58.692,9.584-45.1,154h326.423L1357.847,798.9Z" transform="translate(-1054.7 -628.7)" fill="#1b6057" fill-rule="evenodd"/>
      <path id="Path_14" data-name="Path 14" d="M1298.12,791.295l-6.794-82.289L1255.8,628.7l3.786,90.33,13.253,97.16,24.612,8.7-6.9,41.089,13.03,32.5-17.819,23.9h72.5L1334.983,798.9Z" transform="translate(-1031.837 -628.7)" fill="#593520" fill-rule="evenodd"/>
      <path id="Path_15" data-name="Path 15" d="M1158.5,755.974l-58.692,9.584-45.1,154h99.007L1138,849.719l36.863-20.049,17.708-48.8L1223.981,779l8.241-96.169L1211.73,656.5Z" transform="translate(-1054.7 -625.876)" fill="#418982" fill-rule="evenodd"/>
    </g>
    <path id="Path_16" data-name="Path 16" d="M1055.608,813.971l-4.121-45.936L1030.661,723.2l-39.424,17.075-31.406,55.52-34.524,5.288L898.8,887.007h192.112l-13.7-68.849Z" transform="translate(349.615 127.471)" fill="#1b6057" fill-rule="evenodd"/>
    <path id="Path_17" data-name="Path 17" d="M1042.147,813.971l-4.12-45.936L1017.2,723.2l2.227,50.453,7.8,54.2,14.478,4.737-4.009,23.023,7.573,18.066L1034.8,887.007h42.655l-13.7-68.849Z" transform="translate(363.076 127.471)" fill="#1f4041" fill-rule="evenodd"/>
    <path id="Path_18" data-name="Path 18" d="M959.83,794.22l-34.524,5.288L898.8,885.432h58.246L947.8,846.546l21.717-11.236L979.988,808.1l18.487-1.1,4.789-53.537L991.236,738.7Z" transform="translate(349.615 129.045)" fill="#418982" fill-rule="evenodd"/>
    <path id="Path_151" data-name="Path 151" d="M285.173,285.015c-22.274-3.745-42.766,4.406-60.251,16.083l-1.559.991c4.121-6.059,6.459-11.787,4.789-15.973-1.114,2.2-3.564,3.966-4.455,6.169-2.9-3.084-6.794-5.508-10.914-5.177,1.448-3.084,1.225-5.728,1.782-8.923-4.789,5.949-11.694,7.491-10.357,15.973a12.775,12.775,0,0,1-1.225-5.4c1.559-20.71.445-41.53-13.921-58.715-6.9-8.262-25.5-27.65-55.462-25.226,22.5,7.16,41.986,32.277,26.617,51.554,11.026-7.16,18.376,10.135,9.912,17.956,11.248-6.169,22.831,6.94,12.028,13.66,6.571-2.424,14.255,6.83,17.485,21.261A133.082,133.082,0,0,0,201.09,327.1c2-2.093,5.568-5.508,9.466-9.474,12.028-7.931,26.06-5.178,27.285,2.093.557-12.668,17.819-9.143,18.042,3.525,2.562-11.236,21.494-13.439,20.6-.441,9.355-22.693,41.207-18.507,58.58-2.754C322.259,293.167,295.865,286.888,285.173,285.015Z" transform="translate(167.486 68.975)" fill="#011c1d" fill-rule="evenodd"/>
    <path id="Path_152" data-name="Path 152" d="M866.482,154.959c-9.578,11.457-10.357,25.447-9.355,39.217a8.56,8.56,0,0,1-.78,3.635c.891-5.728-3.787-6.72-6.9-10.685.334,2.093.223,3.856,1.114,5.949-2.784-.22-5.346,1.432-7.35,3.525-.557-1.542-2.227-2.644-3.007-4.186-1.225,2.754.445,6.72,3.118,10.685l-1-.661c-11.694-7.821-25.392-13.329-40.316-10.8-7.128,1.212-24.724,5.4-33.3,23.464,11.694-10.465,32.965-13.329,39.2,1.873-.557-8.7,12.139-7.16,13.81.33.111-8.482,11.694-10.8,12.028-2.313.78-4.847,10.246-6.72,18.265-1.432,2.673,2.754,5.012,4.957,6.348,6.389a81.642,81.642,0,0,0,1-11.9c2.116-9.694,7.35-15.863,11.694-14.211-7.239-4.517.445-13.329,8.019-9.143-5.68-5.177-.78-16.744,6.571-12.007-10.246-12.889,2.784-29.743,17.819-34.48C883.521,136.452,871.159,149.451,866.482,154.959Z" transform="translate(325.299 3.422)" fill="#011c1d" fill-rule="evenodd"/>
    <path id="Path_720" data-name="Path 720" d="M857.373,153.384c-8.686,10.389-9.392,23.076-8.484,35.564a7.76,7.76,0,0,1-.707,3.3c.808-5.195-3.434-6.094-6.262-9.69.3,1.9.2,3.5,1.01,5.394-2.525-.2-4.848,1.3-6.666,3.2-.505-1.4-2.02-2.4-2.727-3.8-1.111,2.5.4,6.094,2.828,9.69l-.909-.6c-10.6-7.093-23.027-12.088-36.56-9.79-6.464,1.1-22.421,4.895-30.2,21.278,10.6-9.49,29.895-12.088,35.55,1.7-.505-7.892,11.009-6.493,12.523.3.1-7.692,10.6-9.79,10.907-2.1.707-4.4,9.292-6.094,16.563-1.3,2.424,2.5,4.545,4.5,5.757,5.794a74.029,74.029,0,0,0,.909-10.789c1.919-8.791,6.666-14.385,10.6-12.887-6.565-4.1.4-12.088,7.272-8.291-5.151-4.7-.707-15.184,5.959-10.889C865.453,157.78,877.27,142.5,890.9,138.2,872.826,136.6,861.615,148.389,857.373,153.384Z" transform="translate(139.869 392.381) rotate(11)" fill="#011c1d" fill-rule="evenodd"/>
    <path id="Path_153" data-name="Path 153" d="M931.709,330.906c-12.585-2.2-23.276,2.974-33.188,9.474a6.829,6.829,0,0,1-3.007.881c4.677-1.763,3.452-5.508,5.123-9.474-1.448,1.1-2.784,1.763-3.9,3.3-1-2.093-3.23-3.3-5.68-3.856.891-1.1,1-2.754,1.893-3.966-2.561.33-4.789,3.084-6.682,6.72l.111-1.1c1-11.787-.668-24.125-8.687-33.929-3.9-4.737-14.367-15.863-31.295-14.651,12.7,4.186,23.61,18.507,14.924,29.413,6.237-4.076,10.357,5.838,5.568,10.245,6.348-3.415,12.919,4.076,6.793,7.821,4.009-1.432,9.244,4.737,8.687,12.778-.891,3.084-1.671,5.728-2.116,7.271a87.123,87.123,0,0,0,9.355-4.186c8.13-2.424,14.923-1.212,15.48,2.644.334-7.16,10.135-5.177,10.135,2.093,1.448-6.389,12.251-7.491,11.694-.11,5.346-12.889,23.388-10.355,33.188-1.322C952.646,335.643,937.834,332.007,931.709,330.906Z" transform="translate(113.6 77.768)" fill="#022021" fill-rule="evenodd"/>
    <path id="Path_154" data-name="Path 154" d="M1205.639,432.138c-26.729,16.3-40.427,43.513-47.777,71.493l-.668,2.534c-1.336-10.024-4.232-18.286-9.912-20.93.891,3.3-.111,7.381,1.114,10.575-5.9-.551-12.251.551-16.26,4.517-1.336-4.517-4.009-7.05-6.459-10.8.445,10.575-5.234,18.4,4.009,26.108a18.084,18.084,0,0,1-6.237-4.517c-17.6-23.023-38.088-43.623-69.049-48.47-14.812-2.313-52.232-5.618-81.3,24.125,30.07-13,73.726-4.517,75.731,29.523,4.789-17.405,28.622-6.169,26.951,9.694,5.9-16.634,30.181-13.549,25.169,3.415,4.677-8.482,21.271-5.838,37.977,6.279a175.319,175.319,0,0,0,18.042,17.185c.111-3.966.668-10.685,1-18.507,5.123-19.168,22.385-29.082,30.4-22.693-11.137-13.77,10.023-25.887,21.94-12.779-7.684-13.99,9.912-33.488,21.16-19.278-11.36-32.166,25.726-56.732,58.469-56.181C1251.745,406.911,1218.446,424.316,1205.639,432.138Z" transform="translate(255.655 109.916)" fill="#011c1d" fill-rule="evenodd"/>
    <path id="Path_155" data-name="Path 155" d="M486.541,287.632c-10.691,6.83-14.923,17.956-17.6,29.413a6.428,6.428,0,0,1-1.559,2.644c2.116-4.406-1.336-6.389-2.9-10.355-.223,1.763-.891,3.195-.557,5.067-2.227-.881-4.678-.22-6.794.991-.111-1.432-1.114-2.754-1.336-4.076-1.671,1.983-1.336,5.508-.223,9.474l-.668-.771c-7.462-9.253-17.151-17.185-29.847-18.837-6.125-.771-21.494-1.873-32.965,10.575,12.139-5.618,30.07-2.534,31.295,11.346,1.782-7.16,11.694-2.754,11.137,3.745,2.227-6.83,12.251-5.838,10.357,1.1,1.893-3.745,10.023-2.864,15.146,3.415,1.448,2.864,2.784,5.288,3.452,6.72a78.808,78.808,0,0,0,3.9-9.364c4.232-7.271,10.023-11.016,13.142-8.592-4.677-5.508,3.787-10.575,8.8-5.4-3.341-5.618,3.675-13.77,8.464-8.042-5.012-13,9.912-23.354,23.276-23.464C505.14,276.947,491.775,284.328,486.541,287.632Z" transform="translate(116.722 343.816)" fill="#022122" fill-rule="evenodd"/>
    <g id="Group_2" data-name="Group 2" transform="translate(210.153 689.003)">
      <path id="Path_157" data-name="Path 157" d="M312.765,644.985l-29.736-55.41-37.2-17.075-19.824,44.725-3.787,45.826-20.6,4.3L188.7,736.086H370.566L345.4,650.272Z" transform="translate(-188.7 -572.5)" fill="#418982" fill-rule="evenodd"/>
      <path id="Path_158" data-name="Path 158" d="M222.222,663.051l-20.6,4.3L188.7,736.086h40.427l-9.912-13.329,7.239-18.066-3.787-22.913,13.587-4.847,7.462-54.088,2.116-50.343-19.824,44.725Z" transform="translate(-188.7 -572.5)" fill="#418982" fill-rule="evenodd"/>
      <path id="Path_159" data-name="Path 159" d="M304.3,643.41,274.56,588,263.2,602.651l4.566,53.537,17.485,1.1,9.912,27.1,20.492,11.236-8.687,38.886H362.1L336.926,648.7Z" transform="translate(-180.23 -570.925)" fill="#418982" fill-rule="evenodd"/>
    </g>
    <path id="Path_160" data-name="Path 160" d="M439.147,665.128l-17.374-30.845-21.94-9.584L388.14,649.706l-2.227,25.557-12.139,2.424L366.2,716.022H473.226L458.414,668.1Z" transform="translate(161.641 129.478)" fill="#1b6057" fill-rule="evenodd"/>
    <path id="Path_161" data-name="Path 161" d="M385.912,675.263l-12.139,2.424L366.2,716.022h23.722l-5.791-7.491,4.232-10.024-2.227-12.779,8.019-2.754,4.343-30.184,1.336-28.091L388.14,649.706Z" transform="translate(161.641 129.478)" fill="#115048" fill-rule="evenodd"/>
    <path id="Path_162" data-name="Path 162" d="M434.167,664.245,416.793,633.4,410,641.552l2.784,29.853,10.246.661,5.791,15.092,12.139,6.279-5.123,21.7h32.408l-14.812-47.919Z" transform="translate(166.621 130.362)" fill="#418982" fill-rule="evenodd"/>
    <path id="Path_163" data-name="Path 163" d="M1747.658,810.588c-85.532,16.291,0,0-72.922,30.424s-254.815,1.187-287.027,15.536c-32.075,14.349-291.276-39.487-349.12-61.064s-404.771-20.391-389.831-3.56c14.941,16.723,188.473,38.3,72.785,67C635.873,880.176,212.735,824.506,0,794.3V995.831H1919V832.705C1862.524,816.2,1793.166,801.849,1747.658,810.588Z" transform="translate(0 133.169)" fill="#307168" fill-rule="evenodd"/>
    <path id="Path_164" data-name="Path 164" d="M1340.626,808.4c-69.494,15.72,0,0-59.248,29.359s-207.035,1.145-233.207,14.992c-15.146,8.016-92.325-6.038-163.713-23.424,12.473,20.822,10.135,41.123-27.731,55.7-45.1,17.386-167.61,1.249-158.478,70.378,1.225,9.578,12.585,21.134,27.4,31.753h754.191V829.743C1433.954,813.814,1377.6,799.968,1340.626,808.4Z" transform="translate(439.16 135.867)" fill="#0f5a50" fill-rule="evenodd"/>
    <path id="Path_165" data-name="Path 165" d="M473.3,791v72.925l.223.33c26.394.441,46.775-.991,58.914-4.737C626.432,830.106,485.551,808.075,473.3,791Z" transform="translate(182.934 134.359)" fill="#142e2f" fill-rule="evenodd"/>
    <path id="Path_167" data-name="Path 167" d="M397.181,387.042c-5.234-1.1-9.8.881-14.144,3.415a2.264,2.264,0,0,1-1.225.33c2-.661,1.559-2.313,2.339-3.966a4.921,4.921,0,0,0-1.671,1.322,3.545,3.545,0,0,0-2.339-1.763c.334-.441.445-1.1.891-1.652-1.114.11-2.116,1.212-2.9,2.754v-.441c.557-4.957.111-10.135-3.118-14.431-1.559-2.093-5.791-6.94-12.919-6.61,5.234,1.983,9.578,8.152,5.791,12.558,2.673-1.542,4.232,2.644,2.116,4.406,2.784-1.322,5.346,1.873,2.673,3.415,1.671-.551,3.787,2.093,3.452,5.508-.445,1.212-.78,2.424-1,2.974a30.8,30.8,0,0,0,4.009-1.652c3.452-.881,6.237-.33,6.459,1.322.223-2.974,4.343-1.983,4.232.991.78-2.644,5.234-2.974,4.9.11,2.45-5.288,10.023-3.966,13.921,0C405.868,389.355,399.631,387.593,397.181,387.042Z" transform="translate(628.666 198.992)" fill="#2b180c" fill-rule="evenodd"/>
    <path id="Path_156" data-name="Path 156" d="M518.587,180.368c-22.446,4.552-36.837,20.16-48.984,37.588a12.618,12.618,0,0,1-4.357,3.512c6.47-5.983,2.112-11.446,2.112-19.119-1.716,2.861-3.565,4.812-4.357,8.064-3.037-2.861-7.658-3.382-12.015-2.731.792-2.341-.132-5.333.4-7.674-4.093,2.211-5.941,8.324-6.6,15.608l-.66-1.821c-6.338-20.16-17.3-39.669-37.365-50.725-9.638-5.333-34.592-16.908-62.055-3.772,23.9-1.431,51.889,15.347,44.759,39.149,7.658-10.8,21.257,2.861,16.108,13.4,8.318-9.885,24.294-1.821,16.5,8.584,5.677-4.942,18.617,1.691,22.974,15.608.528,5.723,1.056,10.535,1.32,13.527a121.245,121.245,0,0,0,12.675-13.136c11.883-9.365,24.03-11.836,27.595-5.723-4.225-12.226,13.467-15.217,18.352-3.252-1.716-11.576,15.316-20.55,19.409-7.934.4-24.842,32.084-32.516,54.529-23.932C556.744,174.645,529.413,178.287,518.587,180.368Z" transform="translate(294.9 276.904)" fill="#011c1d" fill-rule="evenodd"/>
    <path id="Path_911" data-name="Path 911" d="M1142.492,446.266c-43.68-7.647-80.788,10.323-115.19,32.881a23.7,23.7,0,0,1-10.437,3.059c16.235-6.117,11.983-19.117,17.781-32.882-5.025,3.823-9.664,6.117-13.529,11.47-3.479-7.264-11.21-11.47-19.713-13.382,3.092-3.823,3.479-9.559,6.571-13.764-8.89,1.147-16.621,10.706-23.193,23.323l.387-3.823c3.479-40.911-2.319-83.733-30.15-117.762-13.529-16.441-49.864-55.057-108.618-50.852,44.066,14.529,81.947,64.234,51.8,102.086,21.646-14.147,35.948,20.264,19.327,35.558,22.033-11.853,44.839,14.147,23.579,27.146,13.916-4.97,32.083,16.441,30.15,44.352-3.092,10.706-5.8,19.882-7.344,25.235a302.415,302.415,0,0,0,32.47-14.529c28.217-8.412,51.8-4.206,53.729,9.176,1.16-24.852,35.176-17.97,35.176,7.265,5.025-22.176,42.52-26,40.587-.382,18.554-44.734,81.174-35.94,115.19-4.588C1215.162,462.707,1163.751,450.089,1142.492,446.266Z" transform="translate(-158.357 678.458) rotate(-7)" fill="#011c1d" fill-rule="evenodd"/>
    <circle id="Ellipse_2" data-name="Ellipse 2" cx="35" cy="35" r="35" transform="translate(890 304)" fill="#fec640" opacity="0.91"/>
    <text id="FLY" transform="translate(1564 329)" fill="#d1c2c2" font-size="195" font-family="Helvetica"><tspan x="0" y="0">FLY</tspan></text>
    <text id="BATS" transform="translate(1715 162)" fill="#d1c8c8" font-size="73" font-family="Helvetica"><tspan x="0" y="0">BATS</tspan></text>
    <path id="Path_166" data-name="Path 166" d="M936.632,0H0V1130.561l691.2.462h377.143v-11.165l-138.61-12.69-11-16.605V1078.7l-6.765-19.114-10.279,12.482-21.667,39.173v-25.567l-5.755-26.088-5.645-26.341-7.337-31.664-8.531,52.26-10,24.859-11.924,41.154-9.183-29.3v-40.874l-9.183-32.3-6.514-15.8L801.684,978.9l-4.4,11.261-10.649,27.231-4.953,32.3-6.783,22.384-5.75,25.265-20.64,9.831-9.644-9.831-8.5-43.492-7.949-28.956-12.746-36.455-28.507,108.9-28.919-95.752-34.949-33.571L594.68,921.407l-24.122-97.762-13.842,97.762-27,13.151L494.63,1017.39,476.95,874.8,453.24,853l-4.66-47.876-23.573-26.88-17.954-81.562-20.832,108.9-23.847,29.072-33.03,86.753C349.5,772.844,287.5,697.493,245.054,614.629c-33.642-65.676-51.271-138.407-31.66-240.159l3.289,33.917,5.482,16.843,2.878,67.142,2.741-.692,3.426-42.684,3.7-20.189,2.741-41.646,7.4-27.226,3.975-94.367c1.508-3.346,3.015-6.806,4.66-10.152l3.015,53.067,7.4,17.3,2.741,30.571,3.7,13.613L273.972,401l2.741-.692,2.878-52.721,5.482-15.459,7.675-65.411,9.183-23.073,7.264-60.335,3.975,17.881,10.69,14.882,5.482,55.144h5.345L341.4,237.3l7.127-15.574,5.345-33.225,14.391-20.535,7.4-74.294,2.056-1.5L387.18,190l12.746,37.147L410.616,340.9l7.675,25.149,3.975,93.329H426.1l4.8-57.451,5.208-26.3,3.838-56.3L450.362,284.6,459,84.215l7.538,133.821L476.95,244.57l3.838,43.146L486,307.9l4.8,43.953h3.838l3.975-71.525,7.675-19.266,10.69-87.1,12.746-28.379,4.112-32.763,7.4,33.455L548.9,157.01l3.975,40.031h3.838l4.8-24.688,5.208-11.306,3.838-24.111,10.416-14.882,6.167-62.065,7.538,78.1,9.183,27,7.812,82.715,5.619,18.227,2.878,67.834h2.741l3.563-41.762,3.838-19.15L633.055,232l7.538-25.265,6.03-140.166.685,2.538,4.934,89.291,7.538,19.381,2.741,31.379L666.36,223.8l3.563,31.956h2.741l2.878-52.029,5.619-13.959,4.112-33.8,11.787,45.107,12.609,14.882,6.442,55.144h6.3l7.949-33.917,8.5-15.574,6.3-33.225,16.995-20.535L772.3,82.485l12.335,107.4,15.076,37.147L812.46,340.783l9.183,25.149,4.66,93.329h4.523l5.756-57.451,6.168-26.3,4.523-56.3,12.335-34.724L869.749,84.1l8.908,133.822,12.335,26.534,4.523,43.146,6.167,20.189,5.756,43.953h4.523l4.66-71.525,9.183-19.266,12.746-87.1,15.076-28.379,4.934-32.763,8.772,33.455,9.183,10.729,4.66,40.031H985.7l5.756-24.688,6.167-11.306,4.523-24.111,12.335-14.882.685-5.768,6.167,33.8,6.579,11.075,3.426,41.185h3.289l4.112-25.265,3.289-8.768,8.909,79.485,6.579,18.227,3.426,67.834h3.289l4.112-41.762,4.523-19.15,3.289-40.954,8.909-25.265,7.949-145.473,6.442,97.367,8.909,19.381,3.289,31.379,4.523,14.651,4.112,31.956h3.289L1127,203.847l6.579-13.959,9.32-63.334,10.964-20.65,3.838-25.149,5.208,28.61,4.8,8.075,2.467,29.879h2.467l3.015-18.458,3.289-8.422,2.467-18,6.442-11.075,1.37-15.8,5.071,1.269,2.193,26.534,5.756,20.189,4.8,61.719,3.426,13.613,1.782,50.645h1.782l2.193-31.148,2.33-14.305,1.781-30.571,4.66-18.8,2.467-69.795,1.645.346,2.33,16.151.822,17.189,3.152,9.575,2.467,16.728.822,11.421,2.33,10.96,2.193,23.88H1245l.548-13.036,6.716,13.036,9.046,63.335,6.442,13.959,3.289,52.029h3.289l4.112-31.956,4.386-14.651,3.289-31.379,8.771-19.381,6.3-97.367,7.264,145.7,8.771,25.265,3.289,40.839,4.386,19.15,4.112,41.762h3.289l3.289-67.834,6.441-18.227,9.046-82.715,7.538-19.035,13.843,31.264c11.924,6.114,23.025,12.344,33.167,18.689l.274,1.154h1.645a347.59,347.59,0,0,1,53.725,40.839l3.29,23.073,8.908,19.266L1478,416.462h4.523l5.619-43.953,6.031-20.189,1.234-11.536c22.477,30.456,36.457,61.835,49.888,93.329l.548,6,6.03,26.3,5.619,57.451h4.523l3.975-51.812c9.852,20.929,28.214,39.02,53.863,51.812,22.389,19.332,44.439,45.127,71.542,65.052,89.223,65.757,74.719,186.271,24.831,307.864-32.208,78.678-86.78,111.495-132.282,152.564l-9.594-30.8-8.36-8.306-4.249-30.687h-4.112l-5.208,18.92-5.619,8.652-4.112,18.573-11.238,11.421-6.716,47.645-8.086-59.874-10.005-20.65-8.36-63.45-6.03-14.074-3.152-52.029h-3.015l-3.837,32.071-4.112,14.651-3.015,31.379-8.086,19.381-6.716,111.787-5.893-74.64-8.086-14.882-3.015-24-4.112-11.306-3.838-24.572h-3.015l-3.152,39.916-6.031,10.729-8.5,48.568-10.005,15.8-3.289,18.343-5.756-18.689-6.03-6-3.152-22.38h-3.015l-3.838,13.728-4.112,6.345-3.015,13.5-8.223,8.306-4.934,34.609-5.893-43.492-7.264-15-6.167-46.145L1335.6,982.55l-2.193-37.839h-2.193l-2.741,23.3-3.015,10.729-2.193,22.842-5.893,14.074-4.934,81.216-4.249-54.221-5.893-10.729-2.193-17.42-3.015-8.191-2.741-17.881h-2.193l-2.193,28.956-4.386,7.845-6.168,35.3-7.264,11.536-12.408,24.8v-47.187l-7.234-10.841-7.971-50.414h-6.66l-7.022-35.19h-4.591v35.19l-4.594,43.492-7.3,11.305-14.17,24.688-131.848,51.939v11.165H1920V0H936.632Z" transform="translate(0 -2.022)" fill="#142e2f" fill-rule="evenodd"/>
    <path id="Path_949" data-name="Path 949" d="M1939.69,1281.36h0" transform="translate(-767.64 -440.725)" fill="#fff"/>
  </g>
</svg>
