<svg xmlns="http://www.w3.org/2000/svg" xmlns:xlink="http://www.w3.org/1999/xlink" width="1920" height="1080" viewBox="0 0 1920 1080">
  <defs>
    <linearGradient id="linear-gradient" x1="0.512" y1="0.331" x2="0.533" y2="0.559" gradientUnits="objectBoundingBox">
      <stop offset="0" stop-color="#fa7e5b"/>
      <stop offset="1" stop-color="#fec640"/>
    </linearGradient>
    <clipPath id="clip-Web_1920_6">
      <rect width="1920" height="1080"/>
    </clipPath>
  </defs>
  <g id="Web_1920_6" data-name="Web 1920 – 6" clip-path="url(#clip-Web_1920_6)">
    <rect width="1920" height="1080" fill="url(#linear-gradient)"/>
    <path id="Path_913" data-name="Path 913" d="M1478.572,224.5l119.849,390.967L1478.572,980H0L-86.9,364.3c44.357,5.4,213.953,43.1,311.539,44.3,154.616,2,343.768-33.7,373.867-44.3,91.355-32.3,227.806-4.6,324.23-22.8,51.644-9.8,75.935-2.5,104.134,6.1.528-1,1.056-2,1.69-3.1,4.541-7.6,3.274-22.4,5.914-23.4,9.4-3.9,10.456,18.5,10.667,31.9a277.8,277.8,0,0,0,33.585,7c1.9-10.3,4.647-5.2,5.386.7a332.767,332.767,0,0,0,38.548,2.1c14.047,0,25.136-.1,34.535-.3,2.64-8.1,5.914-16.2,7.71-24.1,4.964-20.5,2.323-53.6,5.492-59.2,5.6-10,6.231,21.1,7.815,32.6,2.218,16.2,6.548,32.1,10.244,48.1,14.575-2.4,29.149-6.6,54.707-14-.106-7.6,2.007-15.5,3.7-22.8.528-2,4.013,2.2,4.647,4.1,1.8,4.8,4.33,9.7,6.442,14.6,42.351-11.6,25.875-2.1,47.948-26.7-.422-8.7-.528-17.3,3.908-24.6,6.759-11.2,7.182-4.9,10.244-23.2,5.492-32.1,3.485,28.7,11.512,12.5,3.38-6.8,6.442-1.2,8.871,6.6,29.888-17.5,83.328-42.1,138.141-61.9Z" transform="translate(244.2 99.9)" fill="#94b5b2" fill-rule="evenodd"/>
    <path id="Path_923" data-name="Path 923" d="M806.645,144.613c-3.717,4.446-4.019,9.875-3.63,15.218a3.32,3.32,0,0,1-.3,1.411c.346-2.223-1.469-2.608-2.68-4.147a8.7,8.7,0,0,0,.432,2.308,3.722,3.722,0,0,0-2.852,1.368c-.216-.6-.864-1.026-1.167-1.624-.475,1.069.173,2.608,1.21,4.147l-.389-.256c-4.538-3.035-9.854-5.173-15.645-4.189-2.766.47-9.594,2.095-12.922,9.105,4.538-4.061,12.792-5.173,15.213.727-.216-3.377,4.711-2.779,5.359.128.043-3.292,4.538-4.189,4.667-.9.3-1.881,3.976-2.608,7.088-.556,1.037,1.069,1.945,1.924,2.464,2.479a31.684,31.684,0,0,0,.389-4.617c.821-3.762,2.852-6.156,4.538-5.515-2.809-1.753.173-5.173,3.112-3.548-2.2-2.009-.3-6.5,2.55-4.66-3.976-5,1.081-11.542,6.915-13.38C813.257,137.431,808.46,142.476,806.645,144.613Z" transform="translate(332.719 -145.471) rotate(45)" fill="#120903" fill-rule="evenodd"/>
    <path id="Path_924" data-name="Path 924" d="M795.482,142.683c-2.623,3.138-2.837,6.97-2.562,10.741a2.344,2.344,0,0,1-.214,1c.244-1.569-1.037-1.84-1.891-2.927a6.141,6.141,0,0,0,.305,1.629,2.627,2.627,0,0,0-2.013.965c-.153-.422-.61-.724-.824-1.147-.336.754.122,1.84.854,2.927l-.274-.181c-3.2-2.142-6.955-3.651-11.042-2.957-1.952.332-6.772,1.478-9.121,6.427,3.2-2.866,9.029-3.651,10.737.513-.153-2.384,3.325-1.961,3.783.09.03-2.323,3.2-2.957,3.294-.634.214-1.328,2.806-1.84,5-.392.732.754,1.373,1.358,1.739,1.75a22.368,22.368,0,0,0,.274-3.259c.58-2.655,2.013-4.345,3.2-3.892-1.983-1.237.122-3.651,2.2-2.5-1.556-1.418-.214-4.586,1.8-3.289-2.806-3.53.763-8.146,4.881-9.444C800.149,137.614,796.763,141.174,795.482,142.683Z" transform="translate(581.815 333.313) rotate(18)" fill="#120903" fill-rule="evenodd"/>
    <path id="Path_914" data-name="Path 914" d="M1023.507,357.9c-11.3-1.7-22.707-3.3-34.007-5,3.591,96.2,7.287,226.3,10.667,288.5,5.175,94.6,15.525-189,23.34-283.5Zm209.112,224.5c-.739,0-1.373,1.7-1.373,3.8s.634,3.8,1.373,3.8,1.267-1.7,1.267-3.8-.634-3.8-1.267-3.8Zm-20.911,55.2c-.317,0-.634.7-.634,1.7s.317,1.7.634,1.7.634-.8.634-1.7-.317-1.7-.634-1.7Zm12.251-36.1c-.317,0-.634.7-.634,1.7s.211,1.7.634,1.7c.317,0,.634-.8.634-1.7s-.317-1.7-.634-1.7Zm4.33,10.2c-.317,0-.634.8-.634,1.7s.211,1.7.634,1.7c.317,0,.634-.8.634-1.7,0-1-.317-1.7-.634-1.7Zm-15.736,17a30.79,30.79,0,0,0,0,7.2,30.79,30.79,0,0,0,0-7.2Zm19.961-103.3a30.79,30.79,0,0,0,0,7.2,21.828,21.828,0,0,0,.106-3.6c0-2-.106-3.6-.106-3.6ZM1219.1,621.6a30.79,30.79,0,0,0,0,7.2,21.828,21.828,0,0,0,.106-3.6,13.762,13.762,0,0,0-.106-3.6Zm15.63,21.2a21.828,21.828,0,0,0-.106,3.6c0,2,.106,3.6.106,3.6a16.2,16.2,0,0,0,.211-3.6,16.95,16.95,0,0,0-.211-3.6Zm-5.069-11.4a30.79,30.79,0,0,0,0,7.2,30.79,30.79,0,0,0,0-7.2Zm-2.957-48.9c-.211,0-.317,3.6-.317,8a63.513,63.513,0,0,0,.317,8c.211,0,.422-3.6.422-8s-.211-8-.422-8Zm6.442-22.4c-.211,0-.317,3.6-.317,8s.106,7.9.317,7.9.317-3.6.317-7.9c.106-4.4-.106-8-.317-8Zm-8.132,55.6c-.317,0-.528,5.3-.528,11.8s.211,11.8.528,11.8.528-5.3.528-11.8c.106-6.5-.211-11.8-.528-11.8Zm-10.984-123.4c-.528,0-.951,9.2-.951,20.5s.422,20.5.951,20.5.95-9.2.95-20.5c.106-11.3-.422-20.5-.95-20.5Zm2.429,76.8c-.528,0-.951,9.2-.951,20.5s.422,20.5.951,20.5.951-9.2.951-20.5-.422-20.5-.951-20.5ZM993.83,784.7c.739,0,1.373,1.7,1.373,3.8s-.634,3.8-1.373,3.8-1.373-1.7-1.373-3.8.634-3.8,1.373-3.8Zm20.806,55.1c.317,0,.634.8.634,1.7s-.211,1.7-.634,1.7c-.317,0-.634-.8-.634-1.7.106-.9.317-1.7.634-1.7Zm-12.251-36.1c.317,0,.634.8.634,1.7s-.211,1.7-.634,1.7c-.317,0-.634-.8-.634-1.7.106-.9.317-1.7.634-1.7Zm-4.33,10.2c.317,0,.634.8.634,1.7s-.211,1.7-.634,1.7c-.317,0-.634-.7-.634-1.7s.317-1.7.634-1.7Zm15.736,17a30.79,30.79,0,0,1,0,7.2,21.828,21.828,0,0,1-.106-3.6c0-2,.106-3.6.106-3.6ZM993.936,727.6a21.828,21.828,0,0,1,.106,3.6c0,2-.106,3.6-.106,3.6a30.772,30.772,0,0,1,0-7.2Zm13.413,96.3a30.772,30.772,0,0,1,0,7.2,16.2,16.2,0,0,1-.211-3.6c0-2,0-3.6.211-3.6Zm-15.736,21.2a30.79,30.79,0,0,1,0,7.2,61.421,61.421,0,0,1,0-7.2Zm5.069-11.5a21.828,21.828,0,0,1,.106,3.6c0,2-.106,3.6-.106,3.6a16.2,16.2,0,0,1-.211-3.6,30.662,30.662,0,0,1,.211-3.6Zm3.063-48.9c.211,0,.317,3.6.317,8s-.106,8-.317,8-.317-3.6-.317-8c-.106-4.4.106-8,.317-8ZM993.2,762.4c.211,0,.422,3.6.422,8s-.211,8-.422,8-.317-3.6-.317-8,.106-8,.317-8Zm8.132,55.6c.317,0,.528,5.3.528,11.8s-.211,11.8-.528,11.8-.634-5.3-.634-11.8c.106-6.5.317-11.8.634-11.8Zm10.984-123.5c.528,0,.951,9.2.951,20.5,0,11.4-.422,20.5-.951,20.5s-.951-9.2-.951-20.5.422-20.5.951-20.5Zm-2.429,76.8c.528,0,.951,9.2.951,20.5s-.422,20.5-.951,20.5-.951-9.2-.951-20.5c0-11.2.422-20.5.951-20.5Zm122.193-414.6c30.311-3.5,76.78-16.7,105.3-26.2C1194.916,473.8,1204,719.6,1197.45,720.4c-20.066,2.4-9.083-161.7-3.908-211.5-30.416,124.4-38.126,310.2-48.159,471.2h-46.469c-12.673-261.1,8.132-506.4,33.162-623.4Zm-29.36,2.6c-30.522,85.7-38.654,393.7-43.3,620.7H1032.8c-11.089-210-17.743-564.5-4.647-621.2,24.291.6,50.166-.2,74.562.5Z" transform="translate(299.733 99.9)" fill="#fff" fill-rule="evenodd" opacity="0.734"/>
    <path id="Path_920" data-name="Path 920" d="M1293,0h-15.1c5.8,834-.5,1005,15.1,0Zm-18.8,903.7c.5,0,.9,1.5.9,3.4s-.4,3.4-.9,3.4-.9-1.5-.9-3.4.4-3.4.9-3.4ZM1282,843c.5,0,.9,4.8.9,10.6,0,5.9-.4,10.7-.9,10.7s-.9-4.8-.9-10.7c0-5.8.4-10.6.9-10.6Zm-2.4-126.4c1.2,0,2.2,12,2.2,26.7s-1,26.7-2.2,26.7-2.2-11.9-2.2-26.7c0-14.7,1-26.7,2.2-26.7Z" transform="translate(244.2 99.9)" fill="#fff" fill-rule="evenodd"/>
    <path id="Path_915" data-name="Path 915" d="M248.2,0,1425.663-72.362,1400,521.9c-2.5,4.8-4.1,9.5-6.3,14.2-6.6,14.6-4.1-169.6-11.8-170.3-8.2-.8-2.2,22-10.4,22.2-6.3.1-4.8-76.7-13.3-77-9.5-.4-9.7,44.6-14.8,44.4-6.6-.2,4-86.4-24.4-107-91.3-66.2-171-149.6-280.4-122.2-11.4,2.9-12.6,161.8-22.6,161.1-25-1.8-33.5-148.2-45.9-148.1-13.3.1-28.7,185.3-34.1,185.2-8.7-.2-6.4-95.7-16.3-96.3-25.7-1.5-24.4,144.8-35.6,143.7-13.8-1.4-2.2-148.3-22.2-149.6-6.8-.5,3.5,90.8-7.4,90-7.1-.5-3.5-86.9-10.4-87-12.5-.2-12.3,199.7-20.8,199.9-6.8.2-6.4-117.2-16.3-117-9.5.2-13.1,73.3-20.7,72.6-6.6-.7-5.3-144.1-20.8-143.7-12.855.379-20.835,60.041-25.083,96.628-12.358-2.193-12.285-.946-13.625,5.846-10.749,54.492-15.426,123.683-15.426,123.683s-.5,1-3.042,0c-2.314-8.612-4.915-31.337-8.991-41.022-.9-9.5-5.715-4.79-7.486-10.543-1.742-5.7,2.236-16.827,0-23.593-.3-.914-12.994-6.122-13.389-7.3-16.879-50.381-37.8-120.1-90.758-158.5-39.4-28.6-93.8-30.1-134.8-56.2C379.4,119,325.1,38.3,248.2,0Zm858.1,980H0V383.7c30.9,14.1,67.1,48.2,97.4,56.2,27.9,7.3,57.7,3.5,86,8.9,11.1,2.1,20.1,11.4,31.2,13.3,64.8,11.4,129.9,23,195.6,26.7,67.6,3.7,135.5.8,203-4.4,27.7-2.2,53.8-15.8,81.5-17.8,28.6-2,57.6,1.5,85.9,5.9,13.4,2.1,26.2,7.6,38.5,13.3,1.4.6-1,3.4,0,4.4,6.2,6.6,25.2,2.4,33.9,0,32-9,34.6,25.8,44.6,44.4,14.5,27,.7,61.6,5.9,91.8,1.4,8.1,11.9,12.6,13.3,20.7,6.1,34.6,2.3,70.6,8.9,105.2,2,10.6,11.9,18.2,16.3,28.1,4.6,10.5,3.3,23.7,10.4,32.6,20.2,25.4,45.5,46.4,69.6,68.1,1.9,1.7,5.9-.3,7.4,1.7,22.6,29.7,96.4,83.6,76.9,97.2Z" transform="translate(189.1 100)" fill="#5b9690" fill-rule="evenodd"/>
    <path id="Path_925" data-name="Path 925" d="M823.88,147c-5.405,6.061-5.845,13.463-5.279,20.748a4.294,4.294,0,0,1-.44,1.923c.5-3.031-2.137-3.555-3.9-5.653a11.206,11.206,0,0,0,.629,3.147,5.559,5.559,0,0,0-4.148,1.865c-.314-.816-1.257-1.4-1.7-2.215-.691,1.457.251,3.555,1.76,5.653l-.565-.35c-6.6-4.138-14.329-7.052-22.751-5.711-4.022.641-13.953,2.856-18.792,12.414,6.6-5.537,18.6-7.052,22.122.991-.314-4.6,6.851-3.788,7.793.175.063-4.487,6.6-5.711,6.787-1.224.44-2.564,5.782-3.555,10.307-.758,1.508,1.457,2.828,2.623,3.583,3.38a40.563,40.563,0,0,0,.566-6.294c1.194-5.129,4.148-8.392,6.6-7.518-4.085-2.389.251-7.052,4.525-4.837-3.205-2.739-.44-8.859,3.708-6.353-5.782-6.819,1.571-15.736,10.056-18.242C833.5,137.206,826.52,144.083,823.88,147Z" transform="translate(486.635 -51.17) rotate(45)" fill="#120903" fill-rule="evenodd"/>
    <path id="Path_917" data-name="Path 917" d="M0,0H122.6c-37.1,111.113-30,307.624-40,306.874-5.3-.429-7-65.468-17.8-60.217C43.4,257.264,49.3,520.206,34,518.063c-8.9-1.179-8.1-110.256-34.1-136.079V0ZM155.3,0H907.2c3.6,18.537,6.3,36.323,2.1,49.824-10.9,34.5-37.8,47.788-49.6,81.862-19.4,55.61-21.3,194.046-29.3,192.867-15.2-2.143-21.2-205.832-33.7-204.654-16.2,1.5-26.046,333.031-39.6,355.519-8.484-24.843-1.6-116.9-12.6-117.435-5.122-.249-8.245,7.958-10.4,20.017-5.078,28.381-4.166,78.193-11.4,78.345-7.7.214-3-171.545-13.3-169.831-21.7,3.536-45.9,290.373-45.9,290.373s-19.6-250.621-44.4-244.406C588,340.3,594.4,583.155,585.729,618.228,573.8,595.688,556.4,489.24,542.1,475.311c-25-24.216-9.9,71.79-8.9,107.9.9,33.216,1.5,68.361,14.8,98.362,16.3,36.752,35.9,110.47,71.1,95.255C662,758.183,643.1,636.784,657.6,634c22.7-4.393,6.4,142.936,44.4,196.725,16.8,23.787,20.9-77.147,38.5-79.4,12.7-1.5,5.5,66.968,23.7,92.041,19,26.251,57.8,27.644,80,50.788,19.6,20.573,16.8,63.432,41.5,76.183,63,32.573,139.9,21.858,204.4,50.788,20.9,9.322,50.3,18.215,78.1,28.823H0V926.407c44-8.358,96.4-3.214,139.3-16.179,27.7-8.465,56.7-16.608,79.8-34.93,25.6-20.251,47.3-47.574,62.1-77.79,10.3-20.894,12.4-46.4,10.3-69.861-1.8-20.144-20.4-36.109-21.5-56.36-3.6-64.5,9.4-129.114,7.4-193.617-1.5-48.538,14.8-110.684-17.8-144.436-22.9-23.787-17.1,98.362-26.7,98.362-9.3,0-8.2-60.646-14.8-90.433-15-67.075-35.3-133.079-50.4-200.261-7-31.716-8.1-97.291-12.4-140.9Z" transform="translate(95.1 30.051)" fill="#307168" fill-rule="evenodd"/>
    <path id="Path_951" data-name="Path 951" d="M473.3,791v72.925l.223.33c26.394.441,46.775-.991,58.914-4.737C626.432,830.106,493.846,804.011,473.3,791Z" transform="translate(291.413 207.359)" fill="#081819" fill-rule="evenodd"/>
    <path id="Path_918" data-name="Path 918" d="M244.1,0H168.4c7.8,222.2,18,553.4,25.5,696.8C205.3,915.1,227.2,218.5,244.1,0ZM182.4,735.3c1.5,0,2.8,3.8,2.8,8.6,0,4.7-1.3,8.6-2.8,8.6-1.6,0-2.8-3.8-2.8-8.6,0-4.7,1.2-8.6,2.8-8.6Zm44.1,123.3c.7,0,1.3,1.7,1.3,3.8s-.6,3.8-1.3,3.8-1.2-1.7-1.2-3.8.5-3.8,1.2-3.8Zm-25.9-80.7c.7,0,1.2,1.7,1.2,3.8s-.6,3.8-1.2,3.8c-.7,0-1.3-1.7-1.3-3.8s.6-3.8,1.3-3.8Zm-9.2,22.8c.7,0,1.2,1.7,1.2,3.8s-.6,3.8-1.2,3.8c-.7,0-1.3-1.7-1.3-3.8s.6-3.8,1.3-3.8Zm33.4,38.1c.2,0,.3,3.6.3,8s-.1,8-.3,8-.4-3.6-.4-8,.2-8,.4-8ZM182.6,607.7c.2,0,.3,3.6.3,8s-.1,8-.3,8-.3-3.6-.3-8c-.1-4.4.1-8,.3-8ZM210.9,823c.2,0,.3,3.6.3,8s-.1,8-.3,8-.4-3.6-.4-8,.2-8,.4-8Zm-33.1,47.4c.2,0,.3,3.6.3,8a67.075,67.075,0,0,1-.3,8c-.2,0-.4-3.6-.4-8s.2-8,.4-8Zm10.7-25.7c.2,0,.3,3.6.3,8a67.075,67.075,0,0,1-.3,8c-.2,0-.4-3.6-.4-8s.2-8,.4-8Zm6.4-109.2c.4,0,.8,8,.8,17.8,0,9.9-.4,17.8-.8,17.8-.5,0-.8-8-.8-17.8s.3-17.8.8-17.8Zm-13.8-50.1c.5,0,.8,8,.8,17.8s-.3,17.8-.8,17.8-.8-8-.8-17.8.4-17.8.8-17.8Zm17.2,124.4c.7,0,1.2,11.8,1.2,26.4s-.5,26.4-1.2,26.4-1.2-11.8-1.2-26.4.5-26.4,1.2-26.4Zm23.3-276.1c1.2,0,2.1,20.5,2.1,45.9s-.9,45.9-2.1,45.9-2.1-20.6-2.1-45.9.9-45.9,2.1-45.9Zm-5.1,171.9c1.2,0,2.1,20.5,2.1,45.9s-.9,45.9-2.1,45.9-2.1-20.6-2.1-45.9c0-25.4.9-45.9,2.1-45.9Z" transform="translate(298.1 -12.8)" fill="#fff" fill-rule="evenodd" opacity="0.833"/>
    <path id="Path_950" data-name="Path 950" d="M1747.658,810.853c-85.532,16.414,0,0-72.922,30.653s-254.815,1.2-287.027,15.653C1366.54,866.7,1212.4,787,1075.948,810.853c-66.788,5.594-126.993-9.022-146.66-16.413-57.844-21.74-225.485-12.328-284.851,1.2,58.391,14.941,99.165,33.955,43.963,61.523C602.731,878.572,212.735,824.875,0,794.44l-12.518,80.086h1819.8V810.853C1750.811,794.222,1793.166,802.049,1747.658,810.853Z" transform="translate(110 205.474)" fill="#163839" fill-rule="evenodd"/>
    <path id="Path_921" data-name="Path 921" d="M936.632,0H0V1079.559l691.2.441L652.243,956.4l-34.949-32.056-22.614-44.5-24.122-93.352-13.842,93.352-27,12.558L494.63,971.493,476.95,835.337l-23.71-20.82L448.58,768.8l-23.573-25.667-17.954-77.882L386.22,769.241,362.373,797l-33.03,82.84C349.5,737.98,287.5,666.028,245.054,586.9c-33.642-62.714-51.271-132.164-31.66-229.325l3.289,32.387,5.482,16.083,2.878,64.113,2.741-.661,3.426-40.759,3.7-19.278,2.741-39.767,7.4-26,3.975-90.11c1.508-3.195,3.015-6.5,4.66-9.694l3.015,50.673,7.4,16.524,2.741,29.192,3.7,13,3.426,29.633,2.741-.661,2.878-50.343,5.482-14.761,7.675-62.46,9.183-22.032,7.264-57.613,3.975,17.075,10.69,14.211,5.482,52.656h5.345L341.4,226.6l7.127-14.871L353.875,180l14.391-19.608,7.4-70.942,2.056-1.432,9.457,93.415L399.926,216.9l10.69,108.617,7.675,24.015,3.975,89.119H426.1l4.8-54.859,5.208-25.116,3.838-53.758,10.416-33.158L459,80.416,466.534,208.2l10.416,25.337,3.838,41.2L486,294.015l4.8,41.971h3.838l3.975-68.3,7.675-18.4,10.69-83.17,12.746-27.1,4.112-31.285,7.4,31.946,7.675,10.245,3.975,38.225h3.838l4.8-23.574,5.208-10.8,3.838-23.023,10.416-14.211,6.167-59.266,7.538,74.578,9.183,25.777,7.812,78.984,5.619,17.405,2.878,64.774h2.741l3.563-39.878,3.838-18.286,2.741-39.106,7.538-24.125,6.03-133.843.685,2.423,4.934,85.263,7.538,18.507,2.741,29.963,3.838,13.99,3.563,30.514h2.741l2.878-49.682,5.619-13.329,4.112-32.277,11.787,43.072,12.609,14.211,6.442,52.656h6.3l7.949-32.387,8.5-14.871,6.3-31.726,16.995-19.608L772.3,78.764l12.335,102.558,15.076,35.471L812.46,325.41l9.183,24.015,4.66,89.119h4.523l5.756-54.859,6.168-25.116,4.523-53.758,12.335-33.158L869.749,80.306l8.908,127.785,12.335,25.337,4.523,41.2,6.167,19.278,5.756,41.971h4.523l4.66-68.3,9.183-18.4,12.746-83.17,15.076-27.1,4.934-31.285,8.772,31.946,9.183,10.245,4.66,38.225H985.7l5.756-23.574,6.167-10.8,4.523-23.023,12.335-14.211.685-5.508,6.167,32.277,6.579,10.575,3.426,39.327h3.289l4.112-24.125,3.289-8.372,8.909,75.9,6.579,17.405,3.426,64.774h3.289l4.112-39.878,4.523-18.286,3.289-39.106,8.909-24.125,7.949-138.911,6.442,92.974,8.909,18.507,3.289,29.963,4.523,13.99,4.112,30.514h3.289L1127,194.651l6.579-13.329,9.32-60.477,10.964-19.718,3.838-24.015,5.208,27.319,4.8,7.711,2.467,28.531h2.467l3.015-17.625,3.289-8.042,2.467-17.185,6.442-10.575,1.37-15.092,5.071,1.212,2.193,25.337,5.756,19.278,4.8,58.935,3.426,13,1.782,48.36h1.782l2.193-29.743,2.33-13.66,1.781-29.192,4.66-17.956,2.467-66.646,1.645.33,2.33,15.422.822,16.414,3.152,9.143,2.467,15.973.822,10.906,2.33,10.465,2.193,22.8H1245l.548-12.448,6.716,12.448,9.046,60.477,6.442,13.329,3.289,49.682h3.289l4.112-30.514,4.386-13.99,3.289-29.963,8.771-18.507,6.3-92.974,7.264,139.131,8.771,24.125,3.289,39,4.386,18.286,4.112,39.878h3.289l3.289-64.774,6.441-17.405,9.046-78.984,7.538-18.176L1372.466,231c11.924,5.838,23.025,11.787,33.167,17.846l.274,1.1h1.645a346.421,346.421,0,0,1,53.725,39l3.29,22.032,8.908,18.4,4.523,68.3h4.523l5.619-41.971,6.031-19.278,1.234-11.016c22.477,29.082,36.457,59.045,49.888,89.119l.548,5.728,6.03,25.116,5.619,54.859h4.523l3.975-49.474c9.852,19.985,28.214,37.26,53.863,49.474,22.389,18.46,44.439,43.091,71.542,62.117,89.223,62.791,74.719,177.868,24.831,293.976-32.208,75.128-86.78,106.465-132.282,145.681l-9.594-29.412-8.36-7.932-4.249-29.3h-4.112l-5.208,18.066-5.619,8.262-4.112,17.736-11.238,10.906-6.716,45.5-8.086-57.173-10.005-19.718-8.36-60.588-6.03-13.439-3.152-49.682h-3.015l-3.837,30.624-4.112,13.99L1475.12,909.8l-8.086,18.507-6.716,106.744-5.893-71.273-8.086-14.211-3.015-22.913-4.112-10.8-3.838-23.464h-3.015l-3.152,38.115-6.031,10.245-8.5,46.377-10.005,15.092-3.289,17.515-5.756-17.846-6.03-5.728-3.152-21.371h-3.015l-3.838,13.109-4.112,6.059-3.015,12.889-8.223,7.932-4.934,33.048-5.893-41.53-7.264-14.321-6.167-44.064-4.386-9.694-2.193-36.132h-2.193l-2.741,22.252-3.015,10.245-2.193,21.811-5.893,13.439-4.934,77.552-4.249-51.775-5.893-10.245-2.193-16.634-3.015-7.821-2.741-17.075h-2.193l-2.193,27.65-4.386,7.491-6.168,33.709-7.264,11.016L1261.726,1080H1920V0H936.632Z" transform="translate(0)" fill="#142e2f" fill-rule="evenodd"/>
    <path id="Path_916" data-name="Path 916" d="M853,490H819.1c3.5,100,8,247.7,11.4,312,5.1,97.7,14.9-214.5,22.5-312ZM825.3,819.3c.7,0,1.2,1.7,1.2,3.8s-.6,3.8-1.2,3.8c-.7,0-1.3-1.7-1.3-3.8.1-2.1.6-3.8,1.3-3.8Zm19.8,55.2c.3,0,.6.8.6,1.7s-.2,1.7-.6,1.7c-.3,0-.5-.7-.5-1.7-.1-1,.2-1.7.5-1.7Zm-11.6-36.2c.3,0,.6.8.6,1.7s-.3,1.7-.6,1.7-.6-.7-.6-1.7c0-.9.3-1.7.6-1.7Zm-4.2,10.2c.3,0,.6.8.6,1.7s-.2,1.7-.6,1.7c-.3,0-.6-.8-.6-1.7.1-.9.3-1.7.6-1.7Zm15,17.1a23.044,23.044,0,0,1,.1,3.6c0,2-.1,3.6-.1,3.6a32.5,32.5,0,0,1,0-7.2ZM825.4,762.1a32.5,32.5,0,0,1,0,7.2,23.044,23.044,0,0,1-.1-3.6,14.071,14.071,0,0,1,.1-3.6Zm12.7,96.4a32.5,32.5,0,0,1,0,7.2,32.5,32.5,0,0,1,0-7.2Zm-14.8,21.3a23.044,23.044,0,0,1,.1,3.6c0,2-.1,3.6-.1,3.6a17.087,17.087,0,0,1-.2-3.6c0-2,0-3.6.2-3.6Zm4.7-11.6a32.5,32.5,0,0,1,0,7.2,23.044,23.044,0,0,1-.1-3.6c0-1.9.1-3.6.1-3.6Zm2.9-48.9c.2,0,.3,3.6.3,8a67.085,67.085,0,0,1-.3,8c-.2,0-.4-3.6-.4-8s.2-8,.4-8Zm-6.1-22.4c.2,0,.3,3.6.3,8s-.1,8-.3,8-.4-3.6-.4-8,.1-8,.4-8Zm7.6,55.7c.3,0,.6,5.3.6,11.8s-.2,11.8-.6,11.8c-.3,0-.5-5.3-.5-11.8s.2-11.8.5-11.8ZM842.9,729c.5,0,.9,9.2.9,20.6,0,11.3-.4,20.5-.9,20.5s-.9-9.2-.9-20.5c-.1-11.4.4-20.6.9-20.6Zm-2.3,76.9c.5,0,.9,9.2.9,20.6,0,11.3-.4,20.5-.9,20.5s-.9-9.2-.9-20.5c-.1-11.4.4-20.6.9-20.6Z" transform="translate(190.411 100)" fill="#fff" fill-rule="evenodd" opacity="0.798"/>
    <path id="Path_922" data-name="Path 922" d="M793.361,142.316c-2.416,2.889-2.612,6.418-2.359,9.891a2.158,2.158,0,0,1-.2.917c.225-1.445-.955-1.695-1.741-2.695a5.653,5.653,0,0,0,.281,1.5,2.419,2.419,0,0,0-1.854.889c-.14-.389-.562-.667-.758-1.056-.309.695.112,1.695.786,2.695l-.253-.167c-2.949-1.973-6.4-3.362-10.168-2.723-1.8.306-6.236,1.361-8.4,5.918,2.949-2.639,8.314-3.362,9.887.472-.14-2.195,3.062-1.806,3.483.083.028-2.139,2.949-2.723,3.033-.583.2-1.222,2.584-1.695,4.606-.361.674.695,1.264,1.25,1.6,1.611a20.59,20.59,0,0,0,.253-3c.534-2.445,1.854-4,2.949-3.584-1.826-1.139.112-3.362,2.022-2.306-1.432-1.306-.2-4.223,1.657-3.028-2.584-3.251.7-7.5,4.494-8.7A10.947,10.947,0,0,0,793.361,142.316Z" transform="translate(372.566 224.012) rotate(11)" fill="#120903" fill-rule="evenodd"/>
    <path id="Path_952" data-name="Path 952" d="M1118.4,426.289c-16.7,10.187-25.26,27.188-29.852,44.671l-.417,1.583c-.835-6.264-2.644-11.426-6.193-13.078.557,2.065-.069,4.612.7,6.608-3.688-.344-7.655.344-10.16,2.822-.835-2.822-2.505-4.405-4.036-6.745.278,6.608-3.271,11.495,2.505,16.313a11.3,11.3,0,0,1-3.9-2.822c-10.995-14.385-23.8-27.257-43.143-30.285-9.255-1.445-32.636-3.51-50.8,15.074,18.788-8.122,46.066-2.822,47.319,18.446,2.992-10.875,17.884-3.854,16.84,6.057,3.688-10.393,18.858-8.466,15.727,2.134,2.922-5.3,13.291-3.648,23.729,3.923a109.554,109.554,0,0,0,11.273,10.737c.07-2.478.417-6.677.626-11.563,3.2-11.976,13.987-18.171,19-14.179-6.958-8.6,6.263-16.175,13.708-7.984-4.8-8.741,6.193-20.924,13.221-12.045-7.1-20.1,16.074-35.448,36.533-35.1C1147.2,410.527,1126.4,421.4,1118.4,426.289Z" transform="translate(211.958 -286.764) rotate(39)" fill="#011c1d" fill-rule="evenodd"/>
  </g>
</svg>
