<svg id="Layer_1" data-name="Layer 1" xmlns="http://www.w3.org/2000/svg" xmlns:xlink="http://www.w3.org/1999/xlink" viewBox="0 0 2701.31 597.52"><defs><style>.cls-1{fill:none;}.cls-2{clip-path:url(#clip-path);}.cls-3{opacity:0.94;}.cls-4{fill:#d85a53;}.cls-5{fill:#cb4e47;}.cls-6{fill:#bb4c47;}.cls-7{fill:url(#linear-gradient);}.cls-8{fill:url(#linear-gradient-2);}.cls-9{fill:url(#linear-gradient-3);}.cls-10{fill:url(#linear-gradient-4);}.cls-11{fill:url(#linear-gradient-5);}.cls-12{fill:url(#linear-gradient-6);}.cls-13{fill:url(#linear-gradient-7);}.cls-14{fill:url(#linear-gradient-8);}.cls-15{opacity:1;}.cls-16{fill:url(#linear-gradient-9);}.cls-17{fill:#882141;opacity:1;}.cls-107,.cls-17,.cls-26,.cls-29,.cls-33,.cls-52,.cls-55{isolation:isolate;}.cls-18{fill:#942a41;}.cls-19{clip-path:url(#clip-path-2);}.cls-20,.cls-55{fill:#ddebd1;}.cls-21{clip-path:url(#clip-path-3);}.cls-22,.cls-52{fill:#fff;}.cls-23{clip-path:url(#clip-path-4);}.cls-24,.cls-29{fill:#fbf9d3;}.cls-25{clip-path:url(#clip-path-5);}.cls-26,.cls-48{fill:#95848c;}.cls-101,.cls-26,.cls-29,.cls-52,.cls-55{opacity:0.3;}.cls-27{clip-path:url(#clip-path-6);}.cls-28{clip-path:url(#clip-path-7);}.cls-30{clip-path:url(#clip-path-8);}.cls-31{fill:url(#linear-gradient-10);}.cls-32{clip-path:url(#clip-path-9);}.cls-33{fill:#a0f5c5;opacity:0.63;}.cls-34{clip-path:url(#clip-path-10);}.cls-35{fill:#fdf7d3;}.cls-36{clip-path:url(#clip-path-11);}.cls-37{clip-path:url(#clip-path-12);}.cls-38{clip-path:url(#clip-path-13);}.cls-39{clip-path:url(#clip-path-14);}.cls-40{clip-path:url(#clip-path-15);}.cls-41{clip-path:url(#clip-path-16);}.cls-42{clip-path:url(#clip-path-17);}.cls-43{clip-path:url(#clip-path-18);}.cls-44{clip-path:url(#clip-path-19);}.cls-45{clip-path:url(#clip-path-20);}.cls-46{fill:#d8813b;}.cls-47{clip-path:url(#clip-path-21);}.cls-49{clip-path:url(#clip-path-22);}.cls-50{clip-path:url(#clip-path-23);}.cls-51{clip-path:url(#clip-path-24);}.cls-53{clip-path:url(#clip-path-25);}.cls-54{clip-path:url(#clip-path-26);}.cls-56{clip-path:url(#clip-path-27);}.cls-57{fill:#c9e6ca;}.cls-58{clip-path:url(#clip-path-28);}.cls-59{fill:#fbf6ce;}.cls-60{clip-path:url(#clip-path-29);}.cls-61{fill:#bc8b48;}.cls-62{clip-path:url(#clip-path-30);}.cls-63{clip-path:url(#clip-path-31);}.cls-64{clip-path:url(#clip-path-32);}.cls-65{fill:#d96b15;}.cls-66{clip-path:url(#clip-path-33);}.cls-67{clip-path:url(#clip-path-34);}.cls-68{fill:#ffc84d;}.cls-69{clip-path:url(#clip-path-35);}.cls-70{clip-path:url(#clip-path-36);}.cls-71{fill:#ffd984;}.cls-72{clip-path:url(#clip-path-37);}.cls-73{clip-path:url(#clip-path-38);}.cls-74{fill:#e57722;}.cls-75{clip-path:url(#clip-path-39);}.cls-76{clip-path:url(#clip-path-40);}.cls-77{clip-path:url(#clip-path-41);}.cls-78{clip-path:url(#clip-path-42);}.cls-79{clip-path:url(#clip-path-43);}.cls-80{clip-path:url(#clip-path-44);}.cls-81{fill:#fec84d;}.cls-82{clip-path:url(#clip-path-45);}.cls-83{clip-path:url(#clip-path-46);}.cls-84{fill:#db7d1f;}.cls-85{clip-path:url(#clip-path-47);}.cls-86{clip-path:url(#clip-path-48);}.cls-87{clip-path:url(#clip-path-49);}.cls-88{clip-path:url(#clip-path-50);}.cls-89{clip-path:url(#clip-path-51);}.cls-90{clip-path:url(#clip-path-52);}.cls-91{clip-path:url(#clip-path-53);}.cls-92{clip-path:url(#clip-path-54);}.cls-93{clip-path:url(#clip-path-55);}.cls-94{clip-path:url(#clip-path-56);}.cls-95{clip-path:url(#clip-path-57);}.cls-96{clip-path:url(#clip-path-58);}.cls-97{opacity:0.7;}.cls-98{fill:#5d7352;}.cls-99{fill:#b6be8e;}.cls-100{fill:#3e463e;}.cls-102{fill:url(#linear-gradient-11);}.cls-103{fill:url(#linear-gradient-12);}.cls-104{fill:#41132f;}.cls-105{fill:url(#linear-gradient-13);}.cls-106{fill:#2c3031;}.cls-107{fill:#3b4d4b;opacity:0.71;}.cls-108{fill:url(#linear-gradient-14);}.cls-109{fill:#5e9043;}.cls-110{fill:#325c32;}.cls-111{fill:#3c693c;}</style><clipPath id="clip-path" transform="translate(-310.96 -569.68)"><rect class="cls-1" x="835.1" y="528.95" width="2172.66" height="581.09"/></clipPath><linearGradient id="linear-gradient" x1="610.38" y1="1196.23" x2="609.66" y2="1195.36" gradientTransform="matrix(481.78, 0, 0, -155.37, -292130.68, 186574.94)" gradientUnits="userSpaceOnUse"><stop offset="0" stop-color="#fcfcf5"/><stop offset="0.5" stop-color="#f2f5b8"/><stop offset="1" stop-color="#8ee1eb"/></linearGradient><linearGradient id="linear-gradient-2" x1="610.41" y1="1197.2" x2="610.36" y2="1195.85" gradientTransform="matrix(540.74, 0, 0, -135.76, -328246.09, 163204.59)" gradientUnits="userSpaceOnUse"><stop offset="0" stop-color="#b1c3c9"/><stop offset="0" stop-color="#a6d9cd"/><stop offset="0.4" stop-color="#88e6d0"/><stop offset="0.73" stop-color="#c0c9db"/><stop offset="1" stop-color="#edc1e3"/></linearGradient><linearGradient id="linear-gradient-3" x1="610.92" y1="1196.46" x2="611.13" y2="1197.95" gradientTransform="matrix(855.49, 0, 0, -274.41, -520253.82, 328903.94)" gradientUnits="userSpaceOnUse"><stop offset="0" stop-color="#c994bc"/><stop offset="0.11" stop-color="#e0aed4"/><stop offset="1" stop-color="#afeded"/></linearGradient><linearGradient id="linear-gradient-4" x1="610.75" y1="1196.47" x2="610.75" y2="1193.6" gradientTransform="matrix(812.11, 0, 0, -244.96, -493703.29, 293682.5)" gradientUnits="userSpaceOnUse"><stop offset="0" stop-color="#fcfdfa"/><stop offset="0" stop-color="#f7f7e4"/><stop offset="0.26" stop-color="#e1f7f2"/><stop offset="0.51" stop-color="#e6e682"/><stop offset="0.75" stop-color="#4ed7de"/><stop offset="1" stop-color="#4ed7de"/></linearGradient><linearGradient id="linear-gradient-5" x1="610.45" y1="1197.1" x2="610.5" y2="1195.74" gradientTransform="matrix(597.11, 0, 0, -155.63, -361806.85, 186977.57)" gradientUnits="userSpaceOnUse"><stop offset="0" stop-color="#b1c3c9"/><stop offset="0" stop-color="#a6d9cd"/><stop offset="0.4" stop-color="#88ddc9"/><stop offset="1" stop-color="#edc1e3"/></linearGradient><linearGradient id="linear-gradient-6" x1="609.95" y1="1196.41" x2="609.92" y2="1194.99" gradientTransform="matrix(391.1, 0, 0, -158.67, -236259.63, 190524.13)" gradientUnits="userSpaceOnUse"><stop offset="0" stop-color="#fff"/><stop offset="0.48" stop-color="#e3edb9"/><stop offset="1" stop-color="#37c6b0"/></linearGradient><linearGradient id="linear-gradient-7" x1="610.35" y1="1196.75" x2="609.99" y2="1194.09" gradientTransform="matrix(493.84, 0, 0, -169.94, -299104.4, 204069.64)" gradientUnits="userSpaceOnUse"><stop offset="0" stop-color="#87d5d2"/><stop offset="0.49" stop-color="#dab2eb"/><stop offset="1" stop-color="#c387b9"/></linearGradient><linearGradient id="linear-gradient-8" x1="610.26" y1="1196.45" x2="610.89" y2="1195.5" gradientTransform="matrix(714.77, 0, 0, -177.49, -433904.46, 213006.94)" gradientUnits="userSpaceOnUse"><stop offset="0" stop-color="#fcfcfc"/><stop offset="0.5" stop-color="#eff4c8"/><stop offset="1" stop-color="#90e8dd"/></linearGradient><linearGradient id="linear-gradient-9" x1="611.05" y1="1196.53" x2="611.05" y2="1195.53" gradientTransform="matrix(1351.53, 0, 0, -218.66, -824452.67, 262343.01)" gradientUnits="userSpaceOnUse"><stop offset="0" stop-color="#ac324c"/><stop offset="1" stop-color="#aa5365"/></linearGradient><clipPath id="clip-path-2" transform="translate(-310.96 -569.68)"><rect class="cls-1" x="2338.21" y="984.73" width="175.89" height="106.25"/></clipPath><clipPath id="clip-path-3" transform="translate(-310.96 -569.68)"><rect class="cls-1" x="2285.22" y="951.97" width="54.33" height="82.25"/></clipPath><clipPath id="clip-path-4" transform="translate(-310.96 -569.68)"><rect class="cls-1" x="2285.7" y="979.89" width="49.49" height="46.47"/></clipPath><clipPath id="clip-path-5" transform="translate(-310.96 -569.68)"><rect class="cls-1" x="2279.16" y="948.57" width="69.23" height="62.13"/></clipPath><clipPath id="clip-path-6" transform="translate(-310.96 -569.68)"><rect class="cls-1" x="2282.73" y="976.54" width="47.98" height="46.14"/></clipPath><clipPath id="clip-path-7" transform="translate(-310.96 -569.68)"><rect class="cls-1" x="2277.01" y="945.39" width="72" height="89.4"/></clipPath><clipPath id="clip-path-8" transform="translate(-310.96 -569.68)"><rect class="cls-1" x="879.69" y="893.92" width="2132.91" height="216.12"/></clipPath><linearGradient id="linear-gradient-10" x1="611" y1="1196.78" x2="611" y2="1194.71" gradientTransform="matrix(1223.42, 0, 0, -148.13, -745107.52, 178241.18)" gradientUnits="userSpaceOnUse"><stop offset="0" stop-color="#68ebc8"/><stop offset="1" stop-color="#33376b"/></linearGradient><clipPath id="clip-path-9" transform="translate(-310.96 -569.68)"><rect class="cls-1" x="1933.01" y="916.37" width="633.15" height="175.62"/></clipPath><clipPath id="clip-path-10" transform="translate(-310.96 -569.68)"><rect class="cls-1" x="2068.99" y="970.99" width="191.13" height="119.99"/></clipPath><clipPath id="clip-path-11" transform="translate(-310.96 -569.68)"><rect class="cls-1" x="1878.97" y="970.96" width="479.3" height="120.02"/></clipPath><clipPath id="clip-path-12" transform="translate(-310.96 -569.68)"><rect class="cls-1" x="1970.34" y="994.42" width="259.5" height="100.21"/></clipPath><clipPath id="clip-path-13" transform="translate(-310.96 -569.68)"><rect class="cls-1" x="1975.59" y="914.23" width="386.7" height="176.76"/></clipPath><clipPath id="clip-path-14" transform="translate(-310.96 -569.68)"><rect class="cls-1" x="2017.79" y="1004.18" width="409.73" height="105.65"/></clipPath><clipPath id="clip-path-15" transform="translate(-310.96 -569.68)"><rect class="cls-1" x="1878.64" y="957.37" width="213.81" height="121.96"/></clipPath><clipPath id="clip-path-16" transform="translate(-310.96 -569.68)"><rect class="cls-1" x="1865.57" y="925.35" width="320.3" height="163.64"/></clipPath><clipPath id="clip-path-17" transform="translate(-310.96 -569.68)"><rect class="cls-1" x="1858.68" y="944.25" width="324.88" height="147.06"/></clipPath><clipPath id="clip-path-18" transform="translate(-310.96 -569.68)"><rect class="cls-1" x="1868.68" y="923.52" width="524.03" height="167.46"/></clipPath><clipPath id="clip-path-19" transform="translate(-310.96 -569.68)"><rect class="cls-1" x="1355.62" y="221.89" width="1557.14" height="1090"/></clipPath><clipPath id="clip-path-20" transform="translate(-310.96 -569.68)"><rect class="cls-1" x="2268.56" y="931.28" width="81.56" height="101.54"/></clipPath><clipPath id="clip-path-21" transform="translate(-310.96 -569.68)"><rect class="cls-1" x="2232.87" y="955.2" width="147.14" height="95.54"/></clipPath><clipPath id="clip-path-22" transform="translate(-310.96 -569.68)"><rect class="cls-1" x="2262.92" y="961.22" width="89.03" height="63.47"/></clipPath><clipPath id="clip-path-23" transform="translate(-310.96 -569.68)"><rect class="cls-1" x="2255.54" y="957.84" width="120" height="73.14"/></clipPath><clipPath id="clip-path-24" transform="translate(-310.96 -569.68)"><rect class="cls-1" x="2271.53" y="958.38" width="67.44" height="70.27"/></clipPath><clipPath id="clip-path-25" transform="translate(-310.96 -569.68)"><rect class="cls-1" x="1554.94" y="247.72" width="1204.66" height="843.26"/></clipPath><clipPath id="clip-path-26" transform="translate(-310.96 -569.68)"><rect class="cls-1" x="2272" y="968.08" width="63.53" height="64.9"/></clipPath><clipPath id="clip-path-27" transform="translate(-310.96 -569.68)"><rect class="cls-1" x="2418.15" y="909.07" width="344.09" height="200.66"/></clipPath><clipPath id="clip-path-28" transform="translate(-310.96 -569.68)"><rect class="cls-1" x="2464.26" y="924.42" width="297.98" height="185.31"/></clipPath><clipPath id="clip-path-29" transform="translate(-310.96 -569.68)"><rect class="cls-1" x="2410.05" y="918.92" width="732.78" height="190.8"/></clipPath><clipPath id="clip-path-30" transform="translate(-310.96 -569.68)"><rect class="cls-1" x="2368.08" y="949.17" width="391.52" height="141.81"/></clipPath><clipPath id="clip-path-31" transform="translate(-310.96 -569.68)"><rect class="cls-1" x="2373.1" y="996.2" width="199.8" height="95.12"/></clipPath><clipPath id="clip-path-32" transform="translate(-310.96 -569.68)"><rect class="cls-1" x="2497.7" y="928.68" width="395.95" height="181.04"/></clipPath><clipPath id="clip-path-33" transform="translate(-310.96 -569.68)"><rect class="cls-1" x="2716.26" y="949.78" width="282.2" height="129.03"/></clipPath><clipPath id="clip-path-34" transform="translate(-310.96 -569.68)"><rect class="cls-1" x="2494.63" y="894.47" width="267.61" height="215.26"/></clipPath><clipPath id="clip-path-35" transform="translate(-310.96 -569.68)"><rect class="cls-1" x="2809.92" y="925.39" width="190.73" height="153.42"/></clipPath><clipPath id="clip-path-36" transform="translate(-310.96 -569.68)"><rect class="cls-1" x="2499.23" y="899.82" width="263.01" height="209.91"/></clipPath><clipPath id="clip-path-37" transform="translate(-310.96 -569.68)"><rect class="cls-1" x="2758.77" y="896.9" width="263.01" height="209.91"/></clipPath><clipPath id="clip-path-38" transform="translate(-310.96 -569.68)"><rect class="cls-1" x="2485.13" y="931.96" width="328.49" height="211.61"/></clipPath><clipPath id="clip-path-39" transform="translate(-310.96 -569.68)"><rect class="cls-1" x="2707.39" y="929.04" width="328.49" height="211.61"/></clipPath><clipPath id="clip-path-40" transform="translate(-310.96 -569.68)"><rect class="cls-1" x="2392.72" y="899.27" width="369.52" height="210.46"/></clipPath><clipPath id="clip-path-41" transform="translate(-310.96 -569.68)"><rect class="cls-1" x="2758.77" y="896.35" width="369.52" height="210.46"/></clipPath><clipPath id="clip-path-42" transform="translate(-310.96 -569.68)"><rect class="cls-1" x="2593.75" y="952.42" width="168.48" height="157.31"/></clipPath><clipPath id="clip-path-43" transform="translate(-310.96 -569.68)"><rect class="cls-1" x="2758.77" y="949.5" width="168.48" height="157.31"/></clipPath><clipPath id="clip-path-44" transform="translate(-310.96 -569.68)"><rect class="cls-1" x="2513.92" y="901.76" width="386.92" height="207.97"/></clipPath><clipPath id="clip-path-45" transform="translate(-310.96 -569.68)"><rect class="cls-1" x="2581.76" y="950.76" width="180.48" height="159.07"/></clipPath><clipPath id="clip-path-46" transform="translate(-310.96 -569.68)"><rect class="cls-1" x="2515.93" y="909.14" width="282.95" height="200.59"/></clipPath><clipPath id="clip-path-47" transform="translate(-310.96 -569.68)"><rect class="cls-1" x="2622.96" y="1016.85" width="346.78" height="92.88"/></clipPath><clipPath id="clip-path-48" transform="translate(-310.96 -569.68)"><rect class="cls-1" x="2429.96" y="985.34" width="55.95" height="67.38"/></clipPath><clipPath id="clip-path-49" transform="translate(-310.96 -569.68)"><rect class="cls-1" x="2395.11" y="973.36" width="99.46" height="85.6"/></clipPath><clipPath id="clip-path-50" transform="translate(-310.96 -569.68)"><rect class="cls-1" x="2406.09" y="973.97" width="93.31" height="92.25"/></clipPath><clipPath id="clip-path-51" transform="translate(-310.96 -569.68)"><rect class="cls-1" x="2424.42" y="997.55" width="66.17" height="56.83"/></clipPath><clipPath id="clip-path-52" transform="translate(-310.96 -569.68)"><rect class="cls-1" x="2414.91" y="976.94" width="80.97" height="87.45"/></clipPath><clipPath id="clip-path-53" transform="translate(-310.96 -569.68)"><rect class="cls-1" x="2422.78" y="971.25" width="85.89" height="101.14"/></clipPath><clipPath id="clip-path-54" transform="translate(-310.96 -569.68)"><rect class="cls-1" x="2395.09" y="972.97" width="110.44" height="89.1"/></clipPath><clipPath id="clip-path-55" transform="translate(-310.96 -569.68)"><rect class="cls-1" x="2434.06" y="975.96" width="57.6" height="90.59"/></clipPath><clipPath id="clip-path-56" transform="translate(-310.96 -569.68)"><rect class="cls-1" x="2419.04" y="982.41" width="76.22" height="65.12"/></clipPath><clipPath id="clip-path-57" transform="translate(-310.96 -569.68)"><rect class="cls-1" x="2411.03" y="966.61" width="79.83" height="114.73"/></clipPath><clipPath id="clip-path-58" transform="translate(-310.96 -569.68)"><rect class="cls-1" x="2406.16" y="983.58" width="74.98" height="77.89"/></clipPath><linearGradient id="linear-gradient-11" x1="611.19" y1="1196.31" x2="611.17" y2="1194.49" gradientTransform="matrix(1951.25, 0, 0, -249.74, -1191290.6, 299697.12)" gradientUnits="userSpaceOnUse"><stop offset="0" stop-color="#c4e343"/><stop offset="0.11" stop-color="#adcb2f"/><stop offset="0.32" stop-color="#90aa22"/><stop offset="0.5" stop-color="#688b18"/><stop offset="0.76" stop-color="#5e6f10"/><stop offset="1" stop-color="#447b07"/></linearGradient><linearGradient id="linear-gradient-12" x1="609.87" y1="1199.23" x2="610.15" y2="1198.05" gradientTransform="matrix(294.58, -150.1, -52.94, -103.9, -115189.09, 217142.47)" gradientUnits="userSpaceOnUse"><stop offset="0" stop-color="#f0dc3f"/><stop offset="1" stop-color="#d8972f"/></linearGradient><linearGradient id="linear-gradient-13" x1="610.96" y1="1193.73" x2="611.21" y2="1197.42" gradientTransform="matrix(1517.48, 0, 0, -161.7, -925659.89, 194464.2)" gradientUnits="userSpaceOnUse"><stop offset="0" stop-color="#467214"/><stop offset="0.27" stop-color="#71981b"/><stop offset="0.77" stop-color="#aed142"/><stop offset="1" stop-color="#cbe66c"/></linearGradient><linearGradient id="linear-gradient-14" x1="610.93" y1="1196.68" x2="610.65" y2="1195.5" gradientTransform="matrix(861.05, 0, 0, -162.17, -524418.82, 195078.95)" xlink:href="#linear-gradient-12"/></defs><g class="cls-2"><g id="Group_754" data-name="Group 754"><g id="Component_1_1" data-name="Component 1 1"><g id="Group_729" data-name="Group 729" class="cls-3"><path id="Path_2154" data-name="Path 2154" class="cls-4" d="M1545.24,609.74h0c-13.71.49-68.46,32.61-138.46,61.75-37.31,15.53-81.78,23.59-132.52,11.86-73.7-17-112.62,18.65-170.59,29-179.94,32-235.06-143.6-435.77-142.63l23.28,321h936.06C1618.86,866.82,1566.33,676,1545.24,609.74Z" transform="translate(-310.96 -569.68)"/><path id="Path_2157" data-name="Path 2157" class="cls-5" d="M1740.93,686.1c-18.13-.91-36-5.18-53.26-11.53-70.8-26-121.43-63.18-142.42-64.83,2.9,5.93,19.25,85.23,41.72,161.28C1654.35,767.39,1702.45,731.66,1740.93,686.1Z" transform="translate(-310.96 -569.68)"/><path id="Path_2158" data-name="Path 2158" class="cls-6" d="M1757.31,679.91a99.82,99.82,0,0,1-33.87,4.36c-33.38,46.11-77.7,82.62-136.15,86.28.13.52,11.81,34.05,15.67,47.15,6.75,24.55,13.8,48.83,21,73h265.28S2028.71,795.43,1991,749.75s-56.37-35.49-114.79-53S1836.2,656.73,1757.31,679.91Z" transform="translate(-310.96 -569.68)"/><path id="Path_2156" data-name="Path 2156" class="cls-6" d="M1323.14,716.45,1410.21,670s-20.28,12.37-63.78,17.51Z" transform="translate(-310.96 -569.68)"/><path id="Path_2155" data-name="Path 2155" class="cls-6" d="M1054.53,745.22l82.67-41.72s-20.63,8.9-49.67,11.36Z" transform="translate(-310.96 -569.68)"/></g><g id="Group_740" data-name="Group 740"><path id="Path_2136" data-name="Path 2136" class="cls-7" d="M1650.27,793l87.28-24.19-.38,13.33,84.73-39.6L1804.75,768l36.18-12.3,48.49-25.3-32.08,25.76,64.37-6.17,27.49-21.89-12.58,22.31,32-23.08-14.1,23.6,62-28.91,49.52,18.91,39.17-40.39-51.19-37.46,41-25.5-70.49,11.33-30.1,8.48-156.76,52.88h-33L1768.33,722l-25.17,6.9-119.69,36.34,49.75,8.34Z" transform="translate(-310.96 -569.68)"/><path id="Path_2135" data-name="Path 2135" class="cls-8" d="M2016.56,722l-62,28.9,14.1-23.6-32,23.1,12.58-22.31L1921.7,750l-64.37,6.18,32.09-25.76-48.5,25.29L1804.74,768l17.15-25.52-84.72,39.6.38-13.33L1650.27,793l22.94-19.35-49.74-8.34-69.62,51.43-20,28.56,520.67,12.53-5.28-24.16-42-45.2,67.36-6.08-10.84-39,2.36-2.44Z" transform="translate(-310.96 -569.68)"/><path id="Path_2138" data-name="Path 2138" class="cls-9" d="M1841.8,852.82l29.17-59.1,41.48-52.35L1975.93,704l15.83-9.34,31.81-13.14V670.42l93.84-43L2141.65,609l65.84-9.78,79.08,28.15,25.65,2.84L2453.83,653l157.72,131.37,26.74,9.36,59,50.52-157.13,29.4H2293.32l-315.9-11Z" transform="translate(-310.96 -569.68)"/><path id="Path_2137" data-name="Path 2137" class="cls-10" d="M2485.4,718.26l.38,13.33L2400.94,692l17.17,25.51-36.23-12.3-48.55-25.3,32.12,25.76L2301,699.49l-27.53-21.89,12.59,22.31-32-23.08,14.13,23.6L2206,671.52l-40,36.35h-15l15-32.5L2104,707.87h-30.78L2047,695.65l-22.74,35.94-19.76-16.89-26.09,31.16-92.22,22.73,31.3-37,78.73-39.6,28-24,88.92-40.35L2142,606.89l68.49-10.14,78.4,27.82,168.11,27,155.17,128.76,29,12.24,57.13,49.16-95.44-46.92-12-8.58,3.13,24.62Z" transform="translate(-310.96 -569.68)"/><path id="Path_2140" data-name="Path 2140" class="cls-11" d="M2478.84,728.05l68.1,31.73-15.48-25.91,35.13,25.35-13.8-24.49,30.18,24,70.68,6.78-35.23-28.28L2671.66,765l39.72,13.51-18.83-28,93,43.47-.42-14.63,47.3-3.84,30.09-10,47.86,10,14.08,4.28,87.78,29.58v74.3l-575.08-6.59,5.8-26.51L2489.11,801l-74-6.69,11.9-42.79-2.59-2.67Z" transform="translate(-310.96 -569.68)"/><g id="Group_499" data-name="Group 499"><path id="Path_1002" data-name="Path 1002" class="cls-12" d="M2271.59,770l-45.9,13.93-45.35,4.13-85.82-4.13,93.82-37,131.72-73.74,9.61,12.42L2369,650.37l22.13-12.78c43.1,10.44,73.76,44.89,94.46,79.66l-39.37,22.22-28,15.8-49.21,41Z" transform="translate(-310.96 -569.68)"/><path id="Path_1003" data-name="Path 1003" class="cls-13" d="M2103.25,780.21l83.08,4.34,88.33-19,90.69,26,116.47-81.4c24.57,44.77,34.65,90,34.65,90L2436,880.15l-413.35-12.46.26-56.1Z" transform="translate(-310.96 -569.68)"/></g><path id="Path_2139" data-name="Path 2139" class="cls-14" d="M2785.16,779.36l.42,14.63-93-43.47,18.82,28L2671.66,765l-53.24-27.77,35.22,28.28L2583,758.76l-30.18-24,13.81,24.49-35.14-25.35,15.48,25.91-68.1-31.73-75.31,35.86-22.06-59.45-63.69,13.08-30.62-13.08L2212,734.06l23.71-16.53,82-46.63,57.34-42.85,59-11.54,44.68,17.31,56.84,17.2,71.13,19.88,54.2,24,40.95,9.59h25.1l18.64,13.07,33.3,18.09,147.82,43.74h-51.11L2834.08,794Z" transform="translate(-310.96 -569.68)"/></g><g id="Group_731" data-name="Group 731" class="cls-15"><path id="Path_1952" data-name="Path 1952" class="cls-16" d="M2003.57,815.27c-29.46-18.56-82-21.62-100.33-9.66-34.76,22.64-47.65,15.63-91.63,9.66-66.07-13.27-68.5-28.34-123.14-15.88-35.06,8-75,5.42-90.73,6.22-80.48,1-41.71-22.54-132.37-22.82-70,13.23-84,23.78-124.17,32.48-91.82-10.78-41.72-26.8-141.88-32.48-65.2-9.9-79.91,26.31-135,10.82s-54.38-52.92-155.6-75.18S753.37,755,723,747.94c8.53,1.67,74.23,159.65,112.25,177.06,41.51,19,127.31-7.36,135.25,0,17.92,14,83.93-45.65,104.61-36.87C1162,926.75,1248.84,932,1341.2,925c121.31-8.79,241.24-35.12,363.93-31.6,71.68,1.75,154.39-1.76,221.94-33.36,23.44-10.54,132.34,24.58,147.5,0" transform="translate(-310.96 -569.68)"/></g><path id="Path_19766" data-name="Path 19766" class="cls-17" d="M2124.46,832.65s-72.74-29.75-191,15.93c-98.58,38.1-147.85,36.1-207.31,38.24C1608,891.07,1549.8,861.33,1428,848.58c-78.85-8.25-118.38,13-179.3,20.19-189.13,22.3-240.79-121.07-433.55-109.42V991.13l1949.78-11.87s224.43,4.69,242,0c7.56-2-.8-8.28,0-14.4,1.2-9.18,4.23-74.13,0-90.11.09-1-92.79,3.3-94,0-3.08-8.19-85.06-20-85.06-20a885.87,885.87,0,0,1-87.27,20c-53.83-7.7-36.91-13.26-111.91-26.17-67.48-5.4-75.12,8.35-113.68,14.06-34.15,1-76.33-.46-121.46-14.06-45.91-20.22-152.06-3-163.13,0-32.09,8.75-105.93-15.93-105.93-15.93Z" transform="translate(-310.96 -569.68)"/><path id="Path_19785" data-name="Path 19785" class="cls-18" d="M2537.11,910.42c-73.72,18.94-163.76,24-230-17.81,0,0,53.56,50.06,137.51,32.13,0,0-103.5,21-219.53-40.09,0,0,95.13,63.77,189.54,62.73,0,0,70.07-.9,118-15.38,36-10.89,135.65-62.15,135.65-62.15S2591.06,896.56,2537.11,910.42Z" transform="translate(-310.96 -569.68)"/><path id="Path_19768" data-name="Path 19768" class="cls-18" d="M1507.73,933s98.46-12.65,141.22-39.35c7.52-4.69-60,39.35-91.31,39.35Z" transform="translate(-310.96 -569.68)"/><path id="Path_19767" data-name="Path 19767" class="cls-18" d="M1033,874c62.22,24.64,140.77,38.81,205,9.18l-25.65,12.64s-58.21,15.33-100,.79c0,0,88.14,29.71,198.94-11.56,0,0-92.78,45.85-175.74,34.73,0,0-61.56-8.37-101.7-26.29C1003.7,880,923.28,824.1,923.28,824.1S987.48,856,1033,874Z" transform="translate(-310.96 -569.68)"/><g id="Group_730" data-name="Group 730"><g class="cls-19"><g id="Group_541" data-name="Group 541"><path class="cls-20" d="M2455.77,1000.29c.77,7.74,3.7,28.65,13.33,33.9h-23.32a26.51,26.51,0,0,1,3.53-6.46C2454.56,1020.68,2455.68,1008.46,2455.77,1000.29Z" transform="translate(-310.96 -569.68)"/></g></g><g class="cls-21"><g id="Group_548" data-name="Group 548"><path class="cls-22" d="M2308.54,1004h-5.68v1.72h5.68Z" transform="translate(-310.96 -569.68)"/></g></g><g class="cls-23"><g id="Group_552" data-name="Group 552"><path class="cls-24" d="M2302.86,1004h19.79a135.41,135.41,0,0,0-10.84-24.1C2311.81,979.81,2310.69,999.77,2302.86,1004Z" transform="translate(-310.96 -569.68)"/></g></g><g class="cls-25"><g id="Group_555" data-name="Group 555"><path class="cls-26" d="M2296.84,1009.49h22.71l3.1,1.2-3.7-3.35h-22.11Z" transform="translate(-310.96 -569.68)"/></g></g><g class="cls-27"><g id="Group_557" data-name="Group 557"><path class="cls-26" d="M2313.19,1008.2h-1.38v4.48h1.38Z" transform="translate(-310.96 -569.68)"/></g></g><g class="cls-28"><g id="Group_558" data-name="Group 558"><path class="cls-29" d="M2302.86,1010.7h19.79a135.64,135.64,0,0,1-10.84,24.09C2311.81,1034.88,2310.69,1015,2302.86,1010.7Z" transform="translate(-310.96 -569.68)"/></g></g><g class="cls-30"><g id="Group_507" data-name="Group 507"><path class="cls-31" d="M3011.63,980.07s-122.06-12.22-290.84-6.16-171.44,9.92-388.13-4.72-271.12-8.39-475.5,29.79S1968,1110,1968,1110H3011.63Z" transform="translate(-310.96 -569.68)"/></g></g><g class="cls-32"><g id="Group_509" data-name="Group 509"><path class="cls-33" d="M2233,1078.74q-88.26-32.21-176.51-64.3l58.54-9.2c-29.47-6.58-58.84-13-88.3-19.61A1344.59,1344.59,0,0,1,2324.09,1025q-102.28-3.78-204.48-7.45l285,45.35c-31.26,2.63-62.62,5.37-93.88,8q60.18,10.52,120.36,21.14h-294Q2185.07,1085.42,2233,1078.74Z" transform="translate(-310.96 -569.68)"/></g></g><g class="cls-34"><g id="Group_512" data-name="Group 512"><path class="cls-35" d="M2233.85,998.91s-6.63-.08-18.24-.17-28.23-.17-48.19-.34-43.2-.18-68.06-.26-51.46-.09-78.05-.09-53.17.09-78,.09-48.19.17-68.06.26-36.57.25-48.19.34-18.24.17-18.24.17,6.62.09,18.24.17,28.22.26,48.19.35l68.06.26c25,0,51.46.08,78,.08s53.18-.08,78.05-.08l68.06-.26c20-.17,36.57-.26,48.19-.35S2233.85,998.91,2233.85,998.91Z" transform="translate(-310.96 -569.68)"/></g></g><g class="cls-36"><g id="Group_513" data-name="Group 513"><path class="cls-35" d="M2342.27,1007.52s-5.25-.09-14.46-.18-22.37-.17-38.2-.34-34.24-.17-54-.26-40.88-.08-62-.08-42.16.08-61.95.08-38.2.17-54,.26-29,.26-38.2.34-14.46.18-14.46.18,5.25.08,14.46.17,22.37.17,38.2.34,34.25.17,54,.26,40.87.09,61.95.09,42.16-.09,62-.09,38.2-.17,54-.26,29-.26,38.2-.34S2342.27,1007.52,2342.27,1007.52Z" transform="translate(-310.96 -569.68)"/></g></g><g class="cls-37"><g id="Group_514" data-name="Group 514"><path class="cls-35" d="M2190.88,1019.76s-6.88-.08-18.93-.17-29.25-.17-50-.34-44.74-.18-70.64-.26-53.44-.09-81-.09-55.16.09-81,.09-50,.17-70.65.26-37.86.25-50,.34-18.93.17-18.93.17,6.88.09,18.93.17,29.25.18,50,.35l70.65.26c25.81,0,53.43.08,81,.08s55.15-.08,81-.08l70.64-.26c20.65-.17,37.86-.26,50-.35S2190.88,1019.76,2190.88,1019.76Z" transform="translate(-310.96 -569.68)"/></g></g><g id="Group_515" data-name="Group 515"><path class="cls-35" d="M2264.83,1033.33s-3.1-.09-8.6-.17-13.25-.26-22.63-.35-20.31-.26-32-.26-24.18-.08-36.66-.08-24.95.08-36.65.08-22.63.18-32,.26-17.13.26-22.63.35-8.6.17-8.6.17,3.1.08,8.6.17,13.25.26,22.63.34,20.3.26,32,.26,24.17.09,36.65.09,25-.09,36.66-.09,22.63-.17,32-.26,17.12-.25,22.63-.34S2264.83,1033.33,2264.83,1033.33Z" transform="translate(-310.96 -569.68)"/></g><g class="cls-38"><g id="Group_516" data-name="Group 516"><path class="cls-35" d="M2378.41,1040.21s-32.61-.17-81.57-.52c-24.44-.08-53-.17-83.64-.25s-63.25-.09-95.86-.09-65.22.09-95.86.09-59.11.17-83.63.25c-49,.26-81.58.52-81.58.52s32.62.17,81.58.51c24.43.09,53,.18,83.63.26s63.25.09,95.86.09,65.23-.09,95.86-.09,59.11-.17,83.64-.26C2345.8,1040.39,2378.41,1040.21,2378.41,1040.21Z" transform="translate(-310.96 -569.68)"/></g></g><g class="cls-39"><g id="Group_517" data-name="Group 517"><path class="cls-35" d="M2170.32,983.26s-1.3-.09-3.45-.17-5.33-.26-9.2-.35-8.18-.17-13-.25c-2.41,0-4.82-.09-7.31-.09h-15.15c-2.5,0-4.9.09-7.31.09-4.73.08-9.21.17-13,.25s-7,.26-9.21.35-3.44.17-3.44.17,1.29.09,3.44.17,5.34.26,9.21.35,8.17.17,13,.25c2.41,0,4.82.09,7.31.09h15.14c2.5,0,4.9-.09,7.32-.09,4.73-.08,9.21-.17,13-.25s7-.26,9.21-.35S2170.32,983.26,2170.32,983.26Z" transform="translate(-310.96 -569.68)"/></g></g><g class="cls-40"><g id="Group_518" data-name="Group 518"><path class="cls-35" d="M2261,1057s-6.89-.08-19-.17-29.34-.17-50.17-.34-44.91-.18-70.9-.26-53.6-.09-81.23-.09-55.32.09-81.22.09-50.17.17-70.9.26-38,.25-50.17.34-19,.17-19,.17,6.88.09,19,.17,29.34.18,50.17.35,44.91.17,70.9.25,53.6.09,81.22.09,55.33-.09,81.23-.09,50.17-.17,70.9-.25,38-.26,50.17-.35S2261,1057,2261,1057Z" transform="translate(-310.96 -569.68)"/></g></g><g class="cls-41"><g id="Group_519" data-name="Group 519"><path class="cls-35" d="M2056.59,1069.47s-3-.09-8.17-.17-12.65-.26-21.6-.35-19.37-.26-30.64-.26-23.14-.08-35.1-.08-23.93.08-35.11.08-21.6.18-30.63.26-16.44.26-21.6.35-8.18.17-8.18.17,3,.08,8.18.17,12.65.26,21.6.34,19.36.26,30.63.26,23.15.09,35.11.09,23.92-.09,35.1-.09,21.6-.17,30.64-.26,16.43-.25,21.6-.34S2056.59,1069.47,2056.59,1069.47Z" transform="translate(-310.96 -569.68)"/></g></g><g class="cls-42"><g id="Group_520" data-name="Group 520"><path class="cls-35" d="M2272.85,1068.14s-4.73-.08-12.91-.17-20-.17-34.07-.34-30.55-.26-48.27-.26-36.49-.09-55.33-.09-37.69.09-55.33.09-34.08.17-48.27.26-25.9.25-34.08.34-12.91.17-12.91.17,4.74.09,12.91.17,20,.18,34.08.35,30.54.26,48.27.26,36.48.08,55.33.08,37.69-.08,55.33-.08,34.07-.18,48.27-.26,25.9-.26,34.07-.35S2272.85,1068.14,2272.85,1068.14Z" transform="translate(-310.96 -569.68)"/></g></g><g class="cls-43"><g id="Group_521" data-name="Group 521"><path class="cls-35" d="M2555.92,1040.21s-6.62-.09-18.24-.17-28.22-.18-48.18-.35l-68.07-.26c-24.95,0-51.45-.08-78-.08s-53.18.08-78,.08l-68.06.26c-20,.09-36.57.26-48.19.35s-18.24.17-18.24.17,6.63.08,18.24.17,28.23.26,48.19.34,43.2.18,68.06.26,51.46.09,78,.09,53.18-.09,78-.09,48.19-.17,68.07-.26,36.57-.25,48.18-.34S2555.92,1040.21,2555.92,1040.21Z" transform="translate(-310.96 -569.68)"/></g></g><g class="cls-44"><g id="Group_524" data-name="Group 524"><path class="cls-22" d="M1917.19,857.1h6.12A22.4,22.4,0,0,1,1917.19,857.1Z" transform="translate(-310.96 -569.68)"/></g></g><g class="cls-45"><g id="Group_549" data-name="Group 549"><path class="cls-46" d="M2296.84,1005.19h22.71l3.1-1.2-3.7,3.36h-22.11Z" transform="translate(-310.96 -569.68)"/></g></g><g class="cls-47"><g id="Group_550" data-name="Group 550"><path class="cls-48" d="M2305,1004h-2.15v1.72H2305Z" transform="translate(-310.96 -569.68)"/></g></g><g class="cls-49"><g id="Group_551" data-name="Group 551"><path class="cls-48" d="M2313.19,1002h-1.38v4.47h1.38Z" transform="translate(-310.96 -569.68)"/></g></g><g class="cls-50"><g id="Group_553" data-name="Group 553"><path class="cls-20" d="M2311.64,981.7c-.52,5.08-2.41,18.85-8.69,22.29h15.23a17.05,17.05,0,0,0-2.33-4.22C2312.41,995.12,2311.72,987,2311.64,981.7Z" transform="translate(-310.96 -569.68)"/></g></g><g class="cls-51"><g id="Group_554" data-name="Group 554"><path class="cls-52" d="M2308.54,1009.06h-5.68v1.73h5.68Z" transform="translate(-310.96 -569.68)"/></g></g><g class="cls-53"><g id="Group_556" data-name="Group 556"><path class="cls-26" d="M2305,1009.06h-2.15v1.73H2305Z" transform="translate(-310.96 -569.68)"/></g></g><g class="cls-54"><g id="Group_559" data-name="Group 559"><path class="cls-55" d="M2311.64,1033c-.52-5.07-2.41-18.84-8.69-22.28h15.23a16.81,16.81,0,0,1-2.33,4.21C2312.41,1019.56,2311.72,1027.65,2311.64,1033Z" transform="translate(-310.96 -569.68)"/></g></g><g class="cls-56"><g id="Group_508" data-name="Group 508"><path class="cls-57" d="M2511.41,1036.15c1.2-3.18,18.5-1.72,21.42-1.8,8.87-.43,17.73-1.64,26.5-2.84,8.52-1.2,19.19,0,26.94-4-3.27-3.18-10.42-5.42-14.72-6.37-10-2.15-21.17-.34-31-2.84-9.47-2.4-45.51-3-46.57-8h142.42c6.29-4,19.88-6.71,27.37-7.31,14.71-1.29,29.86,4.13,43.11,9.81,19,8.17,40,17.12,53.69,33.21,9.21,10.85,17.38,24.35,20,38.64,2.07,11.53,4.56,28.65-1.72,39.32-7.57,12.82-33,12.39-46,12.65s-27.62-4.13-39.32-9.81c-6.28-3-10.84,7.14-9.64,0,.86-5.07,3.87-20.3,0-24.87-4.82-5.5-14.8-6.45-21.25-8.69-5.25-1.72-18.24-5.76-20-11.79-1.64-5.59,5.16-7,5.33-11.44.18-3.79-5.42-5.51-8.6-6.45-12.82-4-27-4.13-39.15-10.33-6.46-3.26-10.24-7.14-17.56-8.69-9.12-2-18-2.5-27.28-2.66C2551.25,1041.75,2509,1042.18,2511.41,1036.15Z" transform="translate(-310.96 -569.68)"/></g></g><g class="cls-58"><g id="Group_510" data-name="Group 510"><path class="cls-59" d="M2574.91,1036c5.85-.43,12.74,5.07,18,7.48,4.65,2.07,9.21,3.87,13.94,5.85,11.62,4.65,23.4,7.57,35.46,11.36,6.62,2.07,13.85,1.72,20.3,4.13-2,6.8-20.73,7.23-12.56,15.92,5.08,5.42,15.66,4.65,22.11,8.35,5.25,2.92,9.12,3.78,15.23,5.16,8.44,1.89,21.17,5.16,28.31,10,7.66,5.16,6.89,14.71,15.58,19.79,7.91,4.65,21.34,11,30.89,9,7-1.47,5.76-6.89,5.59-13.94-.43-16.52-4.3-36.14-14.11-49.82-17.9-25-58.08-24.53-84.84-30.12-20.22-4.22-38.47-11.36-59.38-11.27C2599.18,1028,2581.11,1025.83,2574.91,1036Z" transform="translate(-310.96 -569.68)"/></g></g><g class="cls-60"><g id="Group_511" data-name="Group 511"><path class="cls-61" d="M2534.47,1036.5c6.63-.69,13.17-2.32,19.88-3.36,11.87-1.89,35.53.78,44.57-9.12-7.31,0-14.28-3.78-21.77-4.13-7.66-.34-14.89-1.12-22.46-1.72-14.63-1.2-28.48-5.59-42.33-8l203.07,2.84c4.39-3.1,14.8,1.55,19.53,2.84,6.45,1.9,13.08,2.24,19.53,4.56,3.79,1.38,11.7,3.7,14.37,6.89a14,14,0,0,1-3.7,4.39c6.54,7.14,10.93,17.3,13.6,26.58a187.46,187.46,0,0,1,6.72,39c.86,10.84,5.5,24.78,3.35,35.45-7.74,1.64-18.84-1.46-26.93-1.37-5,0-8.78.08-12.65-3.53-6.11-5.85-2.84-15.49-8-20.74-6-6.11-18.76-4.47-25.9-10.67-2.93-2.58-4-7-7.4-9-4-2.32-8.78-.51-13.08-1.12-8.52-1.2-16.69-3.1-25.38-4-3.62-.43-18.25-2.58-15.75-7.14.69-1.2,5.42-1.9,6.63-2a66,66,0,0,0,20.82-4.73c-5-1-8.86-4-13.34-6.29-5.42-2.66-9.81-2.58-15.75-2.83-6.88-.35-13.76-2.59-20.39-4.3-8.86-2.33-17.64-5.34-26.41-8.09-5.34-1.64-10.16-4.39-15.49-6.11-7.66-2.5-15.58-1.55-23.49-.86-15.32,1.29-30-2.5-45.09-3C2525,1035.55,2530.34,1037,2534.47,1036.5Zm230.35-5c-.17-.34-.09-.17-.52-.6C2764.47,1031.08,2764.64,1031.34,2764.82,1031.51Z" transform="translate(-310.96 -569.68)"/><path id="XMLID_128_2" data-name="XMLID 128 2" class="cls-61" d="M2988.07,1034.5c-6.63-.69-13.16-2.32-19.88-3.36-11.87-1.89-35.53.78-44.57-9.12,7.32,0,14.29-3.78,21.77-4.13,7.66-.34,14.89-1.12,22.46-1.72,14.63-1.2,28.48-5.59,42.33-8L2807.11,1011c-4.38-3.1-14.8,1.55-19.53,2.84-6.45,1.9-13.08,2.24-19.53,4.56-3.79,1.38-11.7,3.7-14.37,6.89a14,14,0,0,0,3.7,4.39c-6.54,7.14-10.93,17.3-13.6,26.58a186.79,186.79,0,0,0-6.71,39c-.86,10.84-5.51,24.78-3.36,35.45,7.74,1.64,18.84-1.46,26.93-1.37,5,0,8.78.08,12.65-3.53,6.11-5.85,2.84-15.49,8-20.74,6-6.11,18.67,13.55,25.82,7.35,2.92-2.58,20.61,2,24,0,4-2.32,15.05-10.59,19.36-11.19,8.51-1.2,5.67-14.83,14.36-15.78,3.62-.43,50-9.72,47.54-14.28-.68-1.2-49,.08-50.16,0a66,66,0,0,1-20.83-4.73c5-1,8.87-4,13.34-6.29,5.42-2.66,9.81-2.58,15.75-2.83,6.88-.35,13.77-2.59,20.39-4.3,8.86-2.33,17.64-5.34,26.42-8.09,5.33-1.64,10.15-4.39,15.48-6.11,7.66-2.5,15.58-1.55,23.5-.86,15.31,1.29,30-2.5,45.08-3C2997.54,1033.55,2992.2,1035,2988.07,1034.5Zm-230.35-5c.17-.34.09-.17.52-.6C2758.07,1029.08,2757.89,1029.34,2757.72,1029.51Z" transform="translate(-310.96 -569.68)"/></g></g><g class="cls-62"><g id="Group_522" data-name="Group 522"><path class="cls-35" d="M2618.34,1054.82s-5.24-.09-14.45-.17-22.37-.18-38.2-.35l-54-.26c-19.79,0-40.87-.08-62-.08s-42.17.08-62,.08l-54,.26c-15.83.17-29,.26-38.2.35s-14.45.17-14.45.17,5.25.08,14.45.17,22.38.17,38.2.34,34.25.18,54,.26,40.87.09,62,.09,42.16-.09,62-.09,38.2-.17,54-.26,29-.25,38.2-.34S2618.34,1054.82,2618.34,1054.82Z" transform="translate(-310.96 -569.68)"/></g></g><g class="cls-63"><g id="Group_523" data-name="Group 523"><path class="cls-35" d="M2586.9,1074.63s-3.1-.08-8.6-.17-13.25-.26-22.63-.34-20.31-.26-32-.26-24.18-.09-36.66-.09-24.95.09-36.65.09-22.63.17-32,.26-17.12.26-22.63.34-8.6.17-8.6.17,3.1.09,8.6.18,13.25.25,22.63.34,20.31.26,32,.26,24.18.08,36.65.08,25-.08,36.66-.08,22.63-.17,32-.26,17.12-.26,22.63-.34S2586.9,1074.63,2586.9,1074.63Z" transform="translate(-310.96 -569.68)"/></g></g><g class="cls-64"><g id="Group_526" data-name="Group 526"><path class="cls-65" d="M2643.06,1008.28c15.32-.77,22.89-5,36.48-10,6.11-2.24,17.13-1.81,21.77-6.71,4.82-5.08.6-11.53,4.56-16.52,7.32-9.12,27.28-4.05,30.8-19.62,1.81-8-3.27-17.38-6.1-26.76,5,2.84,9.29,8.95,12.9,12.39,12.48,11.79,28.91,26.67,44.92,32.27-4,21,1.12,46.9-4,68.58-10.16,0-19.88-1.9-30.2-1.38-11.62.6-29.52,6.88-39.07-1.38,4.39-2.41,9.64-5.08,12.91-9.12-8.78-5.68-33.22,1.72-35.2-10.07-29.68-3.7-61.35,2.93-91.46-.34-21.34-2.32-42.94-4.48-64.45-5.59,16.09-1.64,32.18-3.19,48.61-3.36C2604.6,1010.69,2623.87,1009.14,2643.06,1008.28Z" transform="translate(-310.96 -569.68)"/></g></g><g class="cls-66"><g id="Group_752" data-name="Group 752"><path id="XMLID_118_2" data-name="XMLID 118 2" class="cls-65" d="M2894.86,1006.5c-10.92-.55-16.32-3.55-26-7.11-4.36-1.59-12.2-1.29-15.52-4.78s-.43-8.22-3.25-11.78c-5.21-6.5-19.44-2.88-22-14-1.29-5.7,2.33-12.39,4.35-19.08-3.56,2-6.62,6.38-9.2,8.84-8.89,8.4-20.61,19-32,23,2.82,15-.8,33.42,2.88,48.87,7.24,0,14.17-1.35,21.53-1,8.27.43,21,4.91,27.84-1-3.13-1.72-6.87-3.62-9.2-6.5,6.25-4,23.67,1.23,25.08-7.17,21.16-2.64,43.73,2.08,65.19-.25,15.21-1.65,30.6-3.19,45.94-4-11.47-1.17-22.94-2.27-34.65-2.4C2922.27,1008.22,2908.53,1007.12,2894.86,1006.5Z" transform="translate(-310.96 -569.68)"/></g></g><g class="cls-67"><g id="Group_527" data-name="Group 527"><path class="cls-68" d="M2494.63,1010.77c18.85-3.78,48-2,66.86-5.07,37.78-6.37,77.27-17,110-39.41,8.78-6,20-8.87,29.25-15.49,6.29-4.48,16.52-21.43,21.86-23.32a9.19,9.19,0,0,1,8.17,1.12c2.84,9.38,7.92,18.76,6.11,26.76-3.53,15.57-23.49,10.5-30.8,19.62-4,5,.26,11.44-4.56,16.52-4.65,4.9-15.75,4.47-21.77,6.71-13.68,5-21.17,9.29-36.48,10-19.19.95-38.47,2.41-57.65,2.58-16.35.17-32.44,1.72-48.62,3.36C2526.21,1013.61,2505.3,1010.69,2494.63,1010.77Z" transform="translate(-310.96 -569.68)"/></g></g><g class="cls-69"><g id="Group_753" data-name="Group 753"><path id="XMLID_119_2" data-name="XMLID 119 2" class="cls-68" d="M3000.65,1008.28c-13.43-2.7-34.22-1.41-47.66-3.62-26.92-4.53-55.07-12.14-78.37-28.08-6.26-4.3-14.23-6.32-20.85-11-4.48-3.19-11.78-15.27-15.58-16.62a6.56,6.56,0,0,0-5.83.8c-2,6.68-5.64,13.37-4.35,19.07,2.51,11.1,16.74,7.48,21.95,14,2.89,3.56-.18,8.16,3.25,11.78s11.23,3.19,15.52,4.78c9.75,3.56,15.09,6.63,26,7.12,13.68.67,27.41,1.71,41.09,1.84,11.65.12,23.12,1.22,34.65,2.39C2978.14,1010.31,2993,1008.22,3000.65,1008.28Z" transform="translate(-310.96 -569.68)"/></g></g><g class="cls-70"><g id="Group_528" data-name="Group 528"><path class="cls-71" d="M2803.88,1061.2c-22.54-22.63-45.77-46-65.91-70.73-13.94-17-19.88-13.08-39.24-3.45-16.6,8.26-36.05,5.17-54.72,12.65-18.24,7.32-35.45,15.75-53.35,23.75-24.09,10.67-48.19,8.26-73,13.94l64-.43c16.09,2.15,27.88,6.54,43.88,11.53,17.56,9.64,46.21,1.9,62.73,8.26,10.16,3.88,18,13.6,28.31,17.47,15.58,5.85,34.42,5.94,50.68,8.35C2785.55,1085.12,2794.42,1084.26,2803.88,1061.2Z" transform="translate(-310.96 -569.68)"/></g></g><g class="cls-72"><g id="Group_748" data-name="Group 748"><path id="XMLID_113_2" data-name="XMLID 113 2" class="cls-71" d="M2717.12,1058.28c22.54-22.63,45.78-46,65.91-70.73,13.94-17,19.88-13.08,39.24-3.45,16.61,8.26,36.05,5.17,54.73,12.65,18.24,7.32,35.45,15.75,53.35,23.75,24.09,10.67,48.18,8.26,73,13.94l-64-.43c-16.09,2.15-27.87,6.54-43.88,11.53-17.55,9.64-46.21,1.9-62.73,8.26-10.15,3.88-18,13.6-28.31,17.47-15.57,5.85-34.42,5.94-50.68,8.35C2735.45,1082.2,2726.59,1081.34,2717.12,1058.28Z" transform="translate(-310.96 -569.68)"/></g></g><g class="cls-73"><g id="Group_529" data-name="Group 529"><path class="cls-74" d="M2705.45,1031.43c.68-5.43.77-12.65,2.58-17.9,2.84-8.35,4.82-5.34,12.73-8.95,1.55-7.06,4.9-14.11,7.23-21.26,7.83,6.37,9,20.14,15.66,27.88,4.39,5.17,10.33,4.65,15.14,8.09,10.5,7.57,21,24.44,27.54,35.37,4.56,7.65,3.79,16.26,6.45,24.26-6.45,5.51-14.2,5.16-25.55,3.61-16.35-2.32-35.2-2.5-50.68-8.34-9.64-3.62-17-12.22-26.16-16.52C2698.22,1050.36,2704.15,1042,2705.45,1031.43Z" transform="translate(-310.96 -569.68)"/></g></g><g class="cls-75"><g id="Group_751" data-name="Group 751"><path id="XMLID_124_2" data-name="XMLID 124 2" class="cls-74" d="M2815.56,1028.51c-.69-5.43-.78-12.65-2.58-17.9-2.84-8.35-4.82-5.34-12.74-9-1.55-7.06-4.9-14.12-7.23-21.26-7.83,6.37-9,20.14-15.66,27.88-4.38,5.16-10.32,4.65-15.14,8.09-10.5,7.57-21,24.44-27.54,35.36-4.56,7.66-3.78,16.27-6.45,24.27,6.45,5.51,14.2,5.16,25.56,3.61,16.35-2.32,35.19-2.5,50.68-8.34,9.64-3.62,17-12.22,26.16-16.52C2822.79,1047.44,2816.85,1039.09,2815.56,1028.51Z" transform="translate(-310.96 -569.68)"/></g></g><g class="cls-76"><g id="Group_530" data-name="Group 530"><path class="cls-74" d="M2644.26,1031.43c4.74-.26,8.87,2.66,13.86,2.4,13.08-.6,25.64-12.13,38.63-13.42-7.83,9.9-16.78,14.46-26.15,22.63-5.25,4.65-9.13,8.26-13.69,10.84-11.35-.08-22.71-.6-31.4-5.33-11.7-3.7-21.17-7.06-31.75-9.38,12.65-.26,25-1,37.43-3.36C2635.14,1035,2640.65,1031.6,2644.26,1031.43Z" transform="translate(-310.96 -569.68)"/></g></g><g class="cls-77"><g id="Group_750" data-name="Group 750"><path id="XMLID_120_2" data-name="XMLID 120 2" class="cls-74" d="M2876.74,1028.5c-4.73-.25-8.86,2.67-13.85,2.41-13.08-.6-25.65-12.13-38.64-13.42,7.83,9.9,16.78,14.46,26.16,22.63,5.25,4.65,9.12,8.26,13.68,10.84,11.36-.08,22.72-.6,31.41-5.33,11.7-3.7,21.17-7.06,31.75-9.38-12.65-.26-25-1-37.43-3.36C2885.86,1032.12,2880.35,1028.68,2876.74,1028.5Z" transform="translate(-310.96 -569.68)"/></g></g><g class="cls-78"><g id="Group_531" data-name="Group 531"><path class="cls-74" d="M2720.07,981.52c-3.78,4-5.68,9.9-9.2,13.85-3.88,4.22-6.54,4.82-9.81,10.67-7.83,14.11-20.4,12.05-33.13,18.59,9.9-7.49,25.55-7.06,31.41-18.59,2.92-5.76,2.32-9.81,6.88-14.2C2709.4,988.75,2713.62,987.11,2720.07,981.52Z" transform="translate(-310.96 -569.68)"/></g></g><g class="cls-79"><g id="Group_749" data-name="Group 749"><path id="XMLID_114_2" data-name="XMLID 114 2" class="cls-74" d="M2800.93,978.6c3.79,4,5.68,9.9,9.21,13.85,3.87,4.22,6.54,4.82,9.81,10.67,7.83,14.11,20.39,12,33.13,18.59-9.9-7.49-25.56-7.06-31.41-18.59-2.93-5.76-2.32-9.81-6.88-14.2C2811.6,985.83,2807.39,984.19,2800.93,978.6Z" transform="translate(-310.96 -569.68)"/></g></g><g class="cls-80"><g id="Group_532" data-name="Group 532"><path class="cls-81" d="M2771,969.47c-2.89,6.17-6.13,13.08-9.14,18.59-6.37,11.53-13.17,22.63-19.8,33.9-5.16,8.6-7.22,13.08-16.34,17.64-7.75,3.87-16.35,4.82-23.67,9-7.91,4.56-16.26,9.64-24.09,14.54-6.28,4-17.73,7.06-22.29,12.74,7.49,4,19.36,3.27,27.62,3.7,7.75.34,17.3-3.1,24.36-1.72,5.42,1,4.47,2.75,8.43,6,5.85,4.9,9.29,5.85,17.81,6.89,15,1.8,19.88,5,31.41,13.94,12.39,9.72,30.11,22.54,46.72,20.3-9.81-25.47,41.37-15.23,45.25-41.13,6.05-5.1,34.26-6.42,38.05-10.48.41-.43-8.29.28-11.29-1.69-1.05-.7-20.22-12.85-22.9-15.3-7.39-6.2-26.76-11.88-34.84-23.41-9.76-13.93-15.42-34-21.12-39.06-7.82-6.74-9.88-15.15-18.25-24.5C2776.46,959.31,2773.57,966.64,2771,969.47Z" transform="translate(-310.96 -569.68)"/></g></g><g class="cls-82"><g id="Group_533" data-name="Group 533"><path class="cls-59" d="M2770,969.57V970a8,8,0,0,1-.09,1.38,16.49,16.49,0,0,1-1.46,4.9,44.79,44.79,0,0,1-4.13,6.88c-.86,1.3-1.81,2.67-2.75,4.22s-1.81,3.1-2.76,4.73c-2,3.27-4.13,6.89-6.36,10.59s-4.74,7.74-7.23,11.78-5.08,8.35-7.66,12.65a37.39,37.39,0,0,1-4.39,5.85,24.37,24.37,0,0,1-5.85,4.39,14.93,14.93,0,0,1-1.63.86l-.43.26-.09.09h-.09l-.25.08-.86.43c-.6.26-1.12.52-1.72.78s-1.12.43-1.73.68c-2.32.87-4.73,1.64-7.14,2.33s-4.82,1.55-7.14,2.5c-1.2.51-2.32,1-3.44,1.63-.52.35-1.12.6-1.64,1s-1,.6-1.55,1c-8.17,5.07-15.74,9.8-22.2,13.94-.86.51-1.63.94-2.4,1.37s-1.64.86-2.41,1.2c-1.55.78-3.1,1.47-4.48,2.15a74.6,74.6,0,0,0-7.14,3.88,24.6,24.6,0,0,0-4.13,3.19c-.43.43-.69.77-.95,1a.92.92,0,0,1-.34.34l.34-.34c.26-.17.52-.6.95-1a25,25,0,0,1,4.3-2.92,54.27,54.27,0,0,1,7.31-3.36,74.25,74.25,0,0,0,9.55-4.39c3.36-1.89,7-4,10.76-6.2s7.83-4.56,12-7c.52-.35,1-.6,1.55-1a13.84,13.84,0,0,0,1.55-.86c1-.52,2.15-1,3.27-1.46q3.36-1.29,7-2.33c2.41-.77,4.82-1.46,7.31-2.32.6-.26,1.2-.43,1.81-.69l1.81-.77.86-.43.25-.09.18-.08.08-.09.43-.26c.6-.34,1.2-.6,1.72-.94a29.11,29.11,0,0,0,6.37-4.82,36.2,36.2,0,0,0,4.73-6.29c1.38-2.15,2.58-4.38,3.79-6.45s2.5-4.21,3.7-6.28c4.82-8.26,9.29-16.09,12.91-22.89q1.29-2.58,2.58-4.9c.77-1.55,1.72-2.93,2.5-4.3a49.2,49.2,0,0,0,3.78-7.23,15.85,15.85,0,0,0,1.2-5.07,6.37,6.37,0,0,0,0-1.38A.85.85,0,0,1,2770,969.57Z" transform="translate(-310.96 -569.68)"/></g></g><g class="cls-83"><g id="Group_534" data-name="Group 534"><path class="cls-84" d="M2758.79,1008.19c-1.2,10.41-9,25.64-12.9,33.73,4.56-19.27,9.12-32.35,18.76-49.13C2763.35,996.66,2761.55,1000.88,2758.79,1008.19Z" transform="translate(-310.96 -569.68)"/></g></g><g class="cls-85"><g id="Group_535" data-name="Group 535"><path class="cls-84" d="M2707.17,1060.94c8.51-4.64,19.79-12.65,29.25-14.8-7.23,7-12.82,13.69-21.08,20-3.87,3-6.71,7.23-9.64,11.45-6-.43-13.51,1.72-20,2C2692,1072.12,2699,1065.41,2707.17,1060.94Z" transform="translate(-310.96 -569.68)"/><path id="XMLID_136_2" data-name="XMLID 136 2" class="cls-84" d="M2852.09,1069.74c-6.93-.9-16.58-3.34-23.51-2.33,6.66,2.79,12.15,5.83,19.35,8,3.39,1,6.38,3.09,9.44,5.16,3.94-1.85,9.54-2.35,14-3.86C2865.17,1073.3,2858.75,1070.61,2852.09,1069.74Z" transform="translate(-310.96 -569.68)"/></g></g><g class="cls-86"><g id="Group_536" data-name="Group 536"><path class="cls-22" d="M2469.1,1034.19h-8.6v2.58h8.6Z" transform="translate(-310.96 -569.68)"/></g></g><g class="cls-87"><g id="Group_537" data-name="Group 537"><path class="cls-46" d="M2478.31,1036.08h-34.59l-4.73-1.89,5.59,5.16h33.73Z" transform="translate(-310.96 -569.68)"/></g></g><g class="cls-88"><g id="Group_538" data-name="Group 538"><path class="cls-48" d="M2469.1,1034.19h-3.27v2.58h3.27Z" transform="translate(-310.96 -569.68)"/></g></g><g class="cls-89"><g id="Group_539" data-name="Group 539"><path class="cls-48" d="M2455.51,1031.18h-2.15v6.88h2.15Z" transform="translate(-310.96 -569.68)"/></g></g><g class="cls-90"><g id="Group_540" data-name="Group 540"><path class="cls-24" d="M2469.1,1034.19H2439s6.45-19.79,16.6-36.83C2455.51,997.36,2457.23,1027.74,2469.1,1034.19Z" transform="translate(-310.96 -569.68)"/></g></g><g class="cls-91"><g id="Group_542" data-name="Group 542"><path class="cls-52" d="M2469.1,1041.94h-8.6v2.58h8.6Z" transform="translate(-310.96 -569.68)"/></g></g><g class="cls-92"><g id="Group_543" data-name="Group 543"><path class="cls-26" d="M2478.31,1042.54h-34.59l-4.73,2,5.59-5.17h33.73Z" transform="translate(-310.96 -569.68)"/></g></g><g class="cls-93"><g id="Group_544" data-name="Group 544"><path class="cls-26" d="M2469.1,1041.93h-3.27v2.59h3.27Z" transform="translate(-310.96 -569.68)"/></g></g><g class="cls-94"><g id="Group_545" data-name="Group 545"><path class="cls-26" d="M2455.51,1040.64h-2.15v6.89h2.15Z" transform="translate(-310.96 -569.68)"/></g></g><g class="cls-95"><g id="Group_546" data-name="Group 546"><path class="cls-29" d="M2469.1,1044.52H2439s6.45,19.79,16.6,36.82C2455.51,1081.26,2457.23,1051,2469.1,1044.52Z" transform="translate(-310.96 -569.68)"/></g></g><g class="cls-96"><g id="Group_547" data-name="Group 547"><path class="cls-55" d="M2455.77,1078.42c.77-7.75,3.7-28.66,13.33-33.9h-23.32a26.45,26.45,0,0,0,3.53,6.45C2454.56,1058,2455.68,1070.24,2455.77,1078.42Z" transform="translate(-310.96 -569.68)"/></g></g></g><g id="Group_734" data-name="Group 734" class="cls-97"><g id="Group_319" data-name="Group 319"><path id="Path_1213" data-name="Path 1213" class="cls-98" d="M977.21,922.64l.72,2.34q-1.66-2.06-3.12-4.2Z" transform="translate(-310.96 -569.68)"/><path id="Path_1214" data-name="Path 1214" class="cls-99" d="M961,866.57l5.68,17.33h-5.52c-1.2-6.21-2.19-12.55-3.29-18.91Z" transform="translate(-310.96 -569.68)"/><path id="Path_1215" data-name="Path 1215" class="cls-99" d="M966.67,886.06l2.43,5.78-6.5-1.05q-.74-3.24-1.38-6.52Z" transform="translate(-310.96 -569.68)"/><path id="Path_1216" data-name="Path 1216" class="cls-99" d="M969.1,895.21l1.63,6L966,902.7c-1.21-3.55-2.22-7.18-3.1-10.87Z" transform="translate(-310.96 -569.68)"/><path id="Path_1217" data-name="Path 1217" class="cls-99" d="M970.73,905.8l4.86,8.9h-4.46a77.56,77.56,0,0,1-4.4-9.8Z" transform="translate(-310.96 -569.68)"/><path id="Path_1218" data-name="Path 1218" class="cls-99" d="M956.36,857.86l2.47,1,2.16,4.81h-3.35c-.17-1-.34-2-.53-3A12.74,12.74,0,0,0,956.36,857.86Z" transform="translate(-310.96 -569.68)"/><path id="Path_1219" data-name="Path 1219" class="cls-98" d="M949.1,851.18h3.83c.91,1.85,2.07,3.61,3,5.53h-2.33l2.8,1.15a12.8,12.8,0,0,1,.75,2.84c.19,1,.36,2,.53,3h-2.32l2.55,1.3c1.1,6.36,2.08,12.7,3.28,18.91h-1l1.1.37q.64,3.29,1.38,6.52l-2.41-.39,2.66,1.43c.88,3.69,1.89,7.32,3.1,10.87l-3.8,1.17,4.59,1a79,79,0,0,0,4.39,9.8h-4.19l7.88,6.08q1.45,2.15,3.12,4.21l2.52,8.24h-19a60.28,60.28,0,0,0-1.92-11.17c-4.59-23.15-1.25-46.3-11.06-68.23Z" transform="translate(-310.96 -569.68)"/><path id="Path_1220" data-name="Path 1220" class="cls-98" d="M952.81,850.91l-3.3-1.18,1.46-6.29a5.63,5.63,0,0,1,.47,2.1A12,12,0,0,0,952.81,850.91Z" transform="translate(-310.96 -569.68)"/><path id="Path_1221" data-name="Path 1221" class="cls-99" d="M953.56,851.18l-.76-.27a12.11,12.11,0,0,1-1.36-5.37,5.68,5.68,0,0,0-.47-2.1l1.64-7.06,6.22,20.33h-2.94c-.89-1.92-2-3.68-3-5.53Z" transform="translate(-310.96 -569.68)"/><path id="Path_1222" data-name="Path 1222" class="cls-100" d="M928.82,923.6,945.6,921l-14.88-2.89,4.6-16.84,8.91-4.58-6.75-1.92,2.43-9.63,9.19-2.16-8.38-2.41,3.78-11.3,6.22-1.2-5.13-1.69,2.89-12.5c9.82,21.93,6.48,45.08,11.07,68.23a61.16,61.16,0,0,1,1.92,11.16H927.2Z" transform="translate(-310.96 -569.68)"/></g><g id="Group_320" data-name="Group 320" class="cls-101"><path id="Path_1223" data-name="Path 1223" class="cls-22" d="M977.21,922.64l.72,2.34q-1.66-2.06-3.12-4.2Z" transform="translate(-310.96 -569.68)"/><path id="Path_1224" data-name="Path 1224" class="cls-22" d="M961,866.57l5.68,17.33h-5.52c-1.2-6.21-2.19-12.55-3.29-18.91Z" transform="translate(-310.96 -569.68)"/><path id="Path_1225" data-name="Path 1225" class="cls-22" d="M966.67,886.06l2.43,5.78-6.5-1.05q-.74-3.24-1.38-6.52Z" transform="translate(-310.96 -569.68)"/><path id="Path_1226" data-name="Path 1226" class="cls-22" d="M969.1,895.21l1.63,6L966,902.7c-1.21-3.55-2.22-7.18-3.1-10.87Z" transform="translate(-310.96 -569.68)"/><path id="Path_1227" data-name="Path 1227" class="cls-22" d="M970.73,905.8l4.86,8.9h-4.46a77.56,77.56,0,0,1-4.4-9.8Z" transform="translate(-310.96 -569.68)"/><path id="Path_1228" data-name="Path 1228" class="cls-22" d="M956.36,857.86l2.47,1,2.16,4.81h-3.35c-.17-1-.34-2-.53-3A12.74,12.74,0,0,0,956.36,857.86Z" transform="translate(-310.96 -569.68)"/><path id="Path_1229" data-name="Path 1229" class="cls-22" d="M949.1,851.18h3.83c.91,1.85,2.07,3.61,3,5.53h-2.33l2.8,1.15a12.8,12.8,0,0,1,.75,2.84c.19,1,.36,2,.53,3h-2.32l2.55,1.3c1.1,6.36,2.08,12.7,3.28,18.91h-1l1.1.37q.64,3.29,1.38,6.52l-2.41-.39,2.66,1.43c.88,3.69,1.89,7.32,3.1,10.87l-3.8,1.17,4.59,1a79,79,0,0,0,4.39,9.8h-4.19l7.88,6.08q1.45,2.15,3.12,4.21l2.52,8.24h-19a60.28,60.28,0,0,0-1.92-11.17c-4.59-23.15-1.25-46.3-11.06-68.23Z" transform="translate(-310.96 -569.68)"/><path id="Path_1230" data-name="Path 1230" class="cls-22" d="M952.81,850.91l-3.3-1.18,1.46-6.29a5.63,5.63,0,0,1,.47,2.1A12,12,0,0,0,952.81,850.91Z" transform="translate(-310.96 -569.68)"/><path id="Path_1231" data-name="Path 1231" class="cls-22" d="M953.56,851.18l-.76-.27a12.11,12.11,0,0,1-1.36-5.37,5.68,5.68,0,0,0-.47-2.1l1.64-7.06,6.22,20.33h-2.94c-.89-1.92-2-3.68-3-5.53Z" transform="translate(-310.96 -569.68)"/><path id="Path_1232" data-name="Path 1232" class="cls-22" d="M928.82,923.6,945.6,921l-14.88-2.89,4.6-16.84,8.91-4.58-6.75-1.92,2.43-9.63,9.19-2.16-8.38-2.41,3.78-11.3,6.22-1.2-5.13-1.69,2.89-12.5c9.82,21.93,6.48,45.08,11.07,68.23a61.16,61.16,0,0,1,1.92,11.16H927.2Z" transform="translate(-310.96 -569.68)"/></g></g><g id="Group_735" data-name="Group 735" class="cls-97"><g id="Group_322" data-name="Group 322"><path id="Path_1233" data-name="Path 1233" class="cls-98" d="M934,922.64l.72,2.34q-1.66-2.06-3.12-4.2Z" transform="translate(-310.96 -569.68)"/><path id="Path_1234" data-name="Path 1234" class="cls-99" d="M917.81,866.57l5.67,17.33H918c-1.2-6.21-2.18-12.55-3.28-18.91Z" transform="translate(-310.96 -569.68)"/><path id="Path_1235" data-name="Path 1235" class="cls-99" d="M923.49,886.06l2.43,5.78-6.5-1.05q-.75-3.24-1.38-6.52Z" transform="translate(-310.96 -569.68)"/><path id="Path_1236" data-name="Path 1236" class="cls-99" d="M925.92,895.21l1.62,6-4.78,1.47c-1.21-3.55-2.22-7.18-3.1-10.87Z" transform="translate(-310.96 -569.68)"/><path id="Path_1237" data-name="Path 1237" class="cls-99" d="M927.54,905.8l4.87,8.9h-4.47a77.51,77.51,0,0,1-4.39-9.8Z" transform="translate(-310.96 -569.68)"/><path id="Path_1238" data-name="Path 1238" class="cls-99" d="M913.17,857.86l2.48,1,2.16,4.81h-3.36c-.17-1-.34-2-.53-3A12.74,12.74,0,0,0,913.17,857.86Z" transform="translate(-310.96 -569.68)"/><path id="Path_1239" data-name="Path 1239" class="cls-98" d="M905.91,851.18h3.84c.91,1.85,2.06,3.61,3,5.53h-2.33l2.8,1.15a13.39,13.39,0,0,1,.76,2.84c.19,1,.35,2,.52,3h-2.32l2.55,1.3c1.1,6.36,2.08,12.7,3.28,18.91h-1l1.11.37q.63,3.29,1.38,6.52L917,890.4l2.67,1.43c.88,3.69,1.88,7.32,3.1,10.87l-3.8,1.17,4.58,1a77.56,77.56,0,0,0,4.4,9.8h-4.19l7.87,6.08q1.46,2.15,3.12,4.21l2.53,8.24h-19a61.14,61.14,0,0,0-1.93-11.17c-4.59-23.15-1.24-46.3-11.06-68.23Z" transform="translate(-310.96 -569.68)"/><path id="Path_1240" data-name="Path 1240" class="cls-98" d="M909.62,850.91l-3.3-1.18,1.46-6.29a5.63,5.63,0,0,1,.47,2.1A12.25,12.25,0,0,0,909.62,850.91Z" transform="translate(-310.96 -569.68)"/><path id="Path_1241" data-name="Path 1241" class="cls-99" d="M910.37,851.18l-.75-.27a12.25,12.25,0,0,1-1.37-5.37,5.68,5.68,0,0,0-.47-2.1l1.65-7.06,6.22,20.33H912.7c-.89-1.92-2-3.68-3-5.53Z" transform="translate(-310.96 -569.68)"/><path id="Path_1242" data-name="Path 1242" class="cls-100" d="M885.63,923.6,902.4,921l-14.87-2.89,4.6-16.84,8.91-4.58-6.75-1.92,2.43-9.63,9.19-2.16-8.38-2.41,3.78-11.3,6.22-1.2-5.13-1.68,2.89-12.51c9.83,21.92,6.48,45.07,11.07,68.22a61.42,61.42,0,0,1,1.92,11.17H884Z" transform="translate(-310.96 -569.68)"/></g><g id="Group_323" data-name="Group 323" class="cls-101"><path id="Path_1243" data-name="Path 1243" class="cls-22" d="M934,922.64l.72,2.34q-1.66-2.06-3.12-4.2Z" transform="translate(-310.96 -569.68)"/><path id="Path_1244" data-name="Path 1244" class="cls-22" d="M917.81,866.57l5.67,17.33H918c-1.2-6.21-2.18-12.55-3.28-18.91Z" transform="translate(-310.96 -569.68)"/><path id="Path_1245" data-name="Path 1245" class="cls-22" d="M923.49,886.06l2.43,5.78-6.5-1.05q-.75-3.24-1.38-6.52Z" transform="translate(-310.96 -569.68)"/><path id="Path_1246" data-name="Path 1246" class="cls-22" d="M925.92,895.21l1.62,6-4.78,1.47c-1.21-3.55-2.22-7.18-3.1-10.87Z" transform="translate(-310.96 -569.68)"/><path id="Path_1247" data-name="Path 1247" class="cls-22" d="M927.54,905.8l4.87,8.9h-4.47a77.51,77.51,0,0,1-4.39-9.8Z" transform="translate(-310.96 -569.68)"/><path id="Path_1248" data-name="Path 1248" class="cls-22" d="M913.17,857.86l2.48,1,2.16,4.81h-3.36c-.17-1-.34-2-.53-3A12.74,12.74,0,0,0,913.17,857.86Z" transform="translate(-310.96 -569.68)"/><path id="Path_1249" data-name="Path 1249" class="cls-22" d="M905.91,851.18h3.84c.91,1.85,2.06,3.61,3,5.53h-2.33l2.8,1.15a13.39,13.39,0,0,1,.76,2.84c.19,1,.35,2,.52,3h-2.32l2.55,1.3c1.1,6.36,2.08,12.7,3.28,18.91h-1l1.11.37q.63,3.29,1.38,6.52L917,890.4l2.67,1.43c.88,3.69,1.88,7.32,3.1,10.87l-3.8,1.17,4.58,1a77.56,77.56,0,0,0,4.4,9.8h-4.19l7.87,6.08q1.46,2.15,3.12,4.21l2.53,8.24h-19a61.14,61.14,0,0,0-1.93-11.17c-4.59-23.15-1.24-46.3-11.06-68.23Z" transform="translate(-310.96 -569.68)"/><path id="Path_1250" data-name="Path 1250" class="cls-22" d="M909.62,850.91l-3.3-1.18,1.46-6.29a5.63,5.63,0,0,1,.47,2.1A12.25,12.25,0,0,0,909.62,850.91Z" transform="translate(-310.96 -569.68)"/><path id="Path_1251" data-name="Path 1251" class="cls-22" d="M910.37,851.18l-.75-.27a12.25,12.25,0,0,1-1.37-5.37,5.68,5.68,0,0,0-.47-2.1l1.65-7.06,6.22,20.33H912.7c-.89-1.92-2-3.68-3-5.53Z" transform="translate(-310.96 -569.68)"/><path id="Path_1252" data-name="Path 1252" class="cls-22" d="M885.63,923.6,902.4,921l-14.87-2.89,4.6-16.84,8.91-4.58-6.75-1.92,2.43-9.63,9.19-2.16-8.38-2.41,3.78-11.3,6.22-1.2-5.13-1.68,2.89-12.51c9.83,21.92,6.48,45.07,11.07,68.22a61.42,61.42,0,0,1,1.92,11.17H884Z" transform="translate(-310.96 -569.68)"/></g></g><g id="Group_736" data-name="Group 736"><g id="Group_325" data-name="Group 325"><path id="Path_1253" data-name="Path 1253" class="cls-98" d="M949.13,924.28l.67,2.19q-1.56-1.94-2.9-3.91Z" transform="translate(-310.96 -569.68)"/><path id="Path_1254" data-name="Path 1254" class="cls-99" d="M934,872.14l5.28,16.12h-5.13c-1.12-5.79-2-11.68-3.05-17.59Z" transform="translate(-310.96 -569.68)"/><path id="Path_1255" data-name="Path 1255" class="cls-99" d="M939.32,890.27l2.26,5.37-6-1c-.47-2-.89-4-1.29-6.07Z" transform="translate(-310.96 -569.68)"/><path id="Path_1256" data-name="Path 1256" class="cls-99" d="M941.58,898.78l1.51,5.59-4.44,1.37c-1.13-3.3-2.07-6.67-2.88-10.1Z" transform="translate(-310.96 -569.68)"/><path id="Path_1257" data-name="Path 1257" class="cls-99" d="M943.09,908.62l4.53,8.28h-4.16a72.14,72.14,0,0,1-4.08-9.11Z" transform="translate(-310.96 -569.68)"/><path id="Path_1258" data-name="Path 1258" class="cls-99" d="M929.74,864.05l2.3.94,2,4.47h-3.12c-.16-.92-.32-1.84-.49-2.77A12.69,12.69,0,0,0,929.74,864.05Z" transform="translate(-310.96 -569.68)"/><path id="Path_1259" data-name="Path 1259" class="cls-98" d="M923,857.82h3.56c.85,1.72,1.93,3.36,2.75,5.15h-2.16l2.61,1.07a12.69,12.69,0,0,1,.7,2.64c.17.93.33,1.85.49,2.77h-2.16l2.37,1.22c1,5.91,1.93,11.81,3.05,17.59h-1l1,.34c.4,2,.82,4.06,1.28,6.06l-2.25-.36,2.48,1.33c.82,3.43,1.76,6.81,2.89,10.1l-3.55,1.1,4.28.95a70.74,70.74,0,0,0,4.08,9.11h-3.89l7.32,5.66c.9,1.32,1.87,2.63,2.9,3.91l2.35,7.66H934.49a58,58,0,0,0-1.79-10.38c-4.27-21.53-1.16-43-10.29-63.46Z" transform="translate(-310.96 -569.68)"/><path id="Path_1260" data-name="Path 1260" class="cls-98" d="M926.43,857.58l-3.07-1.1,1.36-5.85a5.28,5.28,0,0,1,.44,2A11.29,11.29,0,0,0,926.43,857.58Z" transform="translate(-310.96 -569.68)"/><path id="Path_1261" data-name="Path 1261" class="cls-99" d="M927.13,857.83l-.7-.25a11.3,11.3,0,0,1-1.28-5,5.12,5.12,0,0,0-.43-2l1.53-6.56L932,863h-2.75c-.82-1.79-1.9-3.43-2.74-5.15h.59Z" transform="translate(-310.96 -569.68)"/><path id="Path_1262" data-name="Path 1262" class="cls-100" d="M904.12,925.18l15.59-2.46L905.88,920l4.28-15.66,8.29-4.25-6.28-1.79,2.26-9,8.55-2-7.79-2.24,3.52-10.51,5.78-1.12-4.78-1.57,2.7-11.63c9.13,20.4,6,41.93,10.28,63.45a56.37,56.37,0,0,1,1.79,10.38H902.61Z" transform="translate(-310.96 -569.68)"/></g><g id="Group_326" data-name="Group 326" class="cls-101"><path id="Path_1263" data-name="Path 1263" class="cls-22" d="M949.13,924.28l.67,2.19q-1.56-1.94-2.9-3.91Z" transform="translate(-310.96 -569.68)"/><path id="Path_1264" data-name="Path 1264" class="cls-22" d="M934,872.14l5.28,16.12h-5.13c-1.12-5.79-2-11.68-3.05-17.59Z" transform="translate(-310.96 -569.68)"/><path id="Path_1265" data-name="Path 1265" class="cls-22" d="M939.32,890.27l2.26,5.37-6-1c-.47-2-.89-4-1.29-6.07Z" transform="translate(-310.96 -569.68)"/><path id="Path_1266" data-name="Path 1266" class="cls-22" d="M941.58,898.78l1.51,5.59-4.44,1.37c-1.13-3.3-2.07-6.67-2.88-10.1Z" transform="translate(-310.96 -569.68)"/><path id="Path_1267" data-name="Path 1267" class="cls-22" d="M943.09,908.62l4.53,8.28h-4.16a72.14,72.14,0,0,1-4.08-9.11Z" transform="translate(-310.96 -569.68)"/><path id="Path_1268" data-name="Path 1268" class="cls-22" d="M929.74,864.05l2.3.94,2,4.47h-3.12c-.16-.92-.32-1.84-.49-2.77A12.69,12.69,0,0,0,929.74,864.05Z" transform="translate(-310.96 -569.68)"/><path id="Path_1269" data-name="Path 1269" class="cls-22" d="M923,857.82h3.56c.85,1.72,1.93,3.36,2.75,5.15h-2.16l2.61,1.07a12.69,12.69,0,0,1,.7,2.64c.17.93.33,1.85.49,2.77h-2.16l2.37,1.22c1,5.91,1.93,11.81,3.05,17.59h-1l1,.34c.4,2,.82,4.06,1.28,6.06l-2.25-.36,2.48,1.33c.82,3.43,1.76,6.81,2.89,10.1l-3.55,1.1,4.28.95a70.74,70.74,0,0,0,4.08,9.11h-3.89l7.32,5.66c.9,1.32,1.87,2.63,2.9,3.91l2.35,7.66H934.49a58,58,0,0,0-1.79-10.38c-4.27-21.53-1.16-43-10.29-63.46Z" transform="translate(-310.96 -569.68)"/><path id="Path_1270" data-name="Path 1270" class="cls-22" d="M926.43,857.58l-3.07-1.1,1.36-5.85a5.28,5.28,0,0,1,.44,2A11.29,11.29,0,0,0,926.43,857.58Z" transform="translate(-310.96 -569.68)"/><path id="Path_1271" data-name="Path 1271" class="cls-22" d="M927.13,857.83l-.7-.25a11.3,11.3,0,0,1-1.28-5,5.12,5.12,0,0,0-.43-2l1.53-6.56L932,863h-2.75c-.82-1.79-1.9-3.43-2.74-5.15h.59Z" transform="translate(-310.96 -569.68)"/><path id="Path_1272" data-name="Path 1272" class="cls-22" d="M904.12,925.18l15.59-2.46L905.88,920l4.28-15.66,8.29-4.25-6.28-1.79,2.26-9,8.55-2-7.79-2.24,3.52-10.51,5.78-1.12-4.78-1.57,2.7-11.63c9.13,20.4,6,41.93,10.28,63.45a56.37,56.37,0,0,1,1.79,10.38H902.61Z" transform="translate(-310.96 -569.68)"/></g></g><g id="Group_737" data-name="Group 737"><g id="Group_328" data-name="Group 328"><path id="Path_1273" data-name="Path 1273" class="cls-98" d="M991.05,924.77l.6,2q-1.38-1.71-2.59-3.49Z" transform="translate(-310.96 -569.68)"/><path id="Path_1274" data-name="Path 1274" class="cls-99" d="M977.6,878.27l4.71,14.38h-4.59c-1-5.16-1.81-10.42-2.72-15.69Z" transform="translate(-310.96 -569.68)"/><path id="Path_1275" data-name="Path 1275" class="cls-99" d="M982.31,894.44l2,4.79-5.39-.87q-.61-2.68-1.14-5.41Z" transform="translate(-310.96 -569.68)"/><path id="Path_1276" data-name="Path 1276" class="cls-99" d="M984.32,902l1.35,5-4,1.22c-1-2.94-1.84-6-2.57-9Z" transform="translate(-310.96 -569.68)"/><path id="Path_1277" data-name="Path 1277" class="cls-99" d="M985.67,910.8l4,7.39H986a66.52,66.52,0,0,1-3.64-8.13Z" transform="translate(-310.96 -569.68)"/><path id="Path_1278" data-name="Path 1278" class="cls-99" d="M973.76,871.05l2,.84,1.8,4h-2.78c-.14-.82-.29-1.65-.44-2.47A11.24,11.24,0,0,0,973.76,871.05Z" transform="translate(-310.96 -569.68)"/><path id="Path_1279" data-name="Path 1279" class="cls-98" d="M967.73,865.51h3.18c.76,1.53,1.72,3,2.45,4.58h-1.93l2.33,1a11.31,11.31,0,0,1,.62,2.35c.15.83.3,1.65.44,2.48h-1.93L975,877c.9,5.27,1.72,10.53,2.72,15.69h-.86l.92.3c.35,1.81.73,3.62,1.14,5.41l-2-.33,2.21,1.19c.73,3.06,1.57,6.07,2.57,9l-3.15,1,3.8.85a65.09,65.09,0,0,0,3.65,8.13h-3.49l6.53,5q1.22,1.78,2.59,3.49l2.1,6.83H978a51,51,0,0,0-1.6-9.26c-3.8-19.2-1-38.4-9.17-56.59Z" transform="translate(-310.96 -569.68)"/><path id="Path_1280" data-name="Path 1280" class="cls-98" d="M970.81,865.28l-2.74-1,1.22-5.22a4.55,4.55,0,0,1,.38,1.75A10.09,10.09,0,0,0,970.81,865.28Z" transform="translate(-310.96 -569.68)"/><path id="Path_1281" data-name="Path 1281" class="cls-99" d="M971.43,865.51l-.62-.23a10.17,10.17,0,0,1-1.14-4.45,4.54,4.54,0,0,0-.38-1.74l1.36-5.86,5.16,16.86h-2.45c-.73-1.59-1.69-3.05-2.45-4.59h.52Z" transform="translate(-310.96 -569.68)"/><path id="Path_1282" data-name="Path 1282" class="cls-100" d="M950.92,925.57l13.9-2.19L952.48,921l3.81-14,7.4-3.79-5.6-1.6,2-8,7.62-1.8-7-2,3.14-9.37,5.16-1-4.26-1.4,2.4-10.38c8.14,18.2,5.37,37.39,9.17,56.59a50.12,50.12,0,0,1,1.6,9.26H949.57Z" transform="translate(-310.96 -569.68)"/></g><g id="Group_329" data-name="Group 329" class="cls-101"><path id="Path_1283" data-name="Path 1283" class="cls-22" d="M991.05,924.77l.6,2q-1.38-1.71-2.59-3.49Z" transform="translate(-310.96 -569.68)"/><path id="Path_1284" data-name="Path 1284" class="cls-22" d="M977.6,878.27l4.71,14.38h-4.59c-1-5.16-1.81-10.42-2.72-15.69Z" transform="translate(-310.96 -569.68)"/><path id="Path_1285" data-name="Path 1285" class="cls-22" d="M982.31,894.44l2,4.79-5.39-.87q-.61-2.68-1.14-5.41Z" transform="translate(-310.96 -569.68)"/><path id="Path_1286" data-name="Path 1286" class="cls-22" d="M984.32,902l1.35,5-4,1.22c-1-2.94-1.84-6-2.57-9Z" transform="translate(-310.96 -569.68)"/><path id="Path_1287" data-name="Path 1287" class="cls-22" d="M985.67,910.8l4,7.39H986a66.52,66.52,0,0,1-3.64-8.13Z" transform="translate(-310.96 -569.68)"/><path id="Path_1288" data-name="Path 1288" class="cls-22" d="M973.76,871.05l2,.84,1.8,4h-2.78c-.14-.82-.29-1.65-.44-2.47A11.24,11.24,0,0,0,973.76,871.05Z" transform="translate(-310.96 -569.68)"/><path id="Path_1289" data-name="Path 1289" class="cls-22" d="M967.73,865.51h3.18c.76,1.53,1.72,3,2.45,4.58h-1.93l2.33,1a11.31,11.31,0,0,1,.62,2.35c.15.83.3,1.65.44,2.48h-1.93L975,877c.9,5.27,1.72,10.53,2.72,15.69h-.86l.92.3c.35,1.81.73,3.62,1.14,5.41l-2-.33,2.21,1.19c.73,3.06,1.57,6.07,2.57,9l-3.15,1,3.8.85a65.09,65.09,0,0,0,3.65,8.13h-3.49l6.53,5q1.22,1.78,2.59,3.49l2.1,6.83H978a51,51,0,0,0-1.6-9.26c-3.8-19.2-1-38.4-9.17-56.59Z" transform="translate(-310.96 -569.68)"/><path id="Path_1290" data-name="Path 1290" class="cls-22" d="M970.81,865.28l-2.74-1,1.22-5.22a4.55,4.55,0,0,1,.38,1.75A10.09,10.09,0,0,0,970.81,865.28Z" transform="translate(-310.96 -569.68)"/><path id="Path_1291" data-name="Path 1291" class="cls-22" d="M971.43,865.51l-.62-.23a10.17,10.17,0,0,1-1.14-4.45,4.54,4.54,0,0,0-.38-1.74l1.36-5.86,5.16,16.86h-2.45c-.73-1.59-1.69-3.05-2.45-4.59h.52Z" transform="translate(-310.96 -569.68)"/><path id="Path_1292" data-name="Path 1292" class="cls-22" d="M950.92,925.57l13.9-2.19L952.48,921l3.81-14,7.4-3.79-5.6-1.6,2-8,7.62-1.8-7-2,3.14-9.37,5.16-1-4.26-1.4,2.4-10.38c8.14,18.2,5.37,37.39,9.17,56.59a50.12,50.12,0,0,1,1.6,9.26H949.57Z" transform="translate(-310.96 -569.68)"/></g></g><g id="Group_738" data-name="Group 738"><g id="Group_331" data-name="Group 331"><path id="Path_1293" data-name="Path 1293" class="cls-98" d="M1033.13,924.77l.6,2q-1.39-1.71-2.59-3.49Z" transform="translate(-310.96 -569.68)"/><path id="Path_1294" data-name="Path 1294" class="cls-99" d="M1019.67,878.27l4.71,14.38h-4.58c-1-5.16-1.81-10.42-2.72-15.69Z" transform="translate(-310.96 -569.68)"/><path id="Path_1295" data-name="Path 1295" class="cls-99" d="M1024.38,894.44l2,4.79-5.39-.87q-.62-2.68-1.14-5.41Z" transform="translate(-310.96 -569.68)"/><path id="Path_1296" data-name="Path 1296" class="cls-99" d="M1026.4,902l1.34,5-4,1.22c-1-2.94-1.84-6-2.57-9Z" transform="translate(-310.96 -569.68)"/><path id="Path_1297" data-name="Path 1297" class="cls-99" d="M1027.75,910.8l4,7.39h-3.7a63.61,63.61,0,0,1-3.64-8.13Z" transform="translate(-310.96 -569.68)"/><path id="Path_1298" data-name="Path 1298" class="cls-99" d="M1015.83,871.05l2,.84,1.79,4h-2.78c-.14-.82-.28-1.65-.44-2.47A10.14,10.14,0,0,0,1015.83,871.05Z" transform="translate(-310.96 -569.68)"/><path id="Path_1299" data-name="Path 1299" class="cls-98" d="M1009.81,865.51H1013c.75,1.53,1.71,3,2.45,4.58h-1.93l2.32,1a10.19,10.19,0,0,1,.62,2.35c.16.83.3,1.65.44,2.48H1015l2.11,1.08c.91,5.27,1.73,10.53,2.72,15.69h-.86l.92.3c.36,1.81.74,3.62,1.14,5.41l-2-.33,2.21,1.19c.73,3.06,1.57,6.07,2.58,9l-3.16,1,3.8.86a65,65,0,0,0,3.65,8.12h-3.48l6.53,5q1.21,1.77,2.59,3.48l2.1,6.84h-15.75a51,51,0,0,0-1.6-9.26c-3.81-19.2-1-38.4-9.17-56.59Z" transform="translate(-310.96 -569.68)"/><path id="Path_1300" data-name="Path 1300" class="cls-98" d="M1012.88,865.28l-2.74-1,1.22-5.22a4.75,4.75,0,0,1,.39,1.75A10.08,10.08,0,0,0,1012.88,865.28Z" transform="translate(-310.96 -569.68)"/><path id="Path_1301" data-name="Path 1301" class="cls-99" d="M1013.51,865.51l-.63-.23a10.16,10.16,0,0,1-1.13-4.45,4.74,4.74,0,0,0-.39-1.74l1.36-5.86,5.16,16.86h-2.44c-.74-1.59-1.7-3.05-2.45-4.59h.52Z" transform="translate(-310.96 -569.68)"/><path id="Path_1302" data-name="Path 1302" class="cls-100" d="M993,925.57l13.9-2.19L994.56,921l3.81-14,7.4-3.79-5.6-1.6,2-8,7.63-1.8-6.95-2,3.13-9.37,5.16-1-4.26-1.4,2.4-10.38c8.15,18.2,5.37,37.39,9.18,56.59a50.11,50.11,0,0,1,1.59,9.26H991.65Z" transform="translate(-310.96 -569.68)"/></g><g id="Group_332" data-name="Group 332" class="cls-101"><path id="Path_1303" data-name="Path 1303" class="cls-22" d="M1033.13,924.77l.6,2q-1.39-1.71-2.59-3.49Z" transform="translate(-310.96 -569.68)"/><path id="Path_1304" data-name="Path 1304" class="cls-22" d="M1019.67,878.27l4.71,14.38h-4.58c-1-5.16-1.81-10.42-2.72-15.69Z" transform="translate(-310.96 -569.68)"/><path id="Path_1305" data-name="Path 1305" class="cls-22" d="M1024.38,894.44l2,4.79-5.39-.87q-.62-2.68-1.14-5.41Z" transform="translate(-310.96 -569.68)"/><path id="Path_1306" data-name="Path 1306" class="cls-22" d="M1026.4,902l1.34,5-4,1.22c-1-2.94-1.84-6-2.57-9Z" transform="translate(-310.96 -569.68)"/><path id="Path_1307" data-name="Path 1307" class="cls-22" d="M1027.75,910.8l4,7.39h-3.7a63.61,63.61,0,0,1-3.64-8.13Z" transform="translate(-310.96 -569.68)"/><path id="Path_1308" data-name="Path 1308" class="cls-22" d="M1015.83,871.05l2,.84,1.79,4h-2.78c-.14-.82-.28-1.65-.44-2.47A10.14,10.14,0,0,0,1015.83,871.05Z" transform="translate(-310.96 -569.68)"/><path id="Path_1309" data-name="Path 1309" class="cls-22" d="M1009.81,865.51H1013c.75,1.53,1.71,3,2.45,4.58h-1.93l2.32,1a10.19,10.19,0,0,1,.62,2.35c.16.83.3,1.65.44,2.48H1015l2.11,1.08c.91,5.27,1.73,10.53,2.72,15.69h-.86l.92.3c.36,1.81.74,3.62,1.14,5.41l-2-.33,2.21,1.19c.73,3.06,1.57,6.07,2.58,9l-3.16,1,3.8.86a65,65,0,0,0,3.65,8.12h-3.48l6.53,5q1.21,1.77,2.59,3.48l2.1,6.84h-15.75a51,51,0,0,0-1.6-9.26c-3.81-19.2-1-38.4-9.17-56.59Z" transform="translate(-310.96 -569.68)"/><path id="Path_1310" data-name="Path 1310" class="cls-22" d="M1012.88,865.28l-2.74-1,1.22-5.22a4.75,4.75,0,0,1,.39,1.75A10.08,10.08,0,0,0,1012.88,865.28Z" transform="translate(-310.96 -569.68)"/><path id="Path_1311" data-name="Path 1311" class="cls-22" d="M1013.51,865.51l-.63-.23a10.16,10.16,0,0,1-1.13-4.45,4.74,4.74,0,0,0-.39-1.74l1.36-5.86,5.16,16.86h-2.44c-.74-1.59-1.7-3.05-2.45-4.59h.52Z" transform="translate(-310.96 -569.68)"/><path id="Path_1312" data-name="Path 1312" class="cls-22" d="M993,925.57l13.9-2.19L994.56,921l3.81-14,7.4-3.79-5.6-1.6,2-8,7.63-1.8-6.95-2,3.13-9.37,5.16-1-4.26-1.4,2.4-10.38c8.15,18.2,5.37,37.39,9.18,56.59a50.11,50.11,0,0,1,1.59,9.26H991.65Z" transform="translate(-310.96 -569.68)"/></g></g><path id="Path_19769" data-name="Path 19769" class="cls-102" d="M311,893.26c523.63,9.18,1283.22,88.09,1951.24,201.08V1143H311Z" transform="translate(-310.96 -569.68)"/><g id="Group_739" data-name="Group 739" class="cls-97"><g id="Group_316" data-name="Group 316"><path id="Path_1193" data-name="Path 1193" class="cls-98" d="M1011.86,916.39l.5,1.62c-.77-1-1.48-1.92-2.15-2.9Z" transform="translate(-310.96 -569.68)"/><path id="Path_1194" data-name="Path 1194" class="cls-99" d="M1000.67,877.72l3.92,11.95h-3.81c-.83-4.29-1.51-8.65-2.27-13Z" transform="translate(-310.96 -569.68)"/><path id="Path_1195" data-name="Path 1195" class="cls-99" d="M1004.59,891.16l1.67,4-4.48-.73c-.34-1.49-.66-3-.95-4.5Z" transform="translate(-310.96 -569.68)"/><path id="Path_1196" data-name="Path 1196" class="cls-99" d="M1006.26,897.47l1.12,4.15-3.3,1c-.83-2.45-1.53-4.95-2.13-7.5Z" transform="translate(-310.96 -569.68)"/><path id="Path_1197" data-name="Path 1197" class="cls-99" d="M1007.38,904.77l3.36,6.15h-3.08a54.5,54.5,0,0,1-3-6.76Z" transform="translate(-310.96 -569.68)"/><path id="Path_1198" data-name="Path 1198" class="cls-99" d="M997.48,871.72l1.7.7,1.49,3.31h-2.31c-.12-.69-.24-1.37-.37-2.06A9.33,9.33,0,0,0,997.48,871.72Z" transform="translate(-310.96 -569.68)"/><path id="Path_1199" data-name="Path 1199" class="cls-98" d="M992.47,867.1h2.64c.63,1.28,1.43,2.49,2,3.82h-1.6l1.93.79a8.86,8.86,0,0,1,.52,2c.13.69.25,1.37.37,2.06h-1.6l1.75.9c.76,4.39,1.44,8.76,2.27,13h-.72l.77.25c.29,1.51.61,3,.95,4.5l-1.66-.27,1.83,1c.61,2.54,1.3,5,2.14,7.49l-2.63.81,3.17.71a56,56,0,0,0,3,6.76h-2.89l5.44,4.19c.66,1,1.38,1.95,2.15,2.9l1.74,5.68H1001a41.92,41.92,0,0,0-1.33-7.7c-3.16-16-.86-31.93-7.63-47.06Z" transform="translate(-310.96 -569.68)"/><path id="Path_1200" data-name="Path 1200" class="cls-98" d="M995,866.92l-2.27-.81,1-4.34a3.82,3.82,0,0,1,.32,1.45A8.52,8.52,0,0,0,995,866.92Z" transform="translate(-310.96 -569.68)"/><path id="Path_1201" data-name="Path 1201" class="cls-99" d="M995.55,867.1l-.52-.18a8.4,8.4,0,0,1-.95-3.7,3.82,3.82,0,0,0-.32-1.45l1.13-4.87,4.29,14h-2c-.61-1.33-1.41-2.54-2-3.82Z" transform="translate(-310.96 -569.68)"/><path id="Path_1202" data-name="Path 1202" class="cls-100" d="M978.48,917.05l11.57-1.82-10.26-2L983,901.62l6.15-3.15-4.66-1.33,1.67-6.64,6.34-1.49-5.77-1.67,2.6-7.8,4.29-.83L990,877.55l2-8.63c6.77,15.13,4.47,31.1,7.63,47.06a41.92,41.92,0,0,1,1.33,7.7H977.36Z" transform="translate(-310.96 -569.68)"/></g><g id="Group_317" data-name="Group 317" class="cls-101"><path id="Path_1203" data-name="Path 1203" class="cls-22" d="M1011.86,916.39l.5,1.62c-.77-1-1.48-1.92-2.15-2.9Z" transform="translate(-310.96 -569.68)"/><path id="Path_1204" data-name="Path 1204" class="cls-22" d="M1000.67,877.72l3.92,11.95h-3.81c-.83-4.29-1.51-8.65-2.27-13Z" transform="translate(-310.96 -569.68)"/><path id="Path_1205" data-name="Path 1205" class="cls-22" d="M1004.59,891.16l1.67,4-4.48-.73c-.34-1.49-.66-3-.95-4.5Z" transform="translate(-310.96 -569.68)"/><path id="Path_1206" data-name="Path 1206" class="cls-22" d="M1006.26,897.47l1.12,4.15-3.3,1c-.83-2.45-1.53-4.95-2.13-7.5Z" transform="translate(-310.96 -569.68)"/><path id="Path_1207" data-name="Path 1207" class="cls-22" d="M1007.38,904.77l3.36,6.15h-3.08a54.5,54.5,0,0,1-3-6.76Z" transform="translate(-310.96 -569.68)"/><path id="Path_1208" data-name="Path 1208" class="cls-22" d="M997.48,871.72l1.7.7,1.49,3.31h-2.31c-.12-.69-.24-1.37-.37-2.06A9.33,9.33,0,0,0,997.48,871.72Z" transform="translate(-310.96 -569.68)"/><path id="Path_1209" data-name="Path 1209" class="cls-22" d="M992.47,867.1h2.64c.63,1.28,1.43,2.49,2,3.82h-1.6l1.93.79a8.86,8.86,0,0,1,.52,2c.13.69.25,1.37.37,2.06h-1.6l1.75.9c.76,4.39,1.44,8.76,2.27,13h-.72l.77.25c.29,1.51.61,3,.95,4.5l-1.66-.27,1.83,1c.61,2.54,1.3,5,2.14,7.49l-2.63.81,3.17.71a56,56,0,0,0,3,6.76h-2.89l5.44,4.19c.66,1,1.38,1.95,2.15,2.9l1.74,5.68H1001a41.92,41.92,0,0,0-1.33-7.7c-3.16-16-.86-31.93-7.63-47.06Z" transform="translate(-310.96 -569.68)"/><path id="Path_1210" data-name="Path 1210" class="cls-22" d="M995,866.92l-2.27-.81,1-4.34a3.82,3.82,0,0,1,.32,1.45A8.52,8.52,0,0,0,995,866.92Z" transform="translate(-310.96 -569.68)"/><path id="Path_1211" data-name="Path 1211" class="cls-22" d="M995.55,867.1l-.52-.18a8.4,8.4,0,0,1-.95-3.7,3.82,3.82,0,0,0-.32-1.45l1.13-4.87,4.29,14h-2c-.61-1.33-1.41-2.54-2-3.82Z" transform="translate(-310.96 -569.68)"/><path id="Path_1212" data-name="Path 1212" class="cls-22" d="M978.48,917.05l11.57-1.82-10.26-2L983,901.62l6.15-3.15-4.66-1.33,1.67-6.64,6.34-1.49-5.77-1.67,2.6-7.8,4.29-.83L990,877.55l2-8.63c6.77,15.13,4.47,31.1,7.63,47.06a41.92,41.92,0,0,1,1.33,7.7H977.36Z" transform="translate(-310.96 -569.68)"/></g></g><path id="Path_19770" data-name="Path 19770" class="cls-103" d="M1188.57,949.65,1146.86,946c-231.57,21-245.51,125.86-239.87,179.23l163.12-50.33C932,1002,1184.86,954.39,1188.57,949.65Z" transform="translate(-310.96 -569.68)"/><g id="Group_733" data-name="Group 733"><g id="Group_439" data-name="Group 439"><path id="Path_1953" data-name="Path 1953" class="cls-104" d="M1134.66,901.4l10.64-34.63,3.13,31.89,13.53-51,6.71,45.59,12.57-27.3,8.89,27.42,7-39.92,12.24,31.67,8.11-20.82,9.12,20.36,8.36-38.82,11.56,39.79S1233,941.58,1134.66,901.4Z" transform="translate(-310.96 -569.68)"/><path id="Path_1954" data-name="Path 1954" class="cls-104" d="M1275.37,872l6.69-31.62,8.08,27.77Z" transform="translate(-310.96 -569.68)"/><path id="Path_1955" data-name="Path 1955" class="cls-104" d="M1313.74,856.22l3-31.62,3.67,27.77Z" transform="translate(-310.96 -569.68)"/><path id="Path_1956" data-name="Path 1956" class="cls-104" d="M1379.43,850.63l3-31.61,3.67,27.77Z" transform="translate(-310.96 -569.68)"/><path id="Path_1957" data-name="Path 1957" class="cls-104" d="M1483.73,872l3-31.62,3.67,27.77Z" transform="translate(-310.96 -569.68)"/><path id="Path_1958" data-name="Path 1958" class="cls-104" d="M1490.44,868.18l3.79-33.36,5,38.95Z" transform="translate(-310.96 -569.68)"/><path id="Path_1959" data-name="Path 1959" class="cls-104" d="M1331.47,856.53l5.56-66.71,10.34,60.6Z" transform="translate(-310.96 -569.68)"/><path id="Path_1960" data-name="Path 1960" class="cls-104" d="M1443.88,868.18l5.56-66.71,10.34,60.6Z" transform="translate(-310.96 -569.68)"/><path id="Path_1961" data-name="Path 1961" class="cls-104" d="M1341.5,868.18l10.2-66.71,12.3,58.6Z" transform="translate(-310.96 -569.68)"/><path id="Path_1962" data-name="Path 1962" class="cls-104" d="M1537.38,899.79l10.19-66.71,12.3,58.6Z" transform="translate(-310.96 -569.68)"/><path id="Path_1963" data-name="Path 1963" class="cls-104" d="M1548.63,907.13l10.19-66.72,12.3,58.6Z" transform="translate(-310.96 -569.68)"/><path id="Path_1964" data-name="Path 1964" class="cls-104" d="M1522.09,910.92l10.2-66.71,12.3,58.6Z" transform="translate(-310.96 -569.68)"/><path id="Path_1965" data-name="Path 1965" class="cls-104" d="M1612.09,928l10.2-66.71,12.3,58.6Z" transform="translate(-310.96 -569.68)"/><path id="Path_1966" data-name="Path 1966" class="cls-104" d="M1630.26,938.74l10.2-66.71,12.3,58.6Z" transform="translate(-310.96 -569.68)"/><path id="Path_1967" data-name="Path 1967" class="cls-104" d="M1625.82,938.74,1636,872l12.3,58.6Z" transform="translate(-310.96 -569.68)"/><path id="Path_1968" data-name="Path 1968" class="cls-104" d="M1648.19,937.89l10.2-47.6,12.3,41.81Z" transform="translate(-310.96 -569.68)"/><path id="Path_1969" data-name="Path 1969" class="cls-104" d="M1599.47,909.49l7.48-35.72,11.51,37.15Z" transform="translate(-310.96 -569.68)"/><path id="Path_1970" data-name="Path 1970" class="cls-104" d="M1352.75,877.57l10.2-66.72,12.3,58.6Z" transform="translate(-310.96 -569.68)"/><path id="Path_1971" data-name="Path 1971" class="cls-104" d="M1429.33,877.57l10.2-66.72,12.3,58.6Z" transform="translate(-310.96 -569.68)"/><path id="Path_1972" data-name="Path 1972" class="cls-104" d="M1456.93,889.58l10.19-66.71,12.3,58.6Z" transform="translate(-310.96 -569.68)"/><path id="Path_1973" data-name="Path 1973" class="cls-104" d="M1506.07,884l10.2-66.72,12.3,66.72Z" transform="translate(-310.96 -569.68)"/></g><path id="Path_1974" data-name="Path 1974" class="cls-104" d="M2004.06,900l7.48-35.72,11.51,37.15Z" transform="translate(-310.96 -569.68)"/><path id="Path_1975" data-name="Path 1975" class="cls-104" d="M1977.48,919.12l10.2-66.71L2000,911Z" transform="translate(-310.96 -569.68)"/><g id="Group_440" data-name="Group 440"><path id="Path_1976" data-name="Path 1976" class="cls-104" d="M1816.23,953.41l3-31.61,8,33.35Z" transform="translate(-310.96 -569.68)"/><path id="Path_1977" data-name="Path 1977" class="cls-104" d="M1822.94,949.57l3.78-33.36,5,38.95Z" transform="translate(-310.96 -569.68)"/><path id="Path_1978" data-name="Path 1978" class="cls-104" d="M1776.37,949.57l5.56-66.71,12.81,74.66Z" transform="translate(-310.96 -569.68)"/><path id="Path_1979" data-name="Path 1979" class="cls-104" d="M1869.87,981.18l10.2-66.72,12.3,58.6Z" transform="translate(-310.96 -569.68)"/><path id="Path_1980" data-name="Path 1980" class="cls-104" d="M1881.12,988.51l10.2-66.71,12.3,58.6Z" transform="translate(-310.96 -569.68)"/><path id="Path_1981" data-name="Path 1981" class="cls-104" d="M1854.59,992.31l10.2-66.71,12.3,58.6Z" transform="translate(-310.96 -569.68)"/><path id="Path_1982" data-name="Path 1982" class="cls-104" d="M1761.83,959l10.2-66.72,12.3,65.28Z" transform="translate(-310.96 -569.68)"/><path id="Path_1983" data-name="Path 1983" class="cls-104" d="M1789.42,971l10.2-66.72,12.3,58.6Z" transform="translate(-310.96 -569.68)"/><path id="Path_1984" data-name="Path 1984" class="cls-104" d="M1838.56,965.37l10.2-66.71,12.3,66.71Z" transform="translate(-310.96 -569.68)"/></g></g><path id="Path_19779" data-name="Path 19779" class="cls-105" d="M910.65,1122H2428.13s-160.74-55.24-298-107-335.9-53.84-335.9-53.84C1523.67,950.1,1095,1053.23,910.65,1122Z" transform="translate(-310.96 -569.68)"/><path id="Path_19784" data-name="Path 19784" class="cls-98" d="M1012.7,1069.5l1.29,4.71q-3-4.14-5.58-8.44Z" transform="translate(-310.96 -569.68)"/><path id="Path_19786" data-name="Path 19786" class="cls-106" d="M976,1090.77H965.82v19.06H976Z" transform="translate(-310.96 -569.68)"/><path id="Path_19775" data-name="Path 19775" class="cls-107" d="M1038.34,934.63h-5v9.47h5Z" transform="translate(-310.96 -569.68)"/><path id="Path_19777" data-name="Path 19777" class="cls-107" d="M1067.07,941.6h-5v9.47h5Z" transform="translate(-310.96 -569.68)"/><path id="Path_19778" data-name="Path 19778" class="cls-99" d="M983.7,956.87l10.15,34.8H984c-2.15-12.49-3.91-25.22-5.87-38Z" transform="translate(-310.96 -569.68)"/><path id="Path_19780" data-name="Path 19780" class="cls-99" d="M993.85,996l4.35,11.6-11.63-2.12q-1.32-6.48-2.46-13.1Z" transform="translate(-310.96 -569.68)"/><path id="Path_19781" data-name="Path 19781" class="cls-99" d="M998.2,1014.4l2.9,12.08-8.54,3c-2.17-7.13-4-14.41-5.55-21.82Z" transform="translate(-310.96 -569.68)"/><path id="Path_19783" data-name="Path 19783" class="cls-99" d="M1001.1,1035.67l8.7,17.88h-8a166,166,0,0,1-7.86-19.68Z" transform="translate(-310.96 -569.68)"/><path id="Path_19782" data-name="Path 19782" class="cls-108" d="M1069.26,1071.57l88.42-26.23c82.54-17.71,47.34-9.35,49.16-9.69,500.41-94.33,655.09,55,723.47,102.18l-367,29.36L1497.28,1101C1389.36,1031.91,1082.05,1074.42,1069.26,1071.57Z" transform="translate(-310.96 -569.68)"/><path id="Path_19776" data-name="Path 19776" class="cls-99" d="M975.42,939.37l4.41,2,3.87,9.67h-6c-.31-2-.62-4-1-6A28.72,28.72,0,0,0,975.42,939.37Z" transform="translate(-310.96 -569.68)"/><path id="Path_19773" data-name="Path 19773" class="cls-109" d="M962.43,925.94h6.86c1.63,3.71,3.7,7.25,5.27,11.11H970.4l5,2.32a28.56,28.56,0,0,1,1.34,5.71q.48,3,1,6h-4.16l4.56,2.61c2,12.77,3.72,25.5,5.87,38h-1.85l2,.73q1.14,6.6,2.46,13.1l-4.32-.78,4.76,2.89c1.57,7.41,3.38,14.7,5.55,21.82l-6.81,2.36,8.21,2.07a167.7,167.7,0,0,0,7.85,19.68h-7.48l14.07,12.22q2.61,4.29,5.59,8.45l4.51,16.55h-34a136,136,0,0,0-3.44-22.43c-8.21-46.5-2.23-93-19.78-137.08Z" transform="translate(-310.96 -569.68)"/><path id="Path_19772" data-name="Path 19772" class="cls-98" d="M969.06,925.39l-5.9-2.35,2.62-12.65a12.57,12.57,0,0,1,.83,4.23A27.06,27.06,0,0,0,969.06,925.39Z" transform="translate(-310.96 -569.68)"/><path id="Path_19771" data-name="Path 19771" class="cls-99" d="M970.41,925.94l-1.35-.55a27,27,0,0,1-2.45-10.77,12.47,12.47,0,0,0-.83-4.22l2.94-14.19,11.11,40.84h-5.27c-1.57-3.86-3.64-7.4-5.27-11.11Z" transform="translate(-310.96 -569.68)"/><path id="Path_19774" data-name="Path 19774" class="cls-110" d="M926.18,1071.44l30-5.32-26.59-5.8,8.22-33.83,16-9.19-12.08-3.87L946,994.1l16.43-4.35-15-4.84,6.77-22.72,11.12-2.41-9.18-3.39,5.18-25.12c17.55,44.07,11.58,90.57,19.78,137.08a135.88,135.88,0,0,1,3.44,22.42H923.28Z" transform="translate(-310.96 -569.68)"/><g id="Group_732" data-name="Group 732"><path id="Path_1932" data-name="Path 1932" class="cls-98" d="M948.5,1058.17l2.58,9.45q-6-8.32-11.19-16.93Z" transform="translate(-310.96 -569.68)"/><g id="Group_431" data-name="Group 431"><path id="Path_1933" data-name="Path 1933" class="cls-106" d="M874.84,1100.82H854.48v54.41h20.36Z" transform="translate(-310.96 -569.68)"/><path id="Path_1934" data-name="Path 1934" class="cls-99" d="M890.35,832.33l20.35,69.79H890.91c-4.31-25-7.85-50.57-11.77-76.19Z" transform="translate(-310.96 -569.68)"/><path id="Path_1935" data-name="Path 1935" class="cls-99" d="M910.7,910.84l8.72,23.27-23.31-4.24q-2.67-13-4.94-26.28Z" transform="translate(-310.96 -569.68)"/><path id="Path_1936" data-name="Path 1936" class="cls-99" d="M919.42,947.68l5.82,24.23-17.13,5.93c-4.35-14.29-8-28.91-11.12-43.76Z" transform="translate(-310.96 -569.68)"/><path id="Path_1937" data-name="Path 1937" class="cls-99" d="M925.24,990.32l17.44,35.87h-16a335.58,335.58,0,0,1-15.75-39.47Z" transform="translate(-310.96 -569.68)"/><path id="Path_1938" data-name="Path 1938" class="cls-99" d="M873.74,797.23l8.85,4.09,7.75,19.38h-12q-.95-6-1.9-12A58.58,58.58,0,0,0,873.74,797.23Z" transform="translate(-310.96 -569.68)"/><path id="Path_1939" data-name="Path 1939" class="cls-109" d="M847.7,770.3h13.75c3.27,7.45,7.41,14.55,10.57,22.29h-8.33l10,4.64a57.78,57.78,0,0,1,2.7,11.45q1,6,1.9,12H870l9.15,5.23c3.92,25.62,7.46,51.14,11.77,76.19h-3.72l4,1.47q2.31,13.24,4.94,26.27l-8.67-1.57,9.56,5.79c3.15,14.85,6.77,29.46,11.11,43.76l-13.64,4.73,16.46,4.14a334.89,334.89,0,0,0,15.75,39.47h-15l28.21,24.5q5.22,8.63,11.19,16.93l9.06,33.2H892a273.31,273.31,0,0,0-6.89-45c-16.45-93.25-4.48-186.5-39.66-274.87Z" transform="translate(-310.96 -569.68)"/><path id="Path_1940" data-name="Path 1940" class="cls-98" d="M861,769.21l-11.82-4.73,5.25-25.34a25.13,25.13,0,0,1,1.67,8.48C856.08,755.61,858.16,762.57,861,769.21Z" transform="translate(-310.96 -569.68)"/><path id="Path_1941" data-name="Path 1941" class="cls-99" d="M863.69,770.3l-2.7-1.09c-2.83-6.64-4.9-13.6-4.9-21.59a25.28,25.28,0,0,0-1.67-8.48l5.89-28.45,22.29,81.9H872c-3.17-7.74-7.31-14.84-10.58-22.29h2.25Z" transform="translate(-310.96 -569.68)"/><path id="Path_1942" data-name="Path 1942" class="cls-111" d="M835.1,1051.39l-5.55-1.21V953.89l.7-.4-.7-.22V903.05l18.15-4.8-18.15-5.86V848.61l1.67-5.61,22.29-4.85-18.41-6.78L845.5,781c35.18,88.37,23.21,181.62,39.66,274.87a273.31,273.31,0,0,1,6.89,45h-62.5v-48.45Z" transform="translate(-310.96 -569.68)"/></g></g><g id="Group_742" data-name="Group 742"><g id="Group_334" data-name="Group 334"><path id="Path_1313" data-name="Path 1313" class="cls-98" d="M1074.92,940.52l.31,1c-.49-.62-1-1.24-1.38-1.87Z" transform="translate(-310.96 -569.68)"/><path id="Path_1314" data-name="Path 1314" class="cls-99" d="M1067.72,915.66l2.52,7.68h-2.45c-.53-2.76-1-5.57-1.45-8.39Z" transform="translate(-310.96 -569.68)"/><path id="Path_1315" data-name="Path 1315" class="cls-99" d="M1070.24,924.3l1.08,2.56-2.88-.46c-.22-1-.43-1.93-.62-2.9Z" transform="translate(-310.96 -569.68)"/><path id="Path_1316" data-name="Path 1316" class="cls-99" d="M1071.32,928.35,1072,931l-2.12.65c-.54-1.57-1-3.18-1.37-4.81Z" transform="translate(-310.96 -569.68)"/><path id="Path_1317" data-name="Path 1317" class="cls-99" d="M1072,933.05l2.16,4h-2a34.58,34.58,0,0,1-2-4.35Z" transform="translate(-310.96 -569.68)"/><path id="Path_1318" data-name="Path 1318" class="cls-99" d="M1065.67,911.79l1.1.46,1,2.13h-1.49c-.07-.44-.15-.88-.23-1.33A6.18,6.18,0,0,0,1065.67,911.79Z" transform="translate(-310.96 -569.68)"/><path id="Path_1319" data-name="Path 1319" class="cls-98" d="M1062.45,908.83h1.7c.4.82.92,1.6,1.31,2.46h-1l1.24.51a5.31,5.31,0,0,1,.33,1.26c.09.44.16.88.24,1.32h-1l1.13.57c.49,2.82.92,5.63,1.45,8.39h-.45l.49.16c.19,1,.39,1.94.61,2.89l-1.07-.17,1.18.64c.39,1.63.84,3.24,1.37,4.81l-1.68.53,2,.45a35.24,35.24,0,0,0,2,4.35h-1.86l3.5,2.7q.65.94,1.38,1.86l1.12,3.65h-8.42a27.7,27.7,0,0,0-.85-5c-2-10.26-.56-20.52-4.91-30.25Z" transform="translate(-310.96 -569.68)"/><path id="Path_1320" data-name="Path 1320" class="cls-98" d="M1064.09,908.71l-1.46-.52.65-2.79a2.52,2.52,0,0,1,.21.93A5.31,5.31,0,0,0,1064.09,908.71Z" transform="translate(-310.96 -569.68)"/><path id="Path_1321" data-name="Path 1321" class="cls-99" d="M1064.43,908.83l-.34-.12a5.31,5.31,0,0,1-.6-2.38,2.52,2.52,0,0,0-.21-.93l.73-3.13,2.75,9h-1.3c-.39-.85-.91-1.63-1.31-2.45Z" transform="translate(-310.96 -569.68)"/><path id="Path_1322" data-name="Path 1322" class="cls-100" d="M1053.46,940.94l7.43-1.17-6.59-1.28,2-7.47,4-2-3-.85,1.08-4.27,4.08-1-3.72-1.07,1.68-5,2.76-.53-2.28-.75,1.29-5.55c4.35,9.73,2.87,20,4.9,30.26a26.69,26.69,0,0,1,.85,5h-15.19Z" transform="translate(-310.96 -569.68)"/></g><g id="Group_335" data-name="Group 335" class="cls-101"><path id="Path_1323" data-name="Path 1323" class="cls-22" d="M1074.92,940.52l.31,1c-.49-.62-1-1.24-1.38-1.87Z" transform="translate(-310.96 -569.68)"/><path id="Path_1324" data-name="Path 1324" class="cls-22" d="M1067.72,915.66l2.52,7.68h-2.45c-.53-2.76-1-5.57-1.45-8.39Z" transform="translate(-310.96 -569.68)"/><path id="Path_1325" data-name="Path 1325" class="cls-22" d="M1070.24,924.3l1.08,2.56-2.88-.46c-.22-1-.43-1.93-.62-2.9Z" transform="translate(-310.96 -569.68)"/><path id="Path_1326" data-name="Path 1326" class="cls-22" d="M1071.32,928.35,1072,931l-2.12.65c-.54-1.57-1-3.18-1.37-4.81Z" transform="translate(-310.96 -569.68)"/><path id="Path_1327" data-name="Path 1327" class="cls-22" d="M1072,933.05l2.16,4h-2a34.58,34.58,0,0,1-2-4.35Z" transform="translate(-310.96 -569.68)"/><path id="Path_1328" data-name="Path 1328" class="cls-22" d="M1065.67,911.79l1.1.46,1,2.13h-1.49c-.07-.44-.15-.88-.23-1.33A6.18,6.18,0,0,0,1065.67,911.79Z" transform="translate(-310.96 -569.68)"/><path id="Path_1329" data-name="Path 1329" class="cls-22" d="M1062.45,908.83h1.7c.4.82.92,1.6,1.31,2.46h-1l1.24.51a5.31,5.31,0,0,1,.33,1.26c.09.44.16.88.24,1.32h-1l1.13.57c.49,2.82.92,5.63,1.45,8.39h-.45l.49.16c.19,1,.39,1.94.61,2.89l-1.07-.17,1.18.64c.39,1.63.84,3.24,1.37,4.81l-1.68.53,2,.45a35.24,35.24,0,0,0,2,4.35h-1.86l3.5,2.7q.65.94,1.38,1.86l1.12,3.65h-8.42a27.7,27.7,0,0,0-.85-5c-2-10.26-.56-20.52-4.91-30.25Z" transform="translate(-310.96 -569.68)"/><path id="Path_1330" data-name="Path 1330" class="cls-22" d="M1064.09,908.71l-1.46-.52.65-2.79a2.52,2.52,0,0,1,.21.93A5.31,5.31,0,0,0,1064.09,908.71Z" transform="translate(-310.96 -569.68)"/><path id="Path_1331" data-name="Path 1331" class="cls-22" d="M1064.43,908.83l-.34-.12a5.31,5.31,0,0,1-.6-2.38,2.52,2.52,0,0,0-.21-.93l.73-3.13,2.75,9h-1.3c-.39-.85-.91-1.63-1.31-2.45Z" transform="translate(-310.96 -569.68)"/><path id="Path_1332" data-name="Path 1332" class="cls-22" d="M1053.46,940.94l7.43-1.17-6.59-1.28,2-7.47,4-2-3-.85,1.08-4.27,4.08-1-3.72-1.07,1.68-5,2.76-.53-2.28-.75,1.29-5.55c4.35,9.73,2.87,20,4.9,30.26a26.69,26.69,0,0,1,.85,5h-15.19Z" transform="translate(-310.96 -569.68)"/></g></g><g id="Group_741" data-name="Group 741"><g id="Group_334-2" data-name="Group 334-2"><path id="Path_1313-2" data-name="Path 1313-2" class="cls-98" d="M1050,929.2l.45,1.48c-.7-.86-1.35-1.75-2-2.65Z" transform="translate(-310.96 -569.68)"/><path id="Path_1314-2" data-name="Path 1314-2" class="cls-99" d="M1039.78,893.91l3.57,10.91h-3.48c-.75-3.91-1.37-7.9-2.06-11.91Z" transform="translate(-310.96 -569.68)"/><path id="Path_1315-2" data-name="Path 1315-2" class="cls-99" d="M1043.35,906.18l1.53,3.64-4.09-.66q-.48-2-.87-4.11Z" transform="translate(-310.96 -569.68)"/><path id="Path_1316-2" data-name="Path 1316-2" class="cls-99" d="M1044.88,911.94l1,3.79-3,.92c-.77-2.23-1.4-4.51-2-6.84Z" transform="translate(-310.96 -569.68)"/><path id="Path_1317-2" data-name="Path 1317-2" class="cls-99" d="M1045.9,918.6l3.07,5.61h-2.82a49.39,49.39,0,0,1-2.76-6.17Z" transform="translate(-310.96 -569.68)"/><path id="Path_1318-2" data-name="Path 1318-2" class="cls-99" d="M1036.86,888.43l1.56.64,1.36,3h-2.11l-.33-1.88A8.61,8.61,0,0,0,1036.86,888.43Z" transform="translate(-310.96 -569.68)"/><path id="Path_1319-2" data-name="Path 1319-2" class="cls-98" d="M1032.29,884.22h2.41c.57,1.17,1.3,2.27,1.86,3.48h-1.46l1.76.73a8,8,0,0,1,.48,1.79l.33,1.88h-1.46l1.6.81c.69,4,1.31,8,2.06,11.91h-.65l.7.23q.4,2.07.87,4.11l-1.52-.25,1.68.9c.55,2.32,1.19,4.61,2,6.84l-2.4.74,2.89.64a49.39,49.39,0,0,0,2.76,6.17h-2.63l5,3.83c.61.9,1.26,1.78,2,2.65l1.59,5.18h-12a38.16,38.16,0,0,0-1.21-7c-2.89-14.57-.78-29.14-7-43Z" transform="translate(-310.96 -569.68)"/><path id="Path_1320-2" data-name="Path 1320-2" class="cls-98" d="M1034.62,884.05l-2.08-.74.93-4a3.56,3.56,0,0,1,.29,1.32A7.77,7.77,0,0,0,1034.62,884.05Z" transform="translate(-310.96 -569.68)"/><path id="Path_1321-2" data-name="Path 1321-2" class="cls-99" d="M1035.1,884.22l-.48-.17a7.63,7.63,0,0,1-.86-3.38,3.39,3.39,0,0,0-.3-1.32l1-4.44,3.91,12.8h-1.85c-.56-1.21-1.29-2.32-1.86-3.49Z" transform="translate(-310.96 -569.68)"/><path id="Path_1322-2" data-name="Path 1322-2" class="cls-100" d="M1019.52,929.81l10.56-1.66-9.36-1.82,2.89-10.6,5.61-2.88-4.25-1.21,1.53-6.06,5.79-1.36L1027,902.7l2.38-7.12,3.92-.75-3.23-1.07,1.82-7.87c6.18,13.81,4.07,28.38,7,43a38,38,0,0,1,1.21,7H1018.5Z" transform="translate(-310.96 -569.68)"/></g><g id="Group_335-2" data-name="Group 335-2" class="cls-101"><path id="Path_1323-2" data-name="Path 1323-2" class="cls-22" d="M1050,929.2l.45,1.48c-.7-.86-1.35-1.75-2-2.65Z" transform="translate(-310.96 -569.68)"/><path id="Path_1324-2" data-name="Path 1324-2" class="cls-22" d="M1039.78,893.91l3.57,10.91h-3.48c-.75-3.91-1.37-7.9-2.06-11.91Z" transform="translate(-310.96 -569.68)"/><path id="Path_1325-2" data-name="Path 1325-2" class="cls-22" d="M1043.35,906.18l1.53,3.64-4.09-.66q-.48-2-.87-4.11Z" transform="translate(-310.96 -569.68)"/><path id="Path_1326-2" data-name="Path 1326-2" class="cls-22" d="M1044.88,911.94l1,3.79-3,.92c-.77-2.23-1.4-4.51-2-6.84Z" transform="translate(-310.96 -569.68)"/><path id="Path_1327-2" data-name="Path 1327-2" class="cls-22" d="M1045.9,918.6l3.07,5.61h-2.82a49.39,49.39,0,0,1-2.76-6.17Z" transform="translate(-310.96 -569.68)"/><path id="Path_1328-2" data-name="Path 1328-2" class="cls-22" d="M1036.86,888.43l1.56.64,1.36,3h-2.11l-.33-1.88A8.61,8.61,0,0,0,1036.86,888.43Z" transform="translate(-310.96 -569.68)"/><path id="Path_1329-2" data-name="Path 1329-2" class="cls-22" d="M1032.29,884.22h2.41c.57,1.17,1.3,2.27,1.86,3.48h-1.46l1.76.73a8,8,0,0,1,.48,1.79l.33,1.88h-1.46l1.6.81c.69,4,1.31,8,2.06,11.91h-.65l.7.23q.4,2.07.87,4.11l-1.52-.25,1.68.9c.55,2.32,1.19,4.61,2,6.84l-2.4.74,2.89.64a49.39,49.39,0,0,0,2.76,6.17h-2.63l5,3.83c.61.9,1.26,1.78,2,2.65l1.59,5.18h-12a38.16,38.16,0,0,0-1.21-7c-2.89-14.57-.78-29.14-7-43Z" transform="translate(-310.96 -569.68)"/><path id="Path_1330-2" data-name="Path 1330-2" class="cls-22" d="M1034.62,884.05l-2.08-.74.93-4a3.56,3.56,0,0,1,.29,1.32A7.77,7.77,0,0,0,1034.62,884.05Z" transform="translate(-310.96 -569.68)"/><path id="Path_1331-2" data-name="Path 1331-2" class="cls-22" d="M1035.1,884.22l-.48-.17a7.63,7.63,0,0,1-.86-3.38,3.39,3.39,0,0,0-.3-1.32l1-4.44,3.91,12.8h-1.85c-.56-1.21-1.29-2.32-1.86-3.49Z" transform="translate(-310.96 -569.68)"/><path id="Path_1332-2" data-name="Path 1332-2" class="cls-22" d="M1019.52,929.81l10.56-1.66-9.36-1.82,2.89-10.6,5.61-2.88-4.25-1.21,1.53-6.06,5.79-1.36L1027,902.7l2.38-7.12,3.92-.75-3.23-1.07,1.82-7.87c6.18,13.81,4.07,28.38,7,43a38,38,0,0,1,1.21,7H1018.5Z" transform="translate(-310.96 -569.68)"/></g></g></g></g></g></svg>